G04 #@! TF.FileFunction,Paste,Bot*
%FSLAX46Y46*%
G04 Gerber Fmt 4.6, Leading zero omitted, Abs format (unit mm)*
G04 Created by KiCad (PCBNEW 4.0.0-rc1-stable) date 29/09/2017 04:45:12 p.m.*
%MOMM*%
G01*
G04 APERTURE LIST*
%ADD10C,0.100000*%
%ADD11R,0.900000X0.500000*%
%ADD12R,1.000000X1.250000*%
%ADD13R,0.900000X0.900000*%
%ADD14R,0.250000X1.300000*%
%ADD15R,1.300000X0.250000*%
%ADD16R,0.500000X0.900000*%
%ADD17R,0.800000X0.750000*%
%ADD18R,0.750000X0.800000*%
%ADD19R,2.600000X0.800000*%
%ADD20R,1.800860X1.998980*%
%ADD21R,1.600000X1.000000*%
%ADD22R,0.400000X0.600000*%
%ADD23R,1.500000X1.300000*%
%ADD24R,1.143000X0.508000*%
%ADD25R,0.600000X0.500000*%
%ADD26R,0.400000X2.000000*%
%ADD27R,2.200000X1.200000*%
%ADD28R,1.400000X1.600000*%
%ADD29R,1.400000X1.200000*%
%ADD30R,1.600000X0.700000*%
G04 APERTURE END LIST*
D10*
D11*
X123531000Y-88110000D03*
X123531000Y-89610000D03*
D12*
X143869060Y-101052580D03*
X145869060Y-101052580D03*
D13*
X163260060Y-90832000D03*
X163260060Y-96032000D03*
X163260060Y-92152000D03*
X163260060Y-94712000D03*
X163260060Y-93432000D03*
X160260060Y-94712000D03*
X160260060Y-90832000D03*
X160260060Y-96032000D03*
X160260060Y-92152000D03*
X160260060Y-93432000D03*
D14*
X149485060Y-107878580D03*
X149985060Y-107878580D03*
X150485060Y-107878580D03*
X150985060Y-107878580D03*
X151485060Y-107878580D03*
X151985060Y-107878580D03*
X152485060Y-107878580D03*
X152985060Y-107878580D03*
X153485060Y-107878580D03*
X153985060Y-107878580D03*
X154485060Y-107878580D03*
X154985060Y-107878580D03*
D15*
X156585060Y-109478580D03*
X156585060Y-109978580D03*
X156585060Y-110478580D03*
X156585060Y-110978580D03*
X156585060Y-111478580D03*
X156585060Y-111978580D03*
X156585060Y-112478580D03*
X156585060Y-112978580D03*
X156585060Y-113478580D03*
X156585060Y-113978580D03*
X156585060Y-114478580D03*
X156585060Y-114978580D03*
D14*
X154985060Y-116578580D03*
X154485060Y-116578580D03*
X153985060Y-116578580D03*
X153485060Y-116578580D03*
X152985060Y-116578580D03*
X152485060Y-116578580D03*
X151985060Y-116578580D03*
X151485060Y-116578580D03*
X150985060Y-116578580D03*
X150485060Y-116578580D03*
X149985060Y-116578580D03*
X149485060Y-116578580D03*
D15*
X147885060Y-114978580D03*
X147885060Y-114478580D03*
X147885060Y-113978580D03*
X147885060Y-113478580D03*
X147885060Y-112978580D03*
X147885060Y-112478580D03*
X147885060Y-111978580D03*
X147885060Y-111478580D03*
X147885060Y-110978580D03*
X147885060Y-110478580D03*
X147885060Y-109978580D03*
X147885060Y-109478580D03*
D11*
X159347060Y-113994580D03*
X159347060Y-112494580D03*
X161887060Y-113994580D03*
X161887060Y-112494580D03*
X161887060Y-110946580D03*
X161887060Y-109446580D03*
D16*
X150699060Y-106132580D03*
X149199060Y-106132580D03*
D17*
X140815000Y-116292000D03*
X142315000Y-116292000D03*
X145873060Y-116292580D03*
X144373060Y-116292580D03*
D18*
X159347060Y-106882580D03*
X159347060Y-105382580D03*
X145377060Y-114756580D03*
X145377060Y-113256580D03*
X145377060Y-109954580D03*
X145377060Y-111454580D03*
D16*
X121489060Y-101052580D03*
X119989060Y-101052580D03*
D19*
X142583060Y-112482580D03*
X142583060Y-113982580D03*
X142583060Y-110982580D03*
D20*
X145778380Y-88421160D03*
X151579740Y-88421160D03*
X145778380Y-84220000D03*
X151579740Y-84220000D03*
D21*
X126736000Y-135298000D03*
X126736000Y-138298000D03*
D22*
X129726000Y-139338000D03*
X128826000Y-139338000D03*
D23*
X144279000Y-118832000D03*
X146979000Y-118832000D03*
D21*
X113528000Y-135298000D03*
X113528000Y-138298000D03*
D24*
X137630060Y-102449580D03*
X137630060Y-101179580D03*
X137630060Y-99909580D03*
X137630060Y-98639580D03*
X131280060Y-98639580D03*
X131280060Y-99909580D03*
X131280060Y-101179580D03*
X131280060Y-102449580D03*
D16*
X125299060Y-106132580D03*
X123799060Y-106132580D03*
D12*
X129899060Y-95972580D03*
X131899060Y-95972580D03*
X123549060Y-101052580D03*
X125549060Y-101052580D03*
X129359060Y-103592580D03*
X127359060Y-103592580D03*
X140059060Y-106132580D03*
X142059060Y-106132580D03*
X139519060Y-93432580D03*
X137519060Y-93432580D03*
X129359060Y-106132580D03*
X127359060Y-106132580D03*
X140059060Y-103592580D03*
X142059060Y-103592580D03*
D25*
X139069060Y-95972580D03*
X137969060Y-95972580D03*
D12*
X123549060Y-108672580D03*
X125549060Y-108672580D03*
X142059060Y-98512580D03*
X140059060Y-98512580D03*
D25*
X141609060Y-95972580D03*
X140509060Y-95972580D03*
X136529060Y-90892580D03*
X135429060Y-90892580D03*
X139069060Y-109942580D03*
X137969060Y-109942580D03*
X135429060Y-112482580D03*
X136529060Y-112482580D03*
D12*
X131899060Y-109942580D03*
X129899060Y-109942580D03*
D25*
X131449060Y-107402580D03*
X130349060Y-107402580D03*
X123999060Y-103592580D03*
X125099060Y-103592580D03*
D12*
X129899060Y-93432580D03*
X131899060Y-93432580D03*
D25*
X132889060Y-90892580D03*
X133989060Y-90892580D03*
X123999060Y-98512580D03*
X125099060Y-98512580D03*
X153209060Y-118832580D03*
X154309060Y-118832580D03*
D12*
X151711060Y-118832580D03*
X149711060Y-118832580D03*
D25*
X140509060Y-101052580D03*
X141609060Y-101052580D03*
D12*
X127359060Y-98512580D03*
X129359060Y-98512580D03*
D25*
X137799060Y-107402580D03*
X136699060Y-107402580D03*
D18*
X159347060Y-110946580D03*
X159347060Y-109446580D03*
D17*
X121259060Y-66762580D03*
X122759060Y-66762580D03*
X121259060Y-70572580D03*
X122759060Y-70572580D03*
D25*
X123194060Y-75652580D03*
X122094060Y-75652580D03*
X123194060Y-73112580D03*
X122094060Y-73112580D03*
D17*
X125704060Y-82002580D03*
X127204060Y-82002580D03*
X124029060Y-82002580D03*
X122529060Y-82002580D03*
D23*
X120659060Y-68667580D03*
X123359060Y-68667580D03*
D26*
X127019060Y-79462580D03*
X125819060Y-79462580D03*
X124619060Y-79462580D03*
D25*
X123194060Y-74382000D03*
X122094060Y-74382000D03*
D16*
X117423000Y-94956000D03*
X115923000Y-94956000D03*
X117423000Y-93559000D03*
X115923000Y-93559000D03*
X117423000Y-92162000D03*
X115923000Y-92162000D03*
X117423000Y-97750000D03*
X115923000Y-97750000D03*
X117423000Y-99147000D03*
X115923000Y-99147000D03*
X117423000Y-96353000D03*
X115923000Y-96353000D03*
D27*
X161612000Y-141822000D03*
X161612000Y-126322000D03*
D28*
X152012000Y-140922000D03*
D29*
X152012000Y-126322000D03*
D30*
X151512000Y-127472000D03*
X151512000Y-129672000D03*
X151512000Y-128572000D03*
X151512000Y-130772000D03*
X151512000Y-131872000D03*
X151512000Y-132972000D03*
X151512000Y-136272000D03*
X151512000Y-135172000D03*
X151512000Y-134072000D03*
D12*
X155299060Y-71842580D03*
X157299060Y-71842580D03*
X152759060Y-69302580D03*
X154759060Y-69302580D03*
X155299060Y-76922580D03*
X157299060Y-76922580D03*
X147139060Y-69302580D03*
X145139060Y-69302580D03*
D11*
X126452000Y-90142000D03*
X126452000Y-91642000D03*
X127976000Y-91642000D03*
X127976000Y-90142000D03*
M02*
