G04 #@! TF.FileFunction,Legend,Bot*
%FSLAX46Y46*%
G04 Gerber Fmt 4.6, Leading zero omitted, Abs format (unit mm)*
G04 Created by KiCad (PCBNEW 4.0.0-rc1-stable) date 29/09/2017 04:45:12 p.m.*
%MOMM*%
G01*
G04 APERTURE LIST*
%ADD10C,0.100000*%
%ADD11C,0.120000*%
%ADD12C,0.150000*%
%ADD13C,0.381000*%
%ADD14C,0.203200*%
%ADD15C,0.127000*%
%ADD16C,0.050000*%
G04 APERTURE END LIST*
D10*
D11*
X124211000Y-89360000D02*
X124211000Y-88360000D01*
X122851000Y-88360000D02*
X122851000Y-89360000D01*
X145369060Y-101902580D02*
X144369060Y-101902580D01*
X144369060Y-100202580D02*
X145369060Y-100202580D01*
X160710060Y-96702000D02*
X162810060Y-96702000D01*
X160710060Y-90162000D02*
X162810060Y-90162000D01*
D12*
X148610060Y-108603580D02*
X149135060Y-108603580D01*
X148610060Y-115853580D02*
X149135060Y-115853580D01*
X155860060Y-115853580D02*
X155335060Y-115853580D01*
X155860060Y-108603580D02*
X155335060Y-108603580D01*
X148610060Y-108603580D02*
X148610060Y-109128580D01*
X155860060Y-108603580D02*
X155860060Y-109128580D01*
X155860060Y-115853580D02*
X155860060Y-115328580D01*
X148610060Y-115853580D02*
X148610060Y-115328580D01*
X149135060Y-108603580D02*
X149135060Y-107228580D01*
D11*
X158667060Y-112744580D02*
X158667060Y-113744580D01*
X160027060Y-113744580D02*
X160027060Y-112744580D01*
X161207060Y-112744580D02*
X161207060Y-113744580D01*
X162567060Y-113744580D02*
X162567060Y-112744580D01*
X161207060Y-109696580D02*
X161207060Y-110696580D01*
X162567060Y-110696580D02*
X162567060Y-109696580D01*
X149449060Y-106812580D02*
X150449060Y-106812580D01*
X150449060Y-105452580D02*
X149449060Y-105452580D01*
X141215000Y-116892000D02*
X141915000Y-116892000D01*
X141915000Y-115692000D02*
X141215000Y-115692000D01*
X145473060Y-115692580D02*
X144773060Y-115692580D01*
X144773060Y-116892580D02*
X145473060Y-116892580D01*
X159947060Y-106482580D02*
X159947060Y-105782580D01*
X158747060Y-105782580D02*
X158747060Y-106482580D01*
X145977060Y-114356580D02*
X145977060Y-113656580D01*
X144777060Y-113656580D02*
X144777060Y-114356580D01*
X144777060Y-110354580D02*
X144777060Y-111054580D01*
X145977060Y-111054580D02*
X145977060Y-110354580D01*
X120239060Y-101732580D02*
X121239060Y-101732580D01*
X121239060Y-100372580D02*
X120239060Y-100372580D01*
D13*
X140983060Y-110182580D02*
X144183060Y-110182580D01*
X144183060Y-110182580D02*
X144283060Y-110182580D01*
X144283060Y-110182580D02*
X144283060Y-114882580D01*
X144283060Y-114882580D02*
X140883060Y-114882580D01*
X140883060Y-114882580D02*
X140883060Y-110182580D01*
D14*
X144678560Y-82919520D02*
X144678560Y-85319820D01*
X146779140Y-83021120D02*
X144579500Y-83021120D01*
X144579500Y-85319820D02*
X144579500Y-82919520D01*
X144579500Y-82919520D02*
X146779140Y-82919520D01*
X146779140Y-82919520D02*
X146779140Y-83120180D01*
X144780160Y-85319820D02*
X144579500Y-85319820D01*
X146779140Y-83719620D02*
X146779140Y-83120180D01*
X146779140Y-83120180D02*
X144780160Y-83120180D01*
X144780160Y-83120180D02*
X144780160Y-83719620D01*
X144780160Y-85319820D02*
X146779140Y-85319820D01*
X146779140Y-85319820D02*
X146779140Y-83719620D01*
X146779140Y-88921540D02*
X150578980Y-88921540D01*
X146779140Y-83719620D02*
X150578980Y-83719620D01*
X144780160Y-88921540D02*
X144780160Y-83719620D01*
X152577960Y-88921540D02*
X152577960Y-83719620D01*
D11*
X125716000Y-137798000D02*
X125716000Y-135798000D01*
X127756000Y-135798000D02*
X127756000Y-137798000D01*
X129026000Y-138808000D02*
X129526000Y-138808000D01*
X129526000Y-139868000D02*
X129026000Y-139868000D01*
X146229000Y-117952000D02*
X145029000Y-117952000D01*
X145029000Y-119712000D02*
X146229000Y-119712000D01*
X112508000Y-137798000D02*
X112508000Y-135798000D01*
X114548000Y-135798000D02*
X114548000Y-137798000D01*
D12*
X136741060Y-103084580D02*
X136741060Y-98004580D01*
X136741060Y-98004580D02*
X132169060Y-98004580D01*
X132169060Y-98004580D02*
X132169060Y-103084580D01*
X132169060Y-103084580D02*
X136741060Y-103084580D01*
X135217060Y-103084580D02*
X135217060Y-102576580D01*
X135217060Y-102576580D02*
X133947060Y-102576580D01*
X133947060Y-102576580D02*
X133947060Y-103084580D01*
D11*
X124049060Y-106812580D02*
X125049060Y-106812580D01*
X125049060Y-105452580D02*
X124049060Y-105452580D01*
X131399060Y-96822580D02*
X130399060Y-96822580D01*
X130399060Y-95122580D02*
X131399060Y-95122580D01*
X125049060Y-101902580D02*
X124049060Y-101902580D01*
X124049060Y-100202580D02*
X125049060Y-100202580D01*
X127859060Y-102742580D02*
X128859060Y-102742580D01*
X128859060Y-104442580D02*
X127859060Y-104442580D01*
X141559060Y-106982580D02*
X140559060Y-106982580D01*
X140559060Y-105282580D02*
X141559060Y-105282580D01*
X138019060Y-92582580D02*
X139019060Y-92582580D01*
X139019060Y-94282580D02*
X138019060Y-94282580D01*
X127859060Y-105282580D02*
X128859060Y-105282580D01*
X128859060Y-106982580D02*
X127859060Y-106982580D01*
X141559060Y-104442580D02*
X140559060Y-104442580D01*
X140559060Y-102742580D02*
X141559060Y-102742580D01*
X138269060Y-95502580D02*
X138769060Y-95502580D01*
X138769060Y-96442580D02*
X138269060Y-96442580D01*
X125049060Y-109522580D02*
X124049060Y-109522580D01*
X124049060Y-107822580D02*
X125049060Y-107822580D01*
X140559060Y-97662580D02*
X141559060Y-97662580D01*
X141559060Y-99362580D02*
X140559060Y-99362580D01*
X140809060Y-95502580D02*
X141309060Y-95502580D01*
X141309060Y-96442580D02*
X140809060Y-96442580D01*
X135729060Y-90422580D02*
X136229060Y-90422580D01*
X136229060Y-91362580D02*
X135729060Y-91362580D01*
X138269060Y-109472580D02*
X138769060Y-109472580D01*
X138769060Y-110412580D02*
X138269060Y-110412580D01*
X136229060Y-112952580D02*
X135729060Y-112952580D01*
X135729060Y-112012580D02*
X136229060Y-112012580D01*
X130399060Y-109092580D02*
X131399060Y-109092580D01*
X131399060Y-110792580D02*
X130399060Y-110792580D01*
X130649060Y-106932580D02*
X131149060Y-106932580D01*
X131149060Y-107872580D02*
X130649060Y-107872580D01*
X124799060Y-104062580D02*
X124299060Y-104062580D01*
X124299060Y-103122580D02*
X124799060Y-103122580D01*
X131399060Y-94282580D02*
X130399060Y-94282580D01*
X130399060Y-92582580D02*
X131399060Y-92582580D01*
X133689060Y-91362580D02*
X133189060Y-91362580D01*
X133189060Y-90422580D02*
X133689060Y-90422580D01*
X124799060Y-98982580D02*
X124299060Y-98982580D01*
X124299060Y-98042580D02*
X124799060Y-98042580D01*
X154009060Y-119302580D02*
X153509060Y-119302580D01*
X153509060Y-118362580D02*
X154009060Y-118362580D01*
X150211060Y-117982580D02*
X151211060Y-117982580D01*
X151211060Y-119682580D02*
X150211060Y-119682580D01*
X141309060Y-101522580D02*
X140809060Y-101522580D01*
X140809060Y-100582580D02*
X141309060Y-100582580D01*
X128859060Y-99362580D02*
X127859060Y-99362580D01*
X127859060Y-97662580D02*
X128859060Y-97662580D01*
X136999060Y-106932580D02*
X137499060Y-106932580D01*
X137499060Y-107872580D02*
X136999060Y-107872580D01*
X159947060Y-110546580D02*
X159947060Y-109846580D01*
X158747060Y-109846580D02*
X158747060Y-110546580D01*
X121659060Y-67362580D02*
X122359060Y-67362580D01*
X122359060Y-66162580D02*
X121659060Y-66162580D01*
X121659060Y-71172580D02*
X122359060Y-71172580D01*
X122359060Y-69972580D02*
X121659060Y-69972580D01*
X122394060Y-75182580D02*
X122894060Y-75182580D01*
X122894060Y-76122580D02*
X122394060Y-76122580D01*
X122394060Y-72642580D02*
X122894060Y-72642580D01*
X122894060Y-73582580D02*
X122394060Y-73582580D01*
X126104060Y-82602580D02*
X126804060Y-82602580D01*
X126804060Y-81402580D02*
X126104060Y-81402580D01*
X123629060Y-81402580D02*
X122929060Y-81402580D01*
X122929060Y-82602580D02*
X123629060Y-82602580D01*
X122609060Y-67787580D02*
X121409060Y-67787580D01*
X121409060Y-69547580D02*
X122609060Y-69547580D01*
D15*
X124219060Y-78812580D02*
X124219060Y-80112580D01*
X127419060Y-80112580D02*
X127419060Y-78812580D01*
D10*
X127646060Y-80462580D02*
G75*
G03X127646060Y-80462580I-127000J0D01*
G01*
D11*
X122394060Y-73912000D02*
X122894060Y-73912000D01*
X122894060Y-74852000D02*
X122394060Y-74852000D01*
X116173000Y-95636000D02*
X117173000Y-95636000D01*
X117173000Y-94276000D02*
X116173000Y-94276000D01*
X116173000Y-94239000D02*
X117173000Y-94239000D01*
X117173000Y-92879000D02*
X116173000Y-92879000D01*
X116173000Y-92842000D02*
X117173000Y-92842000D01*
X117173000Y-91482000D02*
X116173000Y-91482000D01*
X116173000Y-98430000D02*
X117173000Y-98430000D01*
X117173000Y-97070000D02*
X116173000Y-97070000D01*
X116173000Y-99827000D02*
X117173000Y-99827000D01*
X117173000Y-98467000D02*
X116173000Y-98467000D01*
X116173000Y-97033000D02*
X117173000Y-97033000D01*
X117173000Y-95673000D02*
X116173000Y-95673000D01*
D12*
X165312000Y-126722000D02*
X165312000Y-134072000D01*
X165312000Y-134072000D02*
X165362000Y-135422000D01*
X165362000Y-135422000D02*
X165512000Y-136572000D01*
X165512000Y-136572000D02*
X165712000Y-137672000D01*
X165712000Y-137672000D02*
X166012000Y-138722000D01*
X152012000Y-136872000D02*
X150712000Y-136872000D01*
X160212000Y-126722000D02*
X153012000Y-126722000D01*
X163012000Y-126722000D02*
X165312000Y-126722000D01*
X166012000Y-138722000D02*
X166012000Y-141422000D01*
X166012000Y-141422000D02*
X163012000Y-141422000D01*
X153012000Y-141422000D02*
X160212000Y-141422000D01*
X152612000Y-136422000D02*
X152612000Y-136122000D01*
X152612000Y-136122000D02*
X152912000Y-136122000D01*
X152912000Y-136122000D02*
X152912000Y-136422000D01*
X152912000Y-136422000D02*
X152612000Y-136422000D01*
X152012000Y-136872000D02*
X152012000Y-139872000D01*
D11*
X156799060Y-72692580D02*
X155799060Y-72692580D01*
X155799060Y-70992580D02*
X156799060Y-70992580D01*
X154259060Y-70152580D02*
X153259060Y-70152580D01*
X153259060Y-68452580D02*
X154259060Y-68452580D01*
X156799060Y-77772580D02*
X155799060Y-77772580D01*
X155799060Y-76072580D02*
X156799060Y-76072580D01*
X145639060Y-68452580D02*
X146639060Y-68452580D01*
X146639060Y-70152580D02*
X145639060Y-70152580D01*
X127132000Y-91392000D02*
X127132000Y-90392000D01*
X125772000Y-90392000D02*
X125772000Y-91392000D01*
X127296000Y-90392000D02*
X127296000Y-91392000D01*
X128656000Y-91392000D02*
X128656000Y-90392000D01*
D12*
X122038666Y-89312381D02*
X122372000Y-88836190D01*
X122610095Y-89312381D02*
X122610095Y-88312381D01*
X122229142Y-88312381D01*
X122133904Y-88360000D01*
X122086285Y-88407619D01*
X122038666Y-88502857D01*
X122038666Y-88645714D01*
X122086285Y-88740952D01*
X122133904Y-88788571D01*
X122229142Y-88836190D01*
X122610095Y-88836190D01*
X121038666Y-89312381D02*
X121372000Y-88836190D01*
X121610095Y-89312381D02*
X121610095Y-88312381D01*
X121229142Y-88312381D01*
X121133904Y-88360000D01*
X121086285Y-88407619D01*
X121038666Y-88502857D01*
X121038666Y-88645714D01*
X121086285Y-88740952D01*
X121133904Y-88788571D01*
X121229142Y-88836190D01*
X121610095Y-88836190D01*
X120657714Y-88407619D02*
X120610095Y-88360000D01*
X120514857Y-88312381D01*
X120276761Y-88312381D01*
X120181523Y-88360000D01*
X120133904Y-88407619D01*
X120086285Y-88502857D01*
X120086285Y-88598095D01*
X120133904Y-88740952D01*
X120705333Y-89312381D01*
X120086285Y-89312381D01*
X148938857Y-101409143D02*
X148986476Y-101456762D01*
X149129333Y-101504381D01*
X149224571Y-101504381D01*
X149367429Y-101456762D01*
X149462667Y-101361524D01*
X149510286Y-101266286D01*
X149557905Y-101075810D01*
X149557905Y-100932952D01*
X149510286Y-100742476D01*
X149462667Y-100647238D01*
X149367429Y-100552000D01*
X149224571Y-100504381D01*
X149129333Y-100504381D01*
X148986476Y-100552000D01*
X148938857Y-100599619D01*
X148557905Y-100599619D02*
X148510286Y-100552000D01*
X148415048Y-100504381D01*
X148176952Y-100504381D01*
X148081714Y-100552000D01*
X148034095Y-100599619D01*
X147986476Y-100694857D01*
X147986476Y-100790095D01*
X148034095Y-100932952D01*
X148605524Y-101504381D01*
X147986476Y-101504381D01*
X147129333Y-100504381D02*
X147319810Y-100504381D01*
X147415048Y-100552000D01*
X147462667Y-100599619D01*
X147557905Y-100742476D01*
X147605524Y-100932952D01*
X147605524Y-101313905D01*
X147557905Y-101409143D01*
X147510286Y-101456762D01*
X147415048Y-101504381D01*
X147224571Y-101504381D01*
X147129333Y-101456762D01*
X147081714Y-101409143D01*
X147034095Y-101313905D01*
X147034095Y-101075810D01*
X147081714Y-100980571D01*
X147129333Y-100932952D01*
X147224571Y-100885333D01*
X147415048Y-100885333D01*
X147510286Y-100932952D01*
X147557905Y-100980571D01*
X147605524Y-101075810D01*
X162450536Y-89684381D02*
X162783870Y-89208190D01*
X163021965Y-89684381D02*
X163021965Y-88684381D01*
X162641012Y-88684381D01*
X162545774Y-88732000D01*
X162498155Y-88779619D01*
X162450536Y-88874857D01*
X162450536Y-89017714D01*
X162498155Y-89112952D01*
X162545774Y-89160571D01*
X162641012Y-89208190D01*
X163021965Y-89208190D01*
X162021965Y-89684381D02*
X162021965Y-88684381D01*
X161450536Y-89684381D01*
X161450536Y-88684381D01*
X160450536Y-89684381D02*
X161021965Y-89684381D01*
X160736251Y-89684381D02*
X160736251Y-88684381D01*
X160831489Y-88827238D01*
X160926727Y-88922476D01*
X161021965Y-88970095D01*
D11*
X157106572Y-106470143D02*
X157306572Y-106470143D01*
X157306572Y-106784429D02*
X157306572Y-106184429D01*
X157020858Y-106184429D01*
X156878000Y-106184429D02*
X156535143Y-106184429D01*
X156706572Y-106784429D02*
X156706572Y-106184429D01*
X156020857Y-106784429D02*
X156363714Y-106784429D01*
X156192286Y-106784429D02*
X156192286Y-106184429D01*
X156249429Y-106270143D01*
X156306571Y-106327286D01*
X156363714Y-106355857D01*
D12*
X159940238Y-115855381D02*
X160273572Y-115379190D01*
X160511667Y-115855381D02*
X160511667Y-114855381D01*
X160130714Y-114855381D01*
X160035476Y-114903000D01*
X159987857Y-114950619D01*
X159940238Y-115045857D01*
X159940238Y-115188714D01*
X159987857Y-115283952D01*
X160035476Y-115331571D01*
X160130714Y-115379190D01*
X160511667Y-115379190D01*
X159178333Y-115331571D02*
X159511667Y-115331571D01*
X159511667Y-115855381D02*
X159511667Y-114855381D01*
X159035476Y-114855381D01*
X158702143Y-114950619D02*
X158654524Y-114903000D01*
X158559286Y-114855381D01*
X158321190Y-114855381D01*
X158225952Y-114903000D01*
X158178333Y-114950619D01*
X158130714Y-115045857D01*
X158130714Y-115141095D01*
X158178333Y-115283952D01*
X158749762Y-115855381D01*
X158130714Y-115855381D01*
X164766238Y-113696381D02*
X165099572Y-113220190D01*
X165337667Y-113696381D02*
X165337667Y-112696381D01*
X164956714Y-112696381D01*
X164861476Y-112744000D01*
X164813857Y-112791619D01*
X164766238Y-112886857D01*
X164766238Y-113029714D01*
X164813857Y-113124952D01*
X164861476Y-113172571D01*
X164956714Y-113220190D01*
X165337667Y-113220190D01*
X164004333Y-113172571D02*
X164337667Y-113172571D01*
X164337667Y-113696381D02*
X164337667Y-112696381D01*
X163861476Y-112696381D01*
X163575762Y-112696381D02*
X162956714Y-112696381D01*
X163290048Y-113077333D01*
X163147190Y-113077333D01*
X163051952Y-113124952D01*
X163004333Y-113172571D01*
X162956714Y-113267810D01*
X162956714Y-113505905D01*
X163004333Y-113601143D01*
X163051952Y-113648762D01*
X163147190Y-113696381D01*
X163432905Y-113696381D01*
X163528143Y-113648762D01*
X163575762Y-113601143D01*
X164639238Y-110687061D02*
X164972572Y-110210870D01*
X165210667Y-110687061D02*
X165210667Y-109687061D01*
X164829714Y-109687061D01*
X164734476Y-109734680D01*
X164686857Y-109782299D01*
X164639238Y-109877537D01*
X164639238Y-110020394D01*
X164686857Y-110115632D01*
X164734476Y-110163251D01*
X164829714Y-110210870D01*
X165210667Y-110210870D01*
X163877333Y-110163251D02*
X164210667Y-110163251D01*
X164210667Y-110687061D02*
X164210667Y-109687061D01*
X163734476Y-109687061D01*
X162877333Y-109687061D02*
X163353524Y-109687061D01*
X163401143Y-110163251D01*
X163353524Y-110115632D01*
X163258286Y-110068013D01*
X163020190Y-110068013D01*
X162924952Y-110115632D01*
X162877333Y-110163251D01*
X162829714Y-110258490D01*
X162829714Y-110496585D01*
X162877333Y-110591823D01*
X162924952Y-110639442D01*
X163020190Y-110687061D01*
X163258286Y-110687061D01*
X163353524Y-110639442D01*
X163401143Y-110591823D01*
X150542238Y-105314381D02*
X150875572Y-104838190D01*
X151113667Y-105314381D02*
X151113667Y-104314381D01*
X150732714Y-104314381D01*
X150637476Y-104362000D01*
X150589857Y-104409619D01*
X150542238Y-104504857D01*
X150542238Y-104647714D01*
X150589857Y-104742952D01*
X150637476Y-104790571D01*
X150732714Y-104838190D01*
X151113667Y-104838190D01*
X149780333Y-104790571D02*
X150113667Y-104790571D01*
X150113667Y-105314381D02*
X150113667Y-104314381D01*
X149637476Y-104314381D01*
X149351762Y-104314381D02*
X148685095Y-104314381D01*
X149113667Y-105314381D01*
X136191238Y-116649143D02*
X136238857Y-116696762D01*
X136381714Y-116744381D01*
X136476952Y-116744381D01*
X136619810Y-116696762D01*
X136715048Y-116601524D01*
X136762667Y-116506286D01*
X136810286Y-116315810D01*
X136810286Y-116172952D01*
X136762667Y-115982476D01*
X136715048Y-115887238D01*
X136619810Y-115792000D01*
X136476952Y-115744381D01*
X136381714Y-115744381D01*
X136238857Y-115792000D01*
X136191238Y-115839619D01*
X135429333Y-116220571D02*
X135762667Y-116220571D01*
X135762667Y-116744381D02*
X135762667Y-115744381D01*
X135286476Y-115744381D01*
X134381714Y-116744381D02*
X134953143Y-116744381D01*
X134667429Y-116744381D02*
X134667429Y-115744381D01*
X134762667Y-115887238D01*
X134857905Y-115982476D01*
X134953143Y-116030095D01*
X139112238Y-116649143D02*
X139159857Y-116696762D01*
X139302714Y-116744381D01*
X139397952Y-116744381D01*
X139540810Y-116696762D01*
X139636048Y-116601524D01*
X139683667Y-116506286D01*
X139731286Y-116315810D01*
X139731286Y-116172952D01*
X139683667Y-115982476D01*
X139636048Y-115887238D01*
X139540810Y-115792000D01*
X139397952Y-115744381D01*
X139302714Y-115744381D01*
X139159857Y-115792000D01*
X139112238Y-115839619D01*
X138350333Y-116220571D02*
X138683667Y-116220571D01*
X138683667Y-116744381D02*
X138683667Y-115744381D01*
X138207476Y-115744381D01*
X137874143Y-115839619D02*
X137826524Y-115792000D01*
X137731286Y-115744381D01*
X137493190Y-115744381D01*
X137397952Y-115792000D01*
X137350333Y-115839619D01*
X137302714Y-115934857D01*
X137302714Y-116030095D01*
X137350333Y-116172952D01*
X137921762Y-116744381D01*
X137302714Y-116744381D01*
X159940238Y-104457143D02*
X159987857Y-104504762D01*
X160130714Y-104552381D01*
X160225952Y-104552381D01*
X160368810Y-104504762D01*
X160464048Y-104409524D01*
X160511667Y-104314286D01*
X160559286Y-104123810D01*
X160559286Y-103980952D01*
X160511667Y-103790476D01*
X160464048Y-103695238D01*
X160368810Y-103600000D01*
X160225952Y-103552381D01*
X160130714Y-103552381D01*
X159987857Y-103600000D01*
X159940238Y-103647619D01*
X159178333Y-104028571D02*
X159511667Y-104028571D01*
X159511667Y-104552381D02*
X159511667Y-103552381D01*
X159035476Y-103552381D01*
X158225952Y-103885714D02*
X158225952Y-104552381D01*
X158464048Y-103504762D02*
X158702143Y-104219048D01*
X158083095Y-104219048D01*
X145970238Y-108902143D02*
X146017857Y-108949762D01*
X146160714Y-108997381D01*
X146255952Y-108997381D01*
X146398810Y-108949762D01*
X146494048Y-108854524D01*
X146541667Y-108759286D01*
X146589286Y-108568810D01*
X146589286Y-108425952D01*
X146541667Y-108235476D01*
X146494048Y-108140238D01*
X146398810Y-108045000D01*
X146255952Y-107997381D01*
X146160714Y-107997381D01*
X146017857Y-108045000D01*
X145970238Y-108092619D01*
X145208333Y-108473571D02*
X145541667Y-108473571D01*
X145541667Y-108997381D02*
X145541667Y-107997381D01*
X145065476Y-107997381D01*
X144208333Y-107997381D02*
X144684524Y-107997381D01*
X144732143Y-108473571D01*
X144684524Y-108425952D01*
X144589286Y-108378333D01*
X144351190Y-108378333D01*
X144255952Y-108425952D01*
X144208333Y-108473571D01*
X144160714Y-108568810D01*
X144160714Y-108806905D01*
X144208333Y-108902143D01*
X144255952Y-108949762D01*
X144351190Y-108997381D01*
X144589286Y-108997381D01*
X144684524Y-108949762D01*
X144732143Y-108902143D01*
X145970238Y-107632143D02*
X146017857Y-107679762D01*
X146160714Y-107727381D01*
X146255952Y-107727381D01*
X146398810Y-107679762D01*
X146494048Y-107584524D01*
X146541667Y-107489286D01*
X146589286Y-107298810D01*
X146589286Y-107155952D01*
X146541667Y-106965476D01*
X146494048Y-106870238D01*
X146398810Y-106775000D01*
X146255952Y-106727381D01*
X146160714Y-106727381D01*
X146017857Y-106775000D01*
X145970238Y-106822619D01*
X145208333Y-107203571D02*
X145541667Y-107203571D01*
X145541667Y-107727381D02*
X145541667Y-106727381D01*
X145065476Y-106727381D01*
X144255952Y-106727381D02*
X144446429Y-106727381D01*
X144541667Y-106775000D01*
X144589286Y-106822619D01*
X144684524Y-106965476D01*
X144732143Y-107155952D01*
X144732143Y-107536905D01*
X144684524Y-107632143D01*
X144636905Y-107679762D01*
X144541667Y-107727381D01*
X144351190Y-107727381D01*
X144255952Y-107679762D01*
X144208333Y-107632143D01*
X144160714Y-107536905D01*
X144160714Y-107298810D01*
X144208333Y-107203571D01*
X144255952Y-107155952D01*
X144351190Y-107108333D01*
X144541667Y-107108333D01*
X144636905Y-107155952D01*
X144684524Y-107203571D01*
X144732143Y-107298810D01*
X118609666Y-101504381D02*
X118943000Y-101028190D01*
X119181095Y-101504381D02*
X119181095Y-100504381D01*
X118800142Y-100504381D01*
X118704904Y-100552000D01*
X118657285Y-100599619D01*
X118609666Y-100694857D01*
X118609666Y-100837714D01*
X118657285Y-100932952D01*
X118704904Y-100980571D01*
X118800142Y-101028190D01*
X119181095Y-101028190D01*
X117609666Y-101504381D02*
X117943000Y-101028190D01*
X118181095Y-101504381D02*
X118181095Y-100504381D01*
X117800142Y-100504381D01*
X117704904Y-100552000D01*
X117657285Y-100599619D01*
X117609666Y-100694857D01*
X117609666Y-100837714D01*
X117657285Y-100932952D01*
X117704904Y-100980571D01*
X117800142Y-101028190D01*
X118181095Y-101028190D01*
X116657285Y-101504381D02*
X117228714Y-101504381D01*
X116943000Y-101504381D02*
X116943000Y-100504381D01*
X117038238Y-100647238D01*
X117133476Y-100742476D01*
X117228714Y-100790095D01*
D11*
X142180858Y-109105429D02*
X141780858Y-109705429D01*
X141780858Y-109105429D02*
X142180858Y-109705429D01*
X141352286Y-109391143D02*
X141552286Y-109391143D01*
X141552286Y-109705429D02*
X141552286Y-109105429D01*
X141266572Y-109105429D01*
X140723714Y-109705429D02*
X141066571Y-109705429D01*
X140895143Y-109705429D02*
X140895143Y-109105429D01*
X140952286Y-109191143D01*
X141009428Y-109248286D01*
X141066571Y-109276857D01*
D14*
X149724088Y-89548436D02*
X149182221Y-90412036D01*
X149182221Y-89548436D02*
X149724088Y-90412036D01*
X148911288Y-90370912D02*
X148795174Y-90412036D01*
X148601650Y-90412036D01*
X148524240Y-90370912D01*
X148485536Y-90329789D01*
X148446831Y-90247541D01*
X148446831Y-90165293D01*
X148485536Y-90083046D01*
X148524240Y-90041922D01*
X148601650Y-90000798D01*
X148756469Y-89959674D01*
X148833878Y-89918550D01*
X148872583Y-89877427D01*
X148911288Y-89795179D01*
X148911288Y-89712931D01*
X148872583Y-89630684D01*
X148833878Y-89589560D01*
X148756469Y-89548436D01*
X148562945Y-89548436D01*
X148446831Y-89589560D01*
X147672736Y-90412036D02*
X148137193Y-90412036D01*
X147904964Y-90412036D02*
X147904964Y-89548436D01*
X147982374Y-89671808D01*
X148059783Y-89754055D01*
X148137193Y-89795179D01*
X155200812Y-86464513D02*
X154813764Y-86464513D01*
X155278221Y-86711256D02*
X155007288Y-85847656D01*
X154736355Y-86711256D01*
X154504126Y-86670132D02*
X154388012Y-86711256D01*
X154194488Y-86711256D01*
X154117078Y-86670132D01*
X154078374Y-86629009D01*
X154039669Y-86546761D01*
X154039669Y-86464513D01*
X154078374Y-86382266D01*
X154117078Y-86341142D01*
X154194488Y-86300018D01*
X154349307Y-86258894D01*
X154426716Y-86217770D01*
X154465421Y-86176647D01*
X154504126Y-86094399D01*
X154504126Y-86012151D01*
X154465421Y-85929904D01*
X154426716Y-85888780D01*
X154349307Y-85847656D01*
X154155783Y-85847656D01*
X154039669Y-85888780D01*
X153807440Y-85847656D02*
X153536507Y-86711256D01*
X153265574Y-85847656D01*
X152994640Y-86382266D02*
X152375364Y-86382266D01*
X152065726Y-85847656D02*
X151562564Y-85847656D01*
X151833497Y-86176647D01*
X151717383Y-86176647D01*
X151639973Y-86217770D01*
X151601269Y-86258894D01*
X151562564Y-86341142D01*
X151562564Y-86546761D01*
X151601269Y-86629009D01*
X151639973Y-86670132D01*
X151717383Y-86711256D01*
X151949611Y-86711256D01*
X152027021Y-86670132D01*
X152065726Y-86629009D01*
X151252926Y-85929904D02*
X151214221Y-85888780D01*
X151136812Y-85847656D01*
X150943288Y-85847656D01*
X150865878Y-85888780D01*
X150827174Y-85929904D01*
X150788469Y-86012151D01*
X150788469Y-86094399D01*
X150827174Y-86217770D01*
X151291631Y-86711256D01*
X150788469Y-86711256D01*
X150440126Y-86629009D02*
X150401421Y-86670132D01*
X150440126Y-86711256D01*
X150478831Y-86670132D01*
X150440126Y-86629009D01*
X150440126Y-86711256D01*
X149898259Y-85847656D02*
X149820850Y-85847656D01*
X149743440Y-85888780D01*
X149704735Y-85929904D01*
X149666031Y-86012151D01*
X149627326Y-86176647D01*
X149627326Y-86382266D01*
X149666031Y-86546761D01*
X149704735Y-86629009D01*
X149743440Y-86670132D01*
X149820850Y-86711256D01*
X149898259Y-86711256D01*
X149975669Y-86670132D01*
X150014373Y-86629009D01*
X150053078Y-86546761D01*
X150091783Y-86382266D01*
X150091783Y-86176647D01*
X150053078Y-86012151D01*
X150014373Y-85929904D01*
X149975669Y-85888780D01*
X149898259Y-85847656D01*
X149124164Y-85847656D02*
X149046755Y-85847656D01*
X148969345Y-85888780D01*
X148930640Y-85929904D01*
X148891936Y-86012151D01*
X148853231Y-86176647D01*
X148853231Y-86382266D01*
X148891936Y-86546761D01*
X148930640Y-86629009D01*
X148969345Y-86670132D01*
X149046755Y-86711256D01*
X149124164Y-86711256D01*
X149201574Y-86670132D01*
X149240278Y-86629009D01*
X149278983Y-86546761D01*
X149317688Y-86382266D01*
X149317688Y-86176647D01*
X149278983Y-86012151D01*
X149240278Y-85929904D01*
X149201574Y-85888780D01*
X149124164Y-85847656D01*
X148350069Y-85847656D02*
X148272660Y-85847656D01*
X148195250Y-85888780D01*
X148156545Y-85929904D01*
X148117841Y-86012151D01*
X148079136Y-86176647D01*
X148079136Y-86382266D01*
X148117841Y-86546761D01*
X148156545Y-86629009D01*
X148195250Y-86670132D01*
X148272660Y-86711256D01*
X148350069Y-86711256D01*
X148427479Y-86670132D01*
X148466183Y-86629009D01*
X148504888Y-86546761D01*
X148543593Y-86382266D01*
X148543593Y-86176647D01*
X148504888Y-86012151D01*
X148466183Y-85929904D01*
X148427479Y-85888780D01*
X148350069Y-85847656D01*
X147730793Y-86711256D02*
X147730793Y-85847656D01*
X147459860Y-86464513D01*
X147188927Y-85847656D01*
X147188927Y-86711256D01*
X146801879Y-86711256D02*
X146801879Y-85847656D01*
X146801879Y-86258894D02*
X146337422Y-86258894D01*
X146337422Y-86711256D02*
X146337422Y-85847656D01*
X146027784Y-85847656D02*
X145485917Y-85847656D01*
X146027784Y-86711256D01*
X145485917Y-86711256D01*
X145176279Y-86382266D02*
X144557003Y-86382266D01*
X144169955Y-86258894D02*
X143899022Y-86258894D01*
X143782908Y-86711256D02*
X144169955Y-86711256D01*
X144169955Y-85847656D01*
X143782908Y-85847656D01*
X143434565Y-86382266D02*
X142815289Y-86382266D01*
X142544355Y-85847656D02*
X142079898Y-85847656D01*
X142312127Y-86711256D02*
X142312127Y-85847656D01*
D12*
X129158666Y-137155143D02*
X129206285Y-137202762D01*
X129349142Y-137250381D01*
X129444380Y-137250381D01*
X129587238Y-137202762D01*
X129682476Y-137107524D01*
X129730095Y-137012286D01*
X129777714Y-136821810D01*
X129777714Y-136678952D01*
X129730095Y-136488476D01*
X129682476Y-136393238D01*
X129587238Y-136298000D01*
X129444380Y-136250381D01*
X129349142Y-136250381D01*
X129206285Y-136298000D01*
X129158666Y-136345619D01*
X128825333Y-136250381D02*
X128158666Y-136250381D01*
X128587238Y-137250381D01*
X131220666Y-139790381D02*
X131554000Y-139314190D01*
X131792095Y-139790381D02*
X131792095Y-138790381D01*
X131411142Y-138790381D01*
X131315904Y-138838000D01*
X131268285Y-138885619D01*
X131220666Y-138980857D01*
X131220666Y-139123714D01*
X131268285Y-139218952D01*
X131315904Y-139266571D01*
X131411142Y-139314190D01*
X131792095Y-139314190D01*
X130268285Y-139790381D02*
X130839714Y-139790381D01*
X130554000Y-139790381D02*
X130554000Y-138790381D01*
X130649238Y-138933238D01*
X130744476Y-139028476D01*
X130839714Y-139076095D01*
X146224238Y-121062381D02*
X146700429Y-121062381D01*
X146700429Y-120062381D01*
X145557571Y-120538571D02*
X145890905Y-120538571D01*
X145890905Y-121062381D02*
X145890905Y-120062381D01*
X145414714Y-120062381D01*
X144509952Y-121062381D02*
X145081381Y-121062381D01*
X144795667Y-121062381D02*
X144795667Y-120062381D01*
X144890905Y-120205238D01*
X144986143Y-120300476D01*
X145081381Y-120348095D01*
X114140857Y-133921143D02*
X114188476Y-133968762D01*
X114331333Y-134016381D01*
X114426571Y-134016381D01*
X114569429Y-133968762D01*
X114664667Y-133873524D01*
X114712286Y-133778286D01*
X114759905Y-133587810D01*
X114759905Y-133444952D01*
X114712286Y-133254476D01*
X114664667Y-133159238D01*
X114569429Y-133064000D01*
X114426571Y-133016381D01*
X114331333Y-133016381D01*
X114188476Y-133064000D01*
X114140857Y-133111619D01*
X113188476Y-134016381D02*
X113759905Y-134016381D01*
X113474191Y-134016381D02*
X113474191Y-133016381D01*
X113569429Y-133159238D01*
X113664667Y-133254476D01*
X113759905Y-133302095D01*
X112569429Y-133016381D02*
X112474190Y-133016381D01*
X112378952Y-133064000D01*
X112331333Y-133111619D01*
X112283714Y-133206857D01*
X112236095Y-133397333D01*
X112236095Y-133635429D01*
X112283714Y-133825905D01*
X112331333Y-133921143D01*
X112378952Y-133968762D01*
X112474190Y-134016381D01*
X112569429Y-134016381D01*
X112664667Y-133968762D01*
X112712286Y-133921143D01*
X112759905Y-133825905D01*
X112807524Y-133635429D01*
X112807524Y-133397333D01*
X112759905Y-133206857D01*
X112712286Y-133111619D01*
X112664667Y-133064000D01*
X112569429Y-133016381D01*
X135214905Y-103552381D02*
X135214905Y-104361905D01*
X135167286Y-104457143D01*
X135119667Y-104504762D01*
X135024429Y-104552381D01*
X134833952Y-104552381D01*
X134738714Y-104504762D01*
X134691095Y-104457143D01*
X134643476Y-104361905D01*
X134643476Y-103552381D01*
X133738714Y-103552381D02*
X133929191Y-103552381D01*
X134024429Y-103600000D01*
X134072048Y-103647619D01*
X134167286Y-103790476D01*
X134214905Y-103980952D01*
X134214905Y-104361905D01*
X134167286Y-104457143D01*
X134119667Y-104504762D01*
X134024429Y-104552381D01*
X133833952Y-104552381D01*
X133738714Y-104504762D01*
X133691095Y-104457143D01*
X133643476Y-104361905D01*
X133643476Y-104123810D01*
X133691095Y-104028571D01*
X133738714Y-103980952D01*
X133833952Y-103933333D01*
X134024429Y-103933333D01*
X134119667Y-103980952D01*
X134167286Y-104028571D01*
X134214905Y-104123810D01*
X122419666Y-106584381D02*
X122753000Y-106108190D01*
X122991095Y-106584381D02*
X122991095Y-105584381D01*
X122610142Y-105584381D01*
X122514904Y-105632000D01*
X122467285Y-105679619D01*
X122419666Y-105774857D01*
X122419666Y-105917714D01*
X122467285Y-106012952D01*
X122514904Y-106060571D01*
X122610142Y-106108190D01*
X122991095Y-106108190D01*
X121419666Y-106584381D02*
X121753000Y-106108190D01*
X121991095Y-106584381D02*
X121991095Y-105584381D01*
X121610142Y-105584381D01*
X121514904Y-105632000D01*
X121467285Y-105679619D01*
X121419666Y-105774857D01*
X121419666Y-105917714D01*
X121467285Y-106012952D01*
X121514904Y-106060571D01*
X121610142Y-106108190D01*
X121991095Y-106108190D01*
X121086333Y-105584381D02*
X120467285Y-105584381D01*
X120800619Y-105965333D01*
X120657761Y-105965333D01*
X120562523Y-106012952D01*
X120514904Y-106060571D01*
X120467285Y-106155810D01*
X120467285Y-106393905D01*
X120514904Y-106489143D01*
X120562523Y-106536762D01*
X120657761Y-106584381D01*
X120943476Y-106584381D01*
X121038714Y-106536762D01*
X121086333Y-106489143D01*
X128237857Y-96329143D02*
X128285476Y-96376762D01*
X128428333Y-96424381D01*
X128523571Y-96424381D01*
X128666429Y-96376762D01*
X128761667Y-96281524D01*
X128809286Y-96186286D01*
X128856905Y-95995810D01*
X128856905Y-95852952D01*
X128809286Y-95662476D01*
X128761667Y-95567238D01*
X128666429Y-95472000D01*
X128523571Y-95424381D01*
X128428333Y-95424381D01*
X128285476Y-95472000D01*
X128237857Y-95519619D01*
X127285476Y-96424381D02*
X127856905Y-96424381D01*
X127571191Y-96424381D02*
X127571191Y-95424381D01*
X127666429Y-95567238D01*
X127761667Y-95662476D01*
X127856905Y-95710095D01*
X126333095Y-96424381D02*
X126904524Y-96424381D01*
X126618810Y-96424381D02*
X126618810Y-95424381D01*
X126714048Y-95567238D01*
X126809286Y-95662476D01*
X126904524Y-95710095D01*
X125191917Y-100012143D02*
X125239536Y-100059762D01*
X125382393Y-100107381D01*
X125477631Y-100107381D01*
X125620489Y-100059762D01*
X125715727Y-99964524D01*
X125763346Y-99869286D01*
X125810965Y-99678810D01*
X125810965Y-99535952D01*
X125763346Y-99345476D01*
X125715727Y-99250238D01*
X125620489Y-99155000D01*
X125477631Y-99107381D01*
X125382393Y-99107381D01*
X125239536Y-99155000D01*
X125191917Y-99202619D01*
X124239536Y-100107381D02*
X124810965Y-100107381D01*
X124525251Y-100107381D02*
X124525251Y-99107381D01*
X124620489Y-99250238D01*
X124715727Y-99345476D01*
X124810965Y-99393095D01*
X123858584Y-99202619D02*
X123810965Y-99155000D01*
X123715727Y-99107381D01*
X123477631Y-99107381D01*
X123382393Y-99155000D01*
X123334774Y-99202619D01*
X123287155Y-99297857D01*
X123287155Y-99393095D01*
X123334774Y-99535952D01*
X123906203Y-100107381D01*
X123287155Y-100107381D01*
X129001917Y-102449723D02*
X129049536Y-102497342D01*
X129192393Y-102544961D01*
X129287631Y-102544961D01*
X129430489Y-102497342D01*
X129525727Y-102402104D01*
X129573346Y-102306866D01*
X129620965Y-102116390D01*
X129620965Y-101973532D01*
X129573346Y-101783056D01*
X129525727Y-101687818D01*
X129430489Y-101592580D01*
X129287631Y-101544961D01*
X129192393Y-101544961D01*
X129049536Y-101592580D01*
X129001917Y-101640199D01*
X128049536Y-102544961D02*
X128620965Y-102544961D01*
X128335251Y-102544961D02*
X128335251Y-101544961D01*
X128430489Y-101687818D01*
X128525727Y-101783056D01*
X128620965Y-101830675D01*
X127716203Y-101544961D02*
X127097155Y-101544961D01*
X127430489Y-101925913D01*
X127287631Y-101925913D01*
X127192393Y-101973532D01*
X127144774Y-102021151D01*
X127097155Y-102116390D01*
X127097155Y-102354485D01*
X127144774Y-102449723D01*
X127192393Y-102497342D01*
X127287631Y-102544961D01*
X127573346Y-102544961D01*
X127668584Y-102497342D01*
X127716203Y-102449723D01*
X146017857Y-106489143D02*
X146065476Y-106536762D01*
X146208333Y-106584381D01*
X146303571Y-106584381D01*
X146446429Y-106536762D01*
X146541667Y-106441524D01*
X146589286Y-106346286D01*
X146636905Y-106155810D01*
X146636905Y-106012952D01*
X146589286Y-105822476D01*
X146541667Y-105727238D01*
X146446429Y-105632000D01*
X146303571Y-105584381D01*
X146208333Y-105584381D01*
X146065476Y-105632000D01*
X146017857Y-105679619D01*
X145065476Y-106584381D02*
X145636905Y-106584381D01*
X145351191Y-106584381D02*
X145351191Y-105584381D01*
X145446429Y-105727238D01*
X145541667Y-105822476D01*
X145636905Y-105870095D01*
X144208333Y-105917714D02*
X144208333Y-106584381D01*
X144446429Y-105536762D02*
X144684524Y-106251048D01*
X144065476Y-106251048D01*
X142461857Y-93789143D02*
X142509476Y-93836762D01*
X142652333Y-93884381D01*
X142747571Y-93884381D01*
X142890429Y-93836762D01*
X142985667Y-93741524D01*
X143033286Y-93646286D01*
X143080905Y-93455810D01*
X143080905Y-93312952D01*
X143033286Y-93122476D01*
X142985667Y-93027238D01*
X142890429Y-92932000D01*
X142747571Y-92884381D01*
X142652333Y-92884381D01*
X142509476Y-92932000D01*
X142461857Y-92979619D01*
X141509476Y-93884381D02*
X142080905Y-93884381D01*
X141795191Y-93884381D02*
X141795191Y-92884381D01*
X141890429Y-93027238D01*
X141985667Y-93122476D01*
X142080905Y-93170095D01*
X140604714Y-92884381D02*
X141080905Y-92884381D01*
X141128524Y-93360571D01*
X141080905Y-93312952D01*
X140985667Y-93265333D01*
X140747571Y-93265333D01*
X140652333Y-93312952D01*
X140604714Y-93360571D01*
X140557095Y-93455810D01*
X140557095Y-93693905D01*
X140604714Y-93789143D01*
X140652333Y-93836762D01*
X140747571Y-93884381D01*
X140985667Y-93884381D01*
X141080905Y-93836762D01*
X141128524Y-93789143D01*
X132174857Y-106489143D02*
X132222476Y-106536762D01*
X132365333Y-106584381D01*
X132460571Y-106584381D01*
X132603429Y-106536762D01*
X132698667Y-106441524D01*
X132746286Y-106346286D01*
X132793905Y-106155810D01*
X132793905Y-106012952D01*
X132746286Y-105822476D01*
X132698667Y-105727238D01*
X132603429Y-105632000D01*
X132460571Y-105584381D01*
X132365333Y-105584381D01*
X132222476Y-105632000D01*
X132174857Y-105679619D01*
X131222476Y-106584381D02*
X131793905Y-106584381D01*
X131508191Y-106584381D02*
X131508191Y-105584381D01*
X131603429Y-105727238D01*
X131698667Y-105822476D01*
X131793905Y-105870095D01*
X130365333Y-105584381D02*
X130555810Y-105584381D01*
X130651048Y-105632000D01*
X130698667Y-105679619D01*
X130793905Y-105822476D01*
X130841524Y-106012952D01*
X130841524Y-106393905D01*
X130793905Y-106489143D01*
X130746286Y-106536762D01*
X130651048Y-106584381D01*
X130460571Y-106584381D01*
X130365333Y-106536762D01*
X130317714Y-106489143D01*
X130270095Y-106393905D01*
X130270095Y-106155810D01*
X130317714Y-106060571D01*
X130365333Y-106012952D01*
X130460571Y-105965333D01*
X130651048Y-105965333D01*
X130746286Y-106012952D01*
X130793905Y-106060571D01*
X130841524Y-106155810D01*
X145128857Y-103949143D02*
X145176476Y-103996762D01*
X145319333Y-104044381D01*
X145414571Y-104044381D01*
X145557429Y-103996762D01*
X145652667Y-103901524D01*
X145700286Y-103806286D01*
X145747905Y-103615810D01*
X145747905Y-103472952D01*
X145700286Y-103282476D01*
X145652667Y-103187238D01*
X145557429Y-103092000D01*
X145414571Y-103044381D01*
X145319333Y-103044381D01*
X145176476Y-103092000D01*
X145128857Y-103139619D01*
X144176476Y-104044381D02*
X144747905Y-104044381D01*
X144462191Y-104044381D02*
X144462191Y-103044381D01*
X144557429Y-103187238D01*
X144652667Y-103282476D01*
X144747905Y-103330095D01*
X143843143Y-103044381D02*
X143176476Y-103044381D01*
X143605048Y-104044381D01*
X136492857Y-96329143D02*
X136540476Y-96376762D01*
X136683333Y-96424381D01*
X136778571Y-96424381D01*
X136921429Y-96376762D01*
X137016667Y-96281524D01*
X137064286Y-96186286D01*
X137111905Y-95995810D01*
X137111905Y-95852952D01*
X137064286Y-95662476D01*
X137016667Y-95567238D01*
X136921429Y-95472000D01*
X136778571Y-95424381D01*
X136683333Y-95424381D01*
X136540476Y-95472000D01*
X136492857Y-95519619D01*
X135540476Y-96424381D02*
X136111905Y-96424381D01*
X135826191Y-96424381D02*
X135826191Y-95424381D01*
X135921429Y-95567238D01*
X136016667Y-95662476D01*
X136111905Y-95710095D01*
X134969048Y-95852952D02*
X135064286Y-95805333D01*
X135111905Y-95757714D01*
X135159524Y-95662476D01*
X135159524Y-95614857D01*
X135111905Y-95519619D01*
X135064286Y-95472000D01*
X134969048Y-95424381D01*
X134778571Y-95424381D01*
X134683333Y-95472000D01*
X134635714Y-95519619D01*
X134588095Y-95614857D01*
X134588095Y-95662476D01*
X134635714Y-95757714D01*
X134683333Y-95805333D01*
X134778571Y-95852952D01*
X134969048Y-95852952D01*
X135064286Y-95900571D01*
X135111905Y-95948190D01*
X135159524Y-96043429D01*
X135159524Y-96233905D01*
X135111905Y-96329143D01*
X135064286Y-96376762D01*
X134969048Y-96424381D01*
X134778571Y-96424381D01*
X134683333Y-96376762D01*
X134635714Y-96329143D01*
X134588095Y-96233905D01*
X134588095Y-96043429D01*
X134635714Y-95948190D01*
X134683333Y-95900571D01*
X134778571Y-95852952D01*
X121760857Y-109029143D02*
X121808476Y-109076762D01*
X121951333Y-109124381D01*
X122046571Y-109124381D01*
X122189429Y-109076762D01*
X122284667Y-108981524D01*
X122332286Y-108886286D01*
X122379905Y-108695810D01*
X122379905Y-108552952D01*
X122332286Y-108362476D01*
X122284667Y-108267238D01*
X122189429Y-108172000D01*
X122046571Y-108124381D01*
X121951333Y-108124381D01*
X121808476Y-108172000D01*
X121760857Y-108219619D01*
X121379905Y-108219619D02*
X121332286Y-108172000D01*
X121237048Y-108124381D01*
X120998952Y-108124381D01*
X120903714Y-108172000D01*
X120856095Y-108219619D01*
X120808476Y-108314857D01*
X120808476Y-108410095D01*
X120856095Y-108552952D01*
X121427524Y-109124381D01*
X120808476Y-109124381D01*
X120189429Y-108124381D02*
X120094190Y-108124381D01*
X119998952Y-108172000D01*
X119951333Y-108219619D01*
X119903714Y-108314857D01*
X119856095Y-108505333D01*
X119856095Y-108743429D01*
X119903714Y-108933905D01*
X119951333Y-109029143D01*
X119998952Y-109076762D01*
X120094190Y-109124381D01*
X120189429Y-109124381D01*
X120284667Y-109076762D01*
X120332286Y-109029143D01*
X120379905Y-108933905D01*
X120427524Y-108743429D01*
X120427524Y-108505333D01*
X120379905Y-108314857D01*
X120332286Y-108219619D01*
X120284667Y-108172000D01*
X120189429Y-108124381D01*
X145001857Y-98869143D02*
X145049476Y-98916762D01*
X145192333Y-98964381D01*
X145287571Y-98964381D01*
X145430429Y-98916762D01*
X145525667Y-98821524D01*
X145573286Y-98726286D01*
X145620905Y-98535810D01*
X145620905Y-98392952D01*
X145573286Y-98202476D01*
X145525667Y-98107238D01*
X145430429Y-98012000D01*
X145287571Y-97964381D01*
X145192333Y-97964381D01*
X145049476Y-98012000D01*
X145001857Y-98059619D01*
X144620905Y-98059619D02*
X144573286Y-98012000D01*
X144478048Y-97964381D01*
X144239952Y-97964381D01*
X144144714Y-98012000D01*
X144097095Y-98059619D01*
X144049476Y-98154857D01*
X144049476Y-98250095D01*
X144097095Y-98392952D01*
X144668524Y-98964381D01*
X144049476Y-98964381D01*
X143716143Y-97964381D02*
X143097095Y-97964381D01*
X143430429Y-98345333D01*
X143287571Y-98345333D01*
X143192333Y-98392952D01*
X143144714Y-98440571D01*
X143097095Y-98535810D01*
X143097095Y-98773905D01*
X143144714Y-98869143D01*
X143192333Y-98916762D01*
X143287571Y-98964381D01*
X143573286Y-98964381D01*
X143668524Y-98916762D01*
X143716143Y-98869143D01*
X144366857Y-96329143D02*
X144414476Y-96376762D01*
X144557333Y-96424381D01*
X144652571Y-96424381D01*
X144795429Y-96376762D01*
X144890667Y-96281524D01*
X144938286Y-96186286D01*
X144985905Y-95995810D01*
X144985905Y-95852952D01*
X144938286Y-95662476D01*
X144890667Y-95567238D01*
X144795429Y-95472000D01*
X144652571Y-95424381D01*
X144557333Y-95424381D01*
X144414476Y-95472000D01*
X144366857Y-95519619D01*
X143985905Y-95519619D02*
X143938286Y-95472000D01*
X143843048Y-95424381D01*
X143604952Y-95424381D01*
X143509714Y-95472000D01*
X143462095Y-95519619D01*
X143414476Y-95614857D01*
X143414476Y-95710095D01*
X143462095Y-95852952D01*
X144033524Y-96424381D01*
X143414476Y-96424381D01*
X142557333Y-95757714D02*
X142557333Y-96424381D01*
X142795429Y-95376762D02*
X143033524Y-96091048D01*
X142414476Y-96091048D01*
D14*
X136499514Y-90057429D02*
X136538219Y-90098552D01*
X136654333Y-90139676D01*
X136731743Y-90139676D01*
X136847857Y-90098552D01*
X136925266Y-90016305D01*
X136963971Y-89934057D01*
X137002676Y-89769562D01*
X137002676Y-89646190D01*
X136963971Y-89481695D01*
X136925266Y-89399448D01*
X136847857Y-89317200D01*
X136731743Y-89276076D01*
X136654333Y-89276076D01*
X136538219Y-89317200D01*
X136499514Y-89358324D01*
X136189876Y-89358324D02*
X136151171Y-89317200D01*
X136073762Y-89276076D01*
X135880238Y-89276076D01*
X135802828Y-89317200D01*
X135764124Y-89358324D01*
X135725419Y-89440571D01*
X135725419Y-89522819D01*
X135764124Y-89646190D01*
X136228581Y-90139676D01*
X135725419Y-90139676D01*
X134990029Y-89276076D02*
X135377076Y-89276076D01*
X135415781Y-89687314D01*
X135377076Y-89646190D01*
X135299667Y-89605067D01*
X135106143Y-89605067D01*
X135028733Y-89646190D01*
X134990029Y-89687314D01*
X134951324Y-89769562D01*
X134951324Y-89975181D01*
X134990029Y-90057429D01*
X135028733Y-90098552D01*
X135106143Y-90139676D01*
X135299667Y-90139676D01*
X135377076Y-90098552D01*
X135415781Y-90057429D01*
D12*
X136492857Y-110299143D02*
X136540476Y-110346762D01*
X136683333Y-110394381D01*
X136778571Y-110394381D01*
X136921429Y-110346762D01*
X137016667Y-110251524D01*
X137064286Y-110156286D01*
X137111905Y-109965810D01*
X137111905Y-109822952D01*
X137064286Y-109632476D01*
X137016667Y-109537238D01*
X136921429Y-109442000D01*
X136778571Y-109394381D01*
X136683333Y-109394381D01*
X136540476Y-109442000D01*
X136492857Y-109489619D01*
X136111905Y-109489619D02*
X136064286Y-109442000D01*
X135969048Y-109394381D01*
X135730952Y-109394381D01*
X135635714Y-109442000D01*
X135588095Y-109489619D01*
X135540476Y-109584857D01*
X135540476Y-109680095D01*
X135588095Y-109822952D01*
X136159524Y-110394381D01*
X135540476Y-110394381D01*
X135207143Y-109394381D02*
X134540476Y-109394381D01*
X134969048Y-110394381D01*
X133952857Y-112839143D02*
X134000476Y-112886762D01*
X134143333Y-112934381D01*
X134238571Y-112934381D01*
X134381429Y-112886762D01*
X134476667Y-112791524D01*
X134524286Y-112696286D01*
X134571905Y-112505810D01*
X134571905Y-112362952D01*
X134524286Y-112172476D01*
X134476667Y-112077238D01*
X134381429Y-111982000D01*
X134238571Y-111934381D01*
X134143333Y-111934381D01*
X134000476Y-111982000D01*
X133952857Y-112029619D01*
X133571905Y-112029619D02*
X133524286Y-111982000D01*
X133429048Y-111934381D01*
X133190952Y-111934381D01*
X133095714Y-111982000D01*
X133048095Y-112029619D01*
X133000476Y-112124857D01*
X133000476Y-112220095D01*
X133048095Y-112362952D01*
X133619524Y-112934381D01*
X133000476Y-112934381D01*
X132429048Y-112362952D02*
X132524286Y-112315333D01*
X132571905Y-112267714D01*
X132619524Y-112172476D01*
X132619524Y-112124857D01*
X132571905Y-112029619D01*
X132524286Y-111982000D01*
X132429048Y-111934381D01*
X132238571Y-111934381D01*
X132143333Y-111982000D01*
X132095714Y-112029619D01*
X132048095Y-112124857D01*
X132048095Y-112172476D01*
X132095714Y-112267714D01*
X132143333Y-112315333D01*
X132238571Y-112362952D01*
X132429048Y-112362952D01*
X132524286Y-112410571D01*
X132571905Y-112458190D01*
X132619524Y-112553429D01*
X132619524Y-112743905D01*
X132571905Y-112839143D01*
X132524286Y-112886762D01*
X132429048Y-112934381D01*
X132238571Y-112934381D01*
X132143333Y-112886762D01*
X132095714Y-112839143D01*
X132048095Y-112743905D01*
X132048095Y-112553429D01*
X132095714Y-112458190D01*
X132143333Y-112410571D01*
X132238571Y-112362952D01*
X128237857Y-110299143D02*
X128285476Y-110346762D01*
X128428333Y-110394381D01*
X128523571Y-110394381D01*
X128666429Y-110346762D01*
X128761667Y-110251524D01*
X128809286Y-110156286D01*
X128856905Y-109965810D01*
X128856905Y-109822952D01*
X128809286Y-109632476D01*
X128761667Y-109537238D01*
X128666429Y-109442000D01*
X128523571Y-109394381D01*
X128428333Y-109394381D01*
X128285476Y-109442000D01*
X128237857Y-109489619D01*
X127856905Y-109489619D02*
X127809286Y-109442000D01*
X127714048Y-109394381D01*
X127475952Y-109394381D01*
X127380714Y-109442000D01*
X127333095Y-109489619D01*
X127285476Y-109584857D01*
X127285476Y-109680095D01*
X127333095Y-109822952D01*
X127904524Y-110394381D01*
X127285476Y-110394381D01*
X126809286Y-110394381D02*
X126618810Y-110394381D01*
X126523571Y-110346762D01*
X126475952Y-110299143D01*
X126380714Y-110156286D01*
X126333095Y-109965810D01*
X126333095Y-109584857D01*
X126380714Y-109489619D01*
X126428333Y-109442000D01*
X126523571Y-109394381D01*
X126714048Y-109394381D01*
X126809286Y-109442000D01*
X126856905Y-109489619D01*
X126904524Y-109584857D01*
X126904524Y-109822952D01*
X126856905Y-109918190D01*
X126809286Y-109965810D01*
X126714048Y-110013429D01*
X126523571Y-110013429D01*
X126428333Y-109965810D01*
X126380714Y-109918190D01*
X126333095Y-109822952D01*
X134079857Y-107759143D02*
X134127476Y-107806762D01*
X134270333Y-107854381D01*
X134365571Y-107854381D01*
X134508429Y-107806762D01*
X134603667Y-107711524D01*
X134651286Y-107616286D01*
X134698905Y-107425810D01*
X134698905Y-107282952D01*
X134651286Y-107092476D01*
X134603667Y-106997238D01*
X134508429Y-106902000D01*
X134365571Y-106854381D01*
X134270333Y-106854381D01*
X134127476Y-106902000D01*
X134079857Y-106949619D01*
X133746524Y-106854381D02*
X133127476Y-106854381D01*
X133460810Y-107235333D01*
X133317952Y-107235333D01*
X133222714Y-107282952D01*
X133175095Y-107330571D01*
X133127476Y-107425810D01*
X133127476Y-107663905D01*
X133175095Y-107759143D01*
X133222714Y-107806762D01*
X133317952Y-107854381D01*
X133603667Y-107854381D01*
X133698905Y-107806762D01*
X133746524Y-107759143D01*
X132508429Y-106854381D02*
X132413190Y-106854381D01*
X132317952Y-106902000D01*
X132270333Y-106949619D01*
X132222714Y-107044857D01*
X132175095Y-107235333D01*
X132175095Y-107473429D01*
X132222714Y-107663905D01*
X132270333Y-107759143D01*
X132317952Y-107806762D01*
X132413190Y-107854381D01*
X132508429Y-107854381D01*
X132603667Y-107806762D01*
X132651286Y-107759143D01*
X132698905Y-107663905D01*
X132746524Y-107473429D01*
X132746524Y-107235333D01*
X132698905Y-107044857D01*
X132651286Y-106949619D01*
X132603667Y-106902000D01*
X132508429Y-106854381D01*
X122522857Y-103949143D02*
X122570476Y-103996762D01*
X122713333Y-104044381D01*
X122808571Y-104044381D01*
X122951429Y-103996762D01*
X123046667Y-103901524D01*
X123094286Y-103806286D01*
X123141905Y-103615810D01*
X123141905Y-103472952D01*
X123094286Y-103282476D01*
X123046667Y-103187238D01*
X122951429Y-103092000D01*
X122808571Y-103044381D01*
X122713333Y-103044381D01*
X122570476Y-103092000D01*
X122522857Y-103139619D01*
X122189524Y-103044381D02*
X121570476Y-103044381D01*
X121903810Y-103425333D01*
X121760952Y-103425333D01*
X121665714Y-103472952D01*
X121618095Y-103520571D01*
X121570476Y-103615810D01*
X121570476Y-103853905D01*
X121618095Y-103949143D01*
X121665714Y-103996762D01*
X121760952Y-104044381D01*
X122046667Y-104044381D01*
X122141905Y-103996762D01*
X122189524Y-103949143D01*
X120618095Y-104044381D02*
X121189524Y-104044381D01*
X120903810Y-104044381D02*
X120903810Y-103044381D01*
X120999048Y-103187238D01*
X121094286Y-103282476D01*
X121189524Y-103330095D01*
X128237857Y-93789143D02*
X128285476Y-93836762D01*
X128428333Y-93884381D01*
X128523571Y-93884381D01*
X128666429Y-93836762D01*
X128761667Y-93741524D01*
X128809286Y-93646286D01*
X128856905Y-93455810D01*
X128856905Y-93312952D01*
X128809286Y-93122476D01*
X128761667Y-93027238D01*
X128666429Y-92932000D01*
X128523571Y-92884381D01*
X128428333Y-92884381D01*
X128285476Y-92932000D01*
X128237857Y-92979619D01*
X127904524Y-92884381D02*
X127285476Y-92884381D01*
X127618810Y-93265333D01*
X127475952Y-93265333D01*
X127380714Y-93312952D01*
X127333095Y-93360571D01*
X127285476Y-93455810D01*
X127285476Y-93693905D01*
X127333095Y-93789143D01*
X127380714Y-93836762D01*
X127475952Y-93884381D01*
X127761667Y-93884381D01*
X127856905Y-93836762D01*
X127904524Y-93789143D01*
X126904524Y-92979619D02*
X126856905Y-92932000D01*
X126761667Y-92884381D01*
X126523571Y-92884381D01*
X126428333Y-92932000D01*
X126380714Y-92979619D01*
X126333095Y-93074857D01*
X126333095Y-93170095D01*
X126380714Y-93312952D01*
X126952143Y-93884381D01*
X126333095Y-93884381D01*
D14*
X133705514Y-90057429D02*
X133744219Y-90098552D01*
X133860333Y-90139676D01*
X133937743Y-90139676D01*
X134053857Y-90098552D01*
X134131266Y-90016305D01*
X134169971Y-89934057D01*
X134208676Y-89769562D01*
X134208676Y-89646190D01*
X134169971Y-89481695D01*
X134131266Y-89399448D01*
X134053857Y-89317200D01*
X133937743Y-89276076D01*
X133860333Y-89276076D01*
X133744219Y-89317200D01*
X133705514Y-89358324D01*
X133434581Y-89276076D02*
X132931419Y-89276076D01*
X133202352Y-89605067D01*
X133086238Y-89605067D01*
X133008828Y-89646190D01*
X132970124Y-89687314D01*
X132931419Y-89769562D01*
X132931419Y-89975181D01*
X132970124Y-90057429D01*
X133008828Y-90098552D01*
X133086238Y-90139676D01*
X133318466Y-90139676D01*
X133395876Y-90098552D01*
X133434581Y-90057429D01*
X132660486Y-89276076D02*
X132157324Y-89276076D01*
X132428257Y-89605067D01*
X132312143Y-89605067D01*
X132234733Y-89646190D01*
X132196029Y-89687314D01*
X132157324Y-89769562D01*
X132157324Y-89975181D01*
X132196029Y-90057429D01*
X132234733Y-90098552D01*
X132312143Y-90139676D01*
X132544371Y-90139676D01*
X132621781Y-90098552D01*
X132660486Y-90057429D01*
D12*
X125189857Y-97472143D02*
X125237476Y-97519762D01*
X125380333Y-97567381D01*
X125475571Y-97567381D01*
X125618429Y-97519762D01*
X125713667Y-97424524D01*
X125761286Y-97329286D01*
X125808905Y-97138810D01*
X125808905Y-96995952D01*
X125761286Y-96805476D01*
X125713667Y-96710238D01*
X125618429Y-96615000D01*
X125475571Y-96567381D01*
X125380333Y-96567381D01*
X125237476Y-96615000D01*
X125189857Y-96662619D01*
X124856524Y-96567381D02*
X124237476Y-96567381D01*
X124570810Y-96948333D01*
X124427952Y-96948333D01*
X124332714Y-96995952D01*
X124285095Y-97043571D01*
X124237476Y-97138810D01*
X124237476Y-97376905D01*
X124285095Y-97472143D01*
X124332714Y-97519762D01*
X124427952Y-97567381D01*
X124713667Y-97567381D01*
X124808905Y-97519762D01*
X124856524Y-97472143D01*
X123380333Y-96900714D02*
X123380333Y-97567381D01*
X123618429Y-96519762D02*
X123856524Y-97234048D01*
X123237476Y-97234048D01*
X157066857Y-119189143D02*
X157114476Y-119236762D01*
X157257333Y-119284381D01*
X157352571Y-119284381D01*
X157495429Y-119236762D01*
X157590667Y-119141524D01*
X157638286Y-119046286D01*
X157685905Y-118855810D01*
X157685905Y-118712952D01*
X157638286Y-118522476D01*
X157590667Y-118427238D01*
X157495429Y-118332000D01*
X157352571Y-118284381D01*
X157257333Y-118284381D01*
X157114476Y-118332000D01*
X157066857Y-118379619D01*
X156733524Y-118284381D02*
X156114476Y-118284381D01*
X156447810Y-118665333D01*
X156304952Y-118665333D01*
X156209714Y-118712952D01*
X156162095Y-118760571D01*
X156114476Y-118855810D01*
X156114476Y-119093905D01*
X156162095Y-119189143D01*
X156209714Y-119236762D01*
X156304952Y-119284381D01*
X156590667Y-119284381D01*
X156685905Y-119236762D01*
X156733524Y-119189143D01*
X155209714Y-118284381D02*
X155685905Y-118284381D01*
X155733524Y-118760571D01*
X155685905Y-118712952D01*
X155590667Y-118665333D01*
X155352571Y-118665333D01*
X155257333Y-118712952D01*
X155209714Y-118760571D01*
X155162095Y-118855810D01*
X155162095Y-119093905D01*
X155209714Y-119189143D01*
X155257333Y-119236762D01*
X155352571Y-119284381D01*
X155590667Y-119284381D01*
X155685905Y-119236762D01*
X155733524Y-119189143D01*
X151351857Y-121094143D02*
X151399476Y-121141762D01*
X151542333Y-121189381D01*
X151637571Y-121189381D01*
X151780429Y-121141762D01*
X151875667Y-121046524D01*
X151923286Y-120951286D01*
X151970905Y-120760810D01*
X151970905Y-120617952D01*
X151923286Y-120427476D01*
X151875667Y-120332238D01*
X151780429Y-120237000D01*
X151637571Y-120189381D01*
X151542333Y-120189381D01*
X151399476Y-120237000D01*
X151351857Y-120284619D01*
X151018524Y-120189381D02*
X150399476Y-120189381D01*
X150732810Y-120570333D01*
X150589952Y-120570333D01*
X150494714Y-120617952D01*
X150447095Y-120665571D01*
X150399476Y-120760810D01*
X150399476Y-120998905D01*
X150447095Y-121094143D01*
X150494714Y-121141762D01*
X150589952Y-121189381D01*
X150875667Y-121189381D01*
X150970905Y-121141762D01*
X151018524Y-121094143D01*
X149542333Y-120189381D02*
X149732810Y-120189381D01*
X149828048Y-120237000D01*
X149875667Y-120284619D01*
X149970905Y-120427476D01*
X150018524Y-120617952D01*
X150018524Y-120998905D01*
X149970905Y-121094143D01*
X149923286Y-121141762D01*
X149828048Y-121189381D01*
X149637571Y-121189381D01*
X149542333Y-121141762D01*
X149494714Y-121094143D01*
X149447095Y-120998905D01*
X149447095Y-120760810D01*
X149494714Y-120665571D01*
X149542333Y-120617952D01*
X149637571Y-120570333D01*
X149828048Y-120570333D01*
X149923286Y-120617952D01*
X149970905Y-120665571D01*
X150018524Y-120760810D01*
X141699857Y-100393143D02*
X141747476Y-100440762D01*
X141890333Y-100488381D01*
X141985571Y-100488381D01*
X142128429Y-100440762D01*
X142223667Y-100345524D01*
X142271286Y-100250286D01*
X142318905Y-100059810D01*
X142318905Y-99916952D01*
X142271286Y-99726476D01*
X142223667Y-99631238D01*
X142128429Y-99536000D01*
X141985571Y-99488381D01*
X141890333Y-99488381D01*
X141747476Y-99536000D01*
X141699857Y-99583619D01*
X141366524Y-99488381D02*
X140747476Y-99488381D01*
X141080810Y-99869333D01*
X140937952Y-99869333D01*
X140842714Y-99916952D01*
X140795095Y-99964571D01*
X140747476Y-100059810D01*
X140747476Y-100297905D01*
X140795095Y-100393143D01*
X140842714Y-100440762D01*
X140937952Y-100488381D01*
X141223667Y-100488381D01*
X141318905Y-100440762D01*
X141366524Y-100393143D01*
X140414143Y-99488381D02*
X139747476Y-99488381D01*
X140176048Y-100488381D01*
X129001917Y-100369723D02*
X129049536Y-100417342D01*
X129192393Y-100464961D01*
X129287631Y-100464961D01*
X129430489Y-100417342D01*
X129525727Y-100322104D01*
X129573346Y-100226866D01*
X129620965Y-100036390D01*
X129620965Y-99893532D01*
X129573346Y-99703056D01*
X129525727Y-99607818D01*
X129430489Y-99512580D01*
X129287631Y-99464961D01*
X129192393Y-99464961D01*
X129049536Y-99512580D01*
X129001917Y-99560199D01*
X128668584Y-99464961D02*
X128049536Y-99464961D01*
X128382870Y-99845913D01*
X128240012Y-99845913D01*
X128144774Y-99893532D01*
X128097155Y-99941151D01*
X128049536Y-100036390D01*
X128049536Y-100274485D01*
X128097155Y-100369723D01*
X128144774Y-100417342D01*
X128240012Y-100464961D01*
X128525727Y-100464961D01*
X128620965Y-100417342D01*
X128668584Y-100369723D01*
X127478108Y-99893532D02*
X127573346Y-99845913D01*
X127620965Y-99798294D01*
X127668584Y-99703056D01*
X127668584Y-99655437D01*
X127620965Y-99560199D01*
X127573346Y-99512580D01*
X127478108Y-99464961D01*
X127287631Y-99464961D01*
X127192393Y-99512580D01*
X127144774Y-99560199D01*
X127097155Y-99655437D01*
X127097155Y-99703056D01*
X127144774Y-99798294D01*
X127192393Y-99845913D01*
X127287631Y-99893532D01*
X127478108Y-99893532D01*
X127573346Y-99941151D01*
X127620965Y-99988770D01*
X127668584Y-100084009D01*
X127668584Y-100274485D01*
X127620965Y-100369723D01*
X127573346Y-100417342D01*
X127478108Y-100464961D01*
X127287631Y-100464961D01*
X127192393Y-100417342D01*
X127144774Y-100369723D01*
X127097155Y-100274485D01*
X127097155Y-100084009D01*
X127144774Y-99988770D01*
X127192393Y-99941151D01*
X127287631Y-99893532D01*
X137762857Y-106489143D02*
X137810476Y-106536762D01*
X137953333Y-106584381D01*
X138048571Y-106584381D01*
X138191429Y-106536762D01*
X138286667Y-106441524D01*
X138334286Y-106346286D01*
X138381905Y-106155810D01*
X138381905Y-106012952D01*
X138334286Y-105822476D01*
X138286667Y-105727238D01*
X138191429Y-105632000D01*
X138048571Y-105584381D01*
X137953333Y-105584381D01*
X137810476Y-105632000D01*
X137762857Y-105679619D01*
X136905714Y-105917714D02*
X136905714Y-106584381D01*
X137143810Y-105536762D02*
X137381905Y-106251048D01*
X136762857Y-106251048D01*
X135858095Y-106584381D02*
X136429524Y-106584381D01*
X136143810Y-106584381D02*
X136143810Y-105584381D01*
X136239048Y-105727238D01*
X136334286Y-105822476D01*
X136429524Y-105870095D01*
X159987857Y-108648143D02*
X160035476Y-108695762D01*
X160178333Y-108743381D01*
X160273571Y-108743381D01*
X160416429Y-108695762D01*
X160511667Y-108600524D01*
X160559286Y-108505286D01*
X160606905Y-108314810D01*
X160606905Y-108171952D01*
X160559286Y-107981476D01*
X160511667Y-107886238D01*
X160416429Y-107791000D01*
X160273571Y-107743381D01*
X160178333Y-107743381D01*
X160035476Y-107791000D01*
X159987857Y-107838619D01*
X159130714Y-108076714D02*
X159130714Y-108743381D01*
X159368810Y-107695762D02*
X159606905Y-108410048D01*
X158987857Y-108410048D01*
X158654524Y-107838619D02*
X158606905Y-107791000D01*
X158511667Y-107743381D01*
X158273571Y-107743381D01*
X158178333Y-107791000D01*
X158130714Y-107838619D01*
X158083095Y-107933857D01*
X158083095Y-108029095D01*
X158130714Y-108171952D01*
X158702143Y-108743381D01*
X158083095Y-108743381D01*
X125443857Y-67119143D02*
X125491476Y-67166762D01*
X125634333Y-67214381D01*
X125729571Y-67214381D01*
X125872429Y-67166762D01*
X125967667Y-67071524D01*
X126015286Y-66976286D01*
X126062905Y-66785810D01*
X126062905Y-66642952D01*
X126015286Y-66452476D01*
X125967667Y-66357238D01*
X125872429Y-66262000D01*
X125729571Y-66214381D01*
X125634333Y-66214381D01*
X125491476Y-66262000D01*
X125443857Y-66309619D01*
X124586714Y-66547714D02*
X124586714Y-67214381D01*
X124824810Y-66166762D02*
X125062905Y-66881048D01*
X124443857Y-66881048D01*
X123586714Y-66214381D02*
X124062905Y-66214381D01*
X124110524Y-66690571D01*
X124062905Y-66642952D01*
X123967667Y-66595333D01*
X123729571Y-66595333D01*
X123634333Y-66642952D01*
X123586714Y-66690571D01*
X123539095Y-66785810D01*
X123539095Y-67023905D01*
X123586714Y-67119143D01*
X123634333Y-67166762D01*
X123729571Y-67214381D01*
X123967667Y-67214381D01*
X124062905Y-67166762D01*
X124110524Y-67119143D01*
X125570857Y-71056143D02*
X125618476Y-71103762D01*
X125761333Y-71151381D01*
X125856571Y-71151381D01*
X125999429Y-71103762D01*
X126094667Y-71008524D01*
X126142286Y-70913286D01*
X126189905Y-70722810D01*
X126189905Y-70579952D01*
X126142286Y-70389476D01*
X126094667Y-70294238D01*
X125999429Y-70199000D01*
X125856571Y-70151381D01*
X125761333Y-70151381D01*
X125618476Y-70199000D01*
X125570857Y-70246619D01*
X124713714Y-70484714D02*
X124713714Y-71151381D01*
X124951810Y-70103762D02*
X125189905Y-70818048D01*
X124570857Y-70818048D01*
X123761333Y-70151381D02*
X123951810Y-70151381D01*
X124047048Y-70199000D01*
X124094667Y-70246619D01*
X124189905Y-70389476D01*
X124237524Y-70579952D01*
X124237524Y-70960905D01*
X124189905Y-71056143D01*
X124142286Y-71103762D01*
X124047048Y-71151381D01*
X123856571Y-71151381D01*
X123761333Y-71103762D01*
X123713714Y-71056143D01*
X123666095Y-70960905D01*
X123666095Y-70722810D01*
X123713714Y-70627571D01*
X123761333Y-70579952D01*
X123856571Y-70532333D01*
X124047048Y-70532333D01*
X124142286Y-70579952D01*
X124189905Y-70627571D01*
X124237524Y-70722810D01*
X126205857Y-76009143D02*
X126253476Y-76056762D01*
X126396333Y-76104381D01*
X126491571Y-76104381D01*
X126634429Y-76056762D01*
X126729667Y-75961524D01*
X126777286Y-75866286D01*
X126824905Y-75675810D01*
X126824905Y-75532952D01*
X126777286Y-75342476D01*
X126729667Y-75247238D01*
X126634429Y-75152000D01*
X126491571Y-75104381D01*
X126396333Y-75104381D01*
X126253476Y-75152000D01*
X126205857Y-75199619D01*
X125348714Y-75437714D02*
X125348714Y-76104381D01*
X125586810Y-75056762D02*
X125824905Y-75771048D01*
X125205857Y-75771048D01*
X124920143Y-75104381D02*
X124253476Y-75104381D01*
X124682048Y-76104381D01*
X126332857Y-73469143D02*
X126380476Y-73516762D01*
X126523333Y-73564381D01*
X126618571Y-73564381D01*
X126761429Y-73516762D01*
X126856667Y-73421524D01*
X126904286Y-73326286D01*
X126951905Y-73135810D01*
X126951905Y-72992952D01*
X126904286Y-72802476D01*
X126856667Y-72707238D01*
X126761429Y-72612000D01*
X126618571Y-72564381D01*
X126523333Y-72564381D01*
X126380476Y-72612000D01*
X126332857Y-72659619D01*
X125475714Y-72897714D02*
X125475714Y-73564381D01*
X125713810Y-72516762D02*
X125951905Y-73231048D01*
X125332857Y-73231048D01*
X124809048Y-72992952D02*
X124904286Y-72945333D01*
X124951905Y-72897714D01*
X124999524Y-72802476D01*
X124999524Y-72754857D01*
X124951905Y-72659619D01*
X124904286Y-72612000D01*
X124809048Y-72564381D01*
X124618571Y-72564381D01*
X124523333Y-72612000D01*
X124475714Y-72659619D01*
X124428095Y-72754857D01*
X124428095Y-72802476D01*
X124475714Y-72897714D01*
X124523333Y-72945333D01*
X124618571Y-72992952D01*
X124809048Y-72992952D01*
X124904286Y-73040571D01*
X124951905Y-73088190D01*
X124999524Y-73183429D01*
X124999524Y-73373905D01*
X124951905Y-73469143D01*
X124904286Y-73516762D01*
X124809048Y-73564381D01*
X124618571Y-73564381D01*
X124523333Y-73516762D01*
X124475714Y-73469143D01*
X124428095Y-73373905D01*
X124428095Y-73183429D01*
X124475714Y-73088190D01*
X124523333Y-73040571D01*
X124618571Y-72992952D01*
X130095238Y-82359143D02*
X130142857Y-82406762D01*
X130285714Y-82454381D01*
X130380952Y-82454381D01*
X130523810Y-82406762D01*
X130619048Y-82311524D01*
X130666667Y-82216286D01*
X130714286Y-82025810D01*
X130714286Y-81882952D01*
X130666667Y-81692476D01*
X130619048Y-81597238D01*
X130523810Y-81502000D01*
X130380952Y-81454381D01*
X130285714Y-81454381D01*
X130142857Y-81502000D01*
X130095238Y-81549619D01*
X129333333Y-81930571D02*
X129666667Y-81930571D01*
X129666667Y-82454381D02*
X129666667Y-81454381D01*
X129190476Y-81454381D01*
X128904762Y-81454381D02*
X128238095Y-81454381D01*
X128666667Y-82454381D01*
X120951238Y-82359143D02*
X120998857Y-82406762D01*
X121141714Y-82454381D01*
X121236952Y-82454381D01*
X121379810Y-82406762D01*
X121475048Y-82311524D01*
X121522667Y-82216286D01*
X121570286Y-82025810D01*
X121570286Y-81882952D01*
X121522667Y-81692476D01*
X121475048Y-81597238D01*
X121379810Y-81502000D01*
X121236952Y-81454381D01*
X121141714Y-81454381D01*
X120998857Y-81502000D01*
X120951238Y-81549619D01*
X120189333Y-81930571D02*
X120522667Y-81930571D01*
X120522667Y-82454381D02*
X120522667Y-81454381D01*
X120046476Y-81454381D01*
X119522667Y-81882952D02*
X119617905Y-81835333D01*
X119665524Y-81787714D01*
X119713143Y-81692476D01*
X119713143Y-81644857D01*
X119665524Y-81549619D01*
X119617905Y-81502000D01*
X119522667Y-81454381D01*
X119332190Y-81454381D01*
X119236952Y-81502000D01*
X119189333Y-81549619D01*
X119141714Y-81644857D01*
X119141714Y-81692476D01*
X119189333Y-81787714D01*
X119236952Y-81835333D01*
X119332190Y-81882952D01*
X119522667Y-81882952D01*
X119617905Y-81930571D01*
X119665524Y-81978190D01*
X119713143Y-82073429D01*
X119713143Y-82263905D01*
X119665524Y-82359143D01*
X119617905Y-82406762D01*
X119522667Y-82454381D01*
X119332190Y-82454381D01*
X119236952Y-82406762D01*
X119189333Y-82359143D01*
X119141714Y-82263905D01*
X119141714Y-82073429D01*
X119189333Y-81978190D01*
X119236952Y-81930571D01*
X119332190Y-81882952D01*
X125475666Y-69246381D02*
X125951857Y-69246381D01*
X125951857Y-68246381D01*
X125189952Y-68341619D02*
X125142333Y-68294000D01*
X125047095Y-68246381D01*
X124808999Y-68246381D01*
X124713761Y-68294000D01*
X124666142Y-68341619D01*
X124618523Y-68436857D01*
X124618523Y-68532095D01*
X124666142Y-68674952D01*
X125237571Y-69246381D01*
X124618523Y-69246381D01*
X130611095Y-78914381D02*
X129944428Y-79914381D01*
X129944428Y-78914381D02*
X130611095Y-79914381D01*
X129230142Y-79390571D02*
X129563476Y-79390571D01*
X129563476Y-79914381D02*
X129563476Y-78914381D01*
X129087285Y-78914381D01*
X128753952Y-79009619D02*
X128706333Y-78962000D01*
X128611095Y-78914381D01*
X128372999Y-78914381D01*
X128277761Y-78962000D01*
X128230142Y-79009619D01*
X128182523Y-79104857D01*
X128182523Y-79200095D01*
X128230142Y-79342952D01*
X128801571Y-79914381D01*
X128182523Y-79914381D01*
D16*
X129461668Y-81429691D02*
X129484531Y-81452553D01*
X129553119Y-81475416D01*
X129598845Y-81475416D01*
X129667433Y-81452553D01*
X129713158Y-81406828D01*
X129736021Y-81361102D01*
X129758884Y-81269651D01*
X129758884Y-81201063D01*
X129736021Y-81109612D01*
X129713158Y-81063887D01*
X129667433Y-81018161D01*
X129598845Y-80995298D01*
X129553119Y-80995298D01*
X129484531Y-81018161D01*
X129461668Y-81041024D01*
X129278766Y-81452553D02*
X129210178Y-81475416D01*
X129095864Y-81475416D01*
X129050138Y-81452553D01*
X129027276Y-81429691D01*
X129004413Y-81383965D01*
X129004413Y-81338240D01*
X129027276Y-81292514D01*
X129050138Y-81269651D01*
X129095864Y-81246789D01*
X129187315Y-81223926D01*
X129233040Y-81201063D01*
X129255903Y-81178200D01*
X129278766Y-81132475D01*
X129278766Y-81086749D01*
X129255903Y-81041024D01*
X129233040Y-81018161D01*
X129187315Y-80995298D01*
X129073001Y-80995298D01*
X129004413Y-81018161D01*
X128867236Y-80995298D02*
X128592883Y-80995298D01*
X128730060Y-81475416D02*
X128730060Y-80995298D01*
X128158491Y-81429691D02*
X128181354Y-81452553D01*
X128249942Y-81475416D01*
X128295668Y-81475416D01*
X128364256Y-81452553D01*
X128409981Y-81406828D01*
X128432844Y-81361102D01*
X128455707Y-81269651D01*
X128455707Y-81201063D01*
X128432844Y-81109612D01*
X128409981Y-81063887D01*
X128364256Y-81018161D01*
X128295668Y-80995298D01*
X128249942Y-80995298D01*
X128181354Y-81018161D01*
X128158491Y-81041024D01*
X127678373Y-81475416D02*
X127838412Y-81246789D01*
X127952726Y-81475416D02*
X127952726Y-80995298D01*
X127769824Y-80995298D01*
X127724099Y-81018161D01*
X127701236Y-81041024D01*
X127678373Y-81086749D01*
X127678373Y-81155338D01*
X127701236Y-81201063D01*
X127724099Y-81223926D01*
X127769824Y-81246789D01*
X127952726Y-81246789D01*
X127404020Y-81201063D02*
X127449745Y-81178200D01*
X127472608Y-81155338D01*
X127495471Y-81109612D01*
X127495471Y-81086749D01*
X127472608Y-81041024D01*
X127449745Y-81018161D01*
X127404020Y-80995298D01*
X127312569Y-80995298D01*
X127266843Y-81018161D01*
X127243981Y-81041024D01*
X127221118Y-81086749D01*
X127221118Y-81109612D01*
X127243981Y-81155338D01*
X127266843Y-81178200D01*
X127312569Y-81201063D01*
X127404020Y-81201063D01*
X127449745Y-81223926D01*
X127472608Y-81246789D01*
X127495471Y-81292514D01*
X127495471Y-81383965D01*
X127472608Y-81429691D01*
X127449745Y-81452553D01*
X127404020Y-81475416D01*
X127312569Y-81475416D01*
X127266843Y-81452553D01*
X127243981Y-81429691D01*
X127221118Y-81383965D01*
X127221118Y-81292514D01*
X127243981Y-81246789D01*
X127266843Y-81223926D01*
X127312569Y-81201063D01*
X127015353Y-81475416D02*
X127015353Y-80995298D01*
X126855314Y-81338240D01*
X126695275Y-80995298D01*
X126695275Y-81475416D01*
X126375196Y-80995298D02*
X126329471Y-80995298D01*
X126283745Y-81018161D01*
X126260882Y-81041024D01*
X126238020Y-81086749D01*
X126215157Y-81178200D01*
X126215157Y-81292514D01*
X126238020Y-81383965D01*
X126260882Y-81429691D01*
X126283745Y-81452553D01*
X126329471Y-81475416D01*
X126375196Y-81475416D01*
X126420922Y-81452553D01*
X126443784Y-81429691D01*
X126466647Y-81383965D01*
X126489510Y-81292514D01*
X126489510Y-81178200D01*
X126466647Y-81086749D01*
X126443784Y-81041024D01*
X126420922Y-81018161D01*
X126375196Y-80995298D01*
X125757902Y-81018161D02*
X125803627Y-80995298D01*
X125872216Y-80995298D01*
X125940804Y-81018161D01*
X125986529Y-81063887D01*
X126009392Y-81109612D01*
X126032255Y-81201063D01*
X126032255Y-81269651D01*
X126009392Y-81361102D01*
X125986529Y-81406828D01*
X125940804Y-81452553D01*
X125872216Y-81475416D01*
X125826490Y-81475416D01*
X125757902Y-81452553D01*
X125735039Y-81429691D01*
X125735039Y-81269651D01*
X125826490Y-81269651D01*
X125300647Y-80995298D02*
X125529274Y-80995298D01*
X125552137Y-81223926D01*
X125529274Y-81201063D01*
X125483549Y-81178200D01*
X125369235Y-81178200D01*
X125323509Y-81201063D01*
X125300647Y-81223926D01*
X125277784Y-81269651D01*
X125277784Y-81383965D01*
X125300647Y-81429691D01*
X125323509Y-81452553D01*
X125369235Y-81475416D01*
X125483549Y-81475416D01*
X125529274Y-81452553D01*
X125552137Y-81429691D01*
X125117745Y-80995298D02*
X124820529Y-80995298D01*
X124980568Y-81178200D01*
X124911980Y-81178200D01*
X124866254Y-81201063D01*
X124843392Y-81223926D01*
X124820529Y-81269651D01*
X124820529Y-81383965D01*
X124843392Y-81429691D01*
X124866254Y-81452553D01*
X124911980Y-81475416D01*
X125049156Y-81475416D01*
X125094882Y-81452553D01*
X125117745Y-81429691D01*
X124660490Y-80995298D02*
X124340411Y-80995298D01*
X124660490Y-81475416D01*
X124340411Y-81475416D01*
X124157509Y-81292514D02*
X123791705Y-81292514D01*
X123288724Y-81475416D02*
X123448763Y-81246789D01*
X123563077Y-81475416D02*
X123563077Y-80995298D01*
X123380175Y-80995298D01*
X123334450Y-81018161D01*
X123311587Y-81041024D01*
X123288724Y-81086749D01*
X123288724Y-81155338D01*
X123311587Y-81201063D01*
X123334450Y-81223926D01*
X123380175Y-81246789D01*
X123563077Y-81246789D01*
X122991508Y-80995298D02*
X122945783Y-80995298D01*
X122900057Y-81018161D01*
X122877194Y-81041024D01*
X122854332Y-81086749D01*
X122831469Y-81178200D01*
X122831469Y-81292514D01*
X122854332Y-81383965D01*
X122877194Y-81429691D01*
X122900057Y-81452553D01*
X122945783Y-81475416D01*
X122991508Y-81475416D01*
X123037234Y-81452553D01*
X123060096Y-81429691D01*
X123082959Y-81383965D01*
X123105822Y-81292514D01*
X123105822Y-81178200D01*
X123082959Y-81086749D01*
X123060096Y-81041024D01*
X123037234Y-81018161D01*
X122991508Y-80995298D01*
D12*
X120236857Y-74739143D02*
X120284476Y-74786762D01*
X120427333Y-74834381D01*
X120522571Y-74834381D01*
X120665429Y-74786762D01*
X120760667Y-74691524D01*
X120808286Y-74596286D01*
X120855905Y-74405810D01*
X120855905Y-74262952D01*
X120808286Y-74072476D01*
X120760667Y-73977238D01*
X120665429Y-73882000D01*
X120522571Y-73834381D01*
X120427333Y-73834381D01*
X120284476Y-73882000D01*
X120236857Y-73929619D01*
X119379714Y-74167714D02*
X119379714Y-74834381D01*
X119617810Y-73786762D02*
X119855905Y-74501048D01*
X119236857Y-74501048D01*
X118808286Y-74834381D02*
X118617810Y-74834381D01*
X118522571Y-74786762D01*
X118474952Y-74739143D01*
X118379714Y-74596286D01*
X118332095Y-74405810D01*
X118332095Y-74024857D01*
X118379714Y-73929619D01*
X118427333Y-73882000D01*
X118522571Y-73834381D01*
X118713048Y-73834381D01*
X118808286Y-73882000D01*
X118855905Y-73929619D01*
X118903524Y-74024857D01*
X118903524Y-74262952D01*
X118855905Y-74358190D01*
X118808286Y-74405810D01*
X118713048Y-74453429D01*
X118522571Y-74453429D01*
X118427333Y-74405810D01*
X118379714Y-74358190D01*
X118332095Y-74262952D01*
X120141666Y-95408381D02*
X120475000Y-94932190D01*
X120713095Y-95408381D02*
X120713095Y-94408381D01*
X120332142Y-94408381D01*
X120236904Y-94456000D01*
X120189285Y-94503619D01*
X120141666Y-94598857D01*
X120141666Y-94741714D01*
X120189285Y-94836952D01*
X120236904Y-94884571D01*
X120332142Y-94932190D01*
X120713095Y-94932190D01*
X119808333Y-94408381D02*
X119189285Y-94408381D01*
X119522619Y-94789333D01*
X119379761Y-94789333D01*
X119284523Y-94836952D01*
X119236904Y-94884571D01*
X119189285Y-94979810D01*
X119189285Y-95217905D01*
X119236904Y-95313143D01*
X119284523Y-95360762D01*
X119379761Y-95408381D01*
X119665476Y-95408381D01*
X119760714Y-95360762D01*
X119808333Y-95313143D01*
X120141666Y-94011381D02*
X120475000Y-93535190D01*
X120713095Y-94011381D02*
X120713095Y-93011381D01*
X120332142Y-93011381D01*
X120236904Y-93059000D01*
X120189285Y-93106619D01*
X120141666Y-93201857D01*
X120141666Y-93344714D01*
X120189285Y-93439952D01*
X120236904Y-93487571D01*
X120332142Y-93535190D01*
X120713095Y-93535190D01*
X119236904Y-93011381D02*
X119713095Y-93011381D01*
X119760714Y-93487571D01*
X119713095Y-93439952D01*
X119617857Y-93392333D01*
X119379761Y-93392333D01*
X119284523Y-93439952D01*
X119236904Y-93487571D01*
X119189285Y-93582810D01*
X119189285Y-93820905D01*
X119236904Y-93916143D01*
X119284523Y-93963762D01*
X119379761Y-94011381D01*
X119617857Y-94011381D01*
X119713095Y-93963762D01*
X119760714Y-93916143D01*
X120141666Y-92614381D02*
X120475000Y-92138190D01*
X120713095Y-92614381D02*
X120713095Y-91614381D01*
X120332142Y-91614381D01*
X120236904Y-91662000D01*
X120189285Y-91709619D01*
X120141666Y-91804857D01*
X120141666Y-91947714D01*
X120189285Y-92042952D01*
X120236904Y-92090571D01*
X120332142Y-92138190D01*
X120713095Y-92138190D01*
X119808333Y-91614381D02*
X119141666Y-91614381D01*
X119570238Y-92614381D01*
X120141666Y-98202381D02*
X120475000Y-97726190D01*
X120713095Y-98202381D02*
X120713095Y-97202381D01*
X120332142Y-97202381D01*
X120236904Y-97250000D01*
X120189285Y-97297619D01*
X120141666Y-97392857D01*
X120141666Y-97535714D01*
X120189285Y-97630952D01*
X120236904Y-97678571D01*
X120332142Y-97726190D01*
X120713095Y-97726190D01*
X119665476Y-98202381D02*
X119475000Y-98202381D01*
X119379761Y-98154762D01*
X119332142Y-98107143D01*
X119236904Y-97964286D01*
X119189285Y-97773810D01*
X119189285Y-97392857D01*
X119236904Y-97297619D01*
X119284523Y-97250000D01*
X119379761Y-97202381D01*
X119570238Y-97202381D01*
X119665476Y-97250000D01*
X119713095Y-97297619D01*
X119760714Y-97392857D01*
X119760714Y-97630952D01*
X119713095Y-97726190D01*
X119665476Y-97773810D01*
X119570238Y-97821429D01*
X119379761Y-97821429D01*
X119284523Y-97773810D01*
X119236904Y-97726190D01*
X119189285Y-97630952D01*
X120109857Y-99599381D02*
X120443191Y-99123190D01*
X120681286Y-99599381D02*
X120681286Y-98599381D01*
X120300333Y-98599381D01*
X120205095Y-98647000D01*
X120157476Y-98694619D01*
X120109857Y-98789857D01*
X120109857Y-98932714D01*
X120157476Y-99027952D01*
X120205095Y-99075571D01*
X120300333Y-99123190D01*
X120681286Y-99123190D01*
X119157476Y-99599381D02*
X119728905Y-99599381D01*
X119443191Y-99599381D02*
X119443191Y-98599381D01*
X119538429Y-98742238D01*
X119633667Y-98837476D01*
X119728905Y-98885095D01*
X118205095Y-99599381D02*
X118776524Y-99599381D01*
X118490810Y-99599381D02*
X118490810Y-98599381D01*
X118586048Y-98742238D01*
X118681286Y-98837476D01*
X118776524Y-98885095D01*
X120109857Y-96805381D02*
X120443191Y-96329190D01*
X120681286Y-96805381D02*
X120681286Y-95805381D01*
X120300333Y-95805381D01*
X120205095Y-95853000D01*
X120157476Y-95900619D01*
X120109857Y-95995857D01*
X120109857Y-96138714D01*
X120157476Y-96233952D01*
X120205095Y-96281571D01*
X120300333Y-96329190D01*
X120681286Y-96329190D01*
X119157476Y-96805381D02*
X119728905Y-96805381D01*
X119443191Y-96805381D02*
X119443191Y-95805381D01*
X119538429Y-95948238D01*
X119633667Y-96043476D01*
X119728905Y-96091095D01*
X118824143Y-95805381D02*
X118205095Y-95805381D01*
X118538429Y-96186333D01*
X118395571Y-96186333D01*
X118300333Y-96233952D01*
X118252714Y-96281571D01*
X118205095Y-96376810D01*
X118205095Y-96614905D01*
X118252714Y-96710143D01*
X118300333Y-96757762D01*
X118395571Y-96805381D01*
X118681286Y-96805381D01*
X118776524Y-96757762D01*
X118824143Y-96710143D01*
X156941917Y-74104143D02*
X156989536Y-74151762D01*
X157132393Y-74199381D01*
X157227631Y-74199381D01*
X157370489Y-74151762D01*
X157465727Y-74056524D01*
X157513346Y-73961286D01*
X157560965Y-73770810D01*
X157560965Y-73627952D01*
X157513346Y-73437476D01*
X157465727Y-73342238D01*
X157370489Y-73247000D01*
X157227631Y-73199381D01*
X157132393Y-73199381D01*
X156989536Y-73247000D01*
X156941917Y-73294619D01*
X156037155Y-73199381D02*
X156513346Y-73199381D01*
X156560965Y-73675571D01*
X156513346Y-73627952D01*
X156418108Y-73580333D01*
X156180012Y-73580333D01*
X156084774Y-73627952D01*
X156037155Y-73675571D01*
X155989536Y-73770810D01*
X155989536Y-74008905D01*
X156037155Y-74104143D01*
X156084774Y-74151762D01*
X156180012Y-74199381D01*
X156418108Y-74199381D01*
X156513346Y-74151762D01*
X156560965Y-74104143D01*
X155370489Y-73199381D02*
X155275250Y-73199381D01*
X155180012Y-73247000D01*
X155132393Y-73294619D01*
X155084774Y-73389857D01*
X155037155Y-73580333D01*
X155037155Y-73818429D01*
X155084774Y-74008905D01*
X155132393Y-74104143D01*
X155180012Y-74151762D01*
X155275250Y-74199381D01*
X155370489Y-74199381D01*
X155465727Y-74151762D01*
X155513346Y-74104143D01*
X155560965Y-74008905D01*
X155608584Y-73818429D01*
X155608584Y-73580333D01*
X155560965Y-73389857D01*
X155513346Y-73294619D01*
X155465727Y-73247000D01*
X155370489Y-73199381D01*
X154401917Y-67881143D02*
X154449536Y-67928762D01*
X154592393Y-67976381D01*
X154687631Y-67976381D01*
X154830489Y-67928762D01*
X154925727Y-67833524D01*
X154973346Y-67738286D01*
X155020965Y-67547810D01*
X155020965Y-67404952D01*
X154973346Y-67214476D01*
X154925727Y-67119238D01*
X154830489Y-67024000D01*
X154687631Y-66976381D01*
X154592393Y-66976381D01*
X154449536Y-67024000D01*
X154401917Y-67071619D01*
X153497155Y-66976381D02*
X153973346Y-66976381D01*
X154020965Y-67452571D01*
X153973346Y-67404952D01*
X153878108Y-67357333D01*
X153640012Y-67357333D01*
X153544774Y-67404952D01*
X153497155Y-67452571D01*
X153449536Y-67547810D01*
X153449536Y-67785905D01*
X153497155Y-67881143D01*
X153544774Y-67928762D01*
X153640012Y-67976381D01*
X153878108Y-67976381D01*
X153973346Y-67928762D01*
X154020965Y-67881143D01*
X152497155Y-67976381D02*
X153068584Y-67976381D01*
X152782870Y-67976381D02*
X152782870Y-66976381D01*
X152878108Y-67119238D01*
X152973346Y-67214476D01*
X153068584Y-67262095D01*
X156941917Y-78930143D02*
X156989536Y-78977762D01*
X157132393Y-79025381D01*
X157227631Y-79025381D01*
X157370489Y-78977762D01*
X157465727Y-78882524D01*
X157513346Y-78787286D01*
X157560965Y-78596810D01*
X157560965Y-78453952D01*
X157513346Y-78263476D01*
X157465727Y-78168238D01*
X157370489Y-78073000D01*
X157227631Y-78025381D01*
X157132393Y-78025381D01*
X156989536Y-78073000D01*
X156941917Y-78120619D01*
X156037155Y-78025381D02*
X156513346Y-78025381D01*
X156560965Y-78501571D01*
X156513346Y-78453952D01*
X156418108Y-78406333D01*
X156180012Y-78406333D01*
X156084774Y-78453952D01*
X156037155Y-78501571D01*
X155989536Y-78596810D01*
X155989536Y-78834905D01*
X156037155Y-78930143D01*
X156084774Y-78977762D01*
X156180012Y-79025381D01*
X156418108Y-79025381D01*
X156513346Y-78977762D01*
X156560965Y-78930143D01*
X155608584Y-78120619D02*
X155560965Y-78073000D01*
X155465727Y-78025381D01*
X155227631Y-78025381D01*
X155132393Y-78073000D01*
X155084774Y-78120619D01*
X155037155Y-78215857D01*
X155037155Y-78311095D01*
X155084774Y-78453952D01*
X155656203Y-79025381D01*
X155037155Y-79025381D01*
X146779857Y-67881143D02*
X146827476Y-67928762D01*
X146970333Y-67976381D01*
X147065571Y-67976381D01*
X147208429Y-67928762D01*
X147303667Y-67833524D01*
X147351286Y-67738286D01*
X147398905Y-67547810D01*
X147398905Y-67404952D01*
X147351286Y-67214476D01*
X147303667Y-67119238D01*
X147208429Y-67024000D01*
X147065571Y-66976381D01*
X146970333Y-66976381D01*
X146827476Y-67024000D01*
X146779857Y-67071619D01*
X145875095Y-66976381D02*
X146351286Y-66976381D01*
X146398905Y-67452571D01*
X146351286Y-67404952D01*
X146256048Y-67357333D01*
X146017952Y-67357333D01*
X145922714Y-67404952D01*
X145875095Y-67452571D01*
X145827476Y-67547810D01*
X145827476Y-67785905D01*
X145875095Y-67881143D01*
X145922714Y-67928762D01*
X146017952Y-67976381D01*
X146256048Y-67976381D01*
X146351286Y-67928762D01*
X146398905Y-67881143D01*
X144970333Y-66976381D02*
X145160810Y-66976381D01*
X145256048Y-67024000D01*
X145303667Y-67071619D01*
X145398905Y-67214476D01*
X145446524Y-67404952D01*
X145446524Y-67785905D01*
X145398905Y-67881143D01*
X145351286Y-67928762D01*
X145256048Y-67976381D01*
X145065571Y-67976381D01*
X144970333Y-67928762D01*
X144922714Y-67881143D01*
X144875095Y-67785905D01*
X144875095Y-67547810D01*
X144922714Y-67452571D01*
X144970333Y-67404952D01*
X145065571Y-67357333D01*
X145256048Y-67357333D01*
X145351286Y-67404952D01*
X145398905Y-67452571D01*
X145446524Y-67547810D01*
X124935857Y-91344381D02*
X125269191Y-90868190D01*
X125507286Y-91344381D02*
X125507286Y-90344381D01*
X125126333Y-90344381D01*
X125031095Y-90392000D01*
X124983476Y-90439619D01*
X124935857Y-90534857D01*
X124935857Y-90677714D01*
X124983476Y-90772952D01*
X125031095Y-90820571D01*
X125126333Y-90868190D01*
X125507286Y-90868190D01*
X123983476Y-91344381D02*
X124554905Y-91344381D01*
X124269191Y-91344381D02*
X124269191Y-90344381D01*
X124364429Y-90487238D01*
X124459667Y-90582476D01*
X124554905Y-90630095D01*
X123126333Y-90677714D02*
X123126333Y-91344381D01*
X123364429Y-90296762D02*
X123602524Y-91011048D01*
X122983476Y-91011048D01*
X130777857Y-91344381D02*
X131111191Y-90868190D01*
X131349286Y-91344381D02*
X131349286Y-90344381D01*
X130968333Y-90344381D01*
X130873095Y-90392000D01*
X130825476Y-90439619D01*
X130777857Y-90534857D01*
X130777857Y-90677714D01*
X130825476Y-90772952D01*
X130873095Y-90820571D01*
X130968333Y-90868190D01*
X131349286Y-90868190D01*
X129825476Y-91344381D02*
X130396905Y-91344381D01*
X130111191Y-91344381D02*
X130111191Y-90344381D01*
X130206429Y-90487238D01*
X130301667Y-90582476D01*
X130396905Y-90630095D01*
X128920714Y-90344381D02*
X129396905Y-90344381D01*
X129444524Y-90820571D01*
X129396905Y-90772952D01*
X129301667Y-90725333D01*
X129063571Y-90725333D01*
X128968333Y-90772952D01*
X128920714Y-90820571D01*
X128873095Y-90915810D01*
X128873095Y-91153905D01*
X128920714Y-91249143D01*
X128968333Y-91296762D01*
X129063571Y-91344381D01*
X129301667Y-91344381D01*
X129396905Y-91296762D01*
X129444524Y-91249143D01*
M02*
