G75*
%MOIN*%
%OFA0B0*%
%FSLAX25Y25*%
%IPPOS*%
%LPD*%
%AMOC8*
5,1,8,0,0,1.08239X$1,22.5*
%
%ADD10C,0.07124*%
%ADD11R,0.06500X0.06500*%
%ADD12C,0.06500*%
%ADD13C,0.01600*%
%ADD14C,0.09449*%
D10*
X0190080Y0133708D03*
X0149625Y0160735D03*
X0131745Y0198664D03*
X0131719Y0257086D03*
X0149692Y0295025D03*
X0190136Y0321989D03*
X0240069Y0321989D03*
X0280513Y0295025D03*
X0298485Y0257086D03*
X0298552Y0198704D03*
X0280580Y0160735D03*
X0240124Y0133708D03*
D11*
X0338102Y0130852D03*
X0398102Y0130852D03*
X0398102Y0204852D03*
X0338102Y0204852D03*
X0338102Y0278852D03*
X0398102Y0278852D03*
X0240102Y0214602D03*
D12*
X0230102Y0214602D03*
X0220102Y0214602D03*
X0210102Y0214602D03*
X0200102Y0214602D03*
X0190102Y0214602D03*
X0348102Y0204852D03*
X0358102Y0204852D03*
X0368102Y0204852D03*
X0378102Y0204852D03*
X0388102Y0204852D03*
X0408102Y0204852D03*
X0418102Y0204852D03*
X0428102Y0204852D03*
X0438102Y0204852D03*
X0448102Y0204852D03*
X0448102Y0130852D03*
X0438102Y0130852D03*
X0428102Y0130852D03*
X0418102Y0130852D03*
X0408102Y0130852D03*
X0388102Y0130852D03*
X0378102Y0130852D03*
X0368102Y0130852D03*
X0358102Y0130852D03*
X0348102Y0130852D03*
X0348102Y0278852D03*
X0358102Y0278852D03*
X0368102Y0278852D03*
X0378102Y0278852D03*
X0388102Y0278852D03*
X0408102Y0278852D03*
X0418102Y0278852D03*
X0428102Y0278852D03*
X0438102Y0278852D03*
X0448102Y0278852D03*
D13*
X0113602Y0167072D02*
X0113602Y0113352D01*
X0175601Y0113352D01*
X0175619Y0113944D01*
X0174911Y0116132D01*
X0173508Y0117954D01*
X0171573Y0119196D01*
X0169333Y0119715D01*
X0168536Y0119690D01*
X0168527Y0119686D01*
X0168075Y0119667D01*
X0167626Y0119615D01*
X0167522Y0119644D01*
X0167414Y0119640D01*
X0166989Y0119796D01*
X0166554Y0119919D01*
X0166469Y0119986D01*
X0166368Y0120023D01*
X0166035Y0120329D01*
X0165681Y0120610D01*
X0165628Y0120704D01*
X0165548Y0120778D01*
X0165358Y0121188D01*
X0165138Y0121583D01*
X0165125Y0121690D01*
X0165080Y0121788D01*
X0165061Y0122240D01*
X0165009Y0122689D01*
X0165038Y0122793D01*
X0165034Y0122901D01*
X0165189Y0123326D01*
X0165313Y0123761D01*
X0165380Y0123846D01*
X0165417Y0123947D01*
X0165723Y0124280D01*
X0165869Y0124464D01*
X0156782Y0129965D01*
X0156782Y0129965D01*
X0147105Y0137541D01*
X0147105Y0137541D01*
X0147105Y0137541D01*
X0138404Y0146221D01*
X0138404Y0146221D01*
X0130803Y0155878D01*
X0130803Y0155878D01*
X0124411Y0166375D01*
X0124411Y0166375D01*
X0121181Y0173471D01*
X0119577Y0173101D01*
X0117645Y0171864D01*
X0116241Y0170051D01*
X0115843Y0169114D01*
X0115767Y0168919D01*
X0115618Y0168462D01*
X0115567Y0168402D01*
X0115538Y0168329D01*
X0115206Y0167981D01*
X0114893Y0167617D01*
X0114822Y0167581D01*
X0114768Y0167524D01*
X0114328Y0167330D01*
X0113899Y0167113D01*
X0113821Y0167107D01*
X0113749Y0167075D01*
X0113602Y0167072D01*
X0113602Y0165944D02*
X0124673Y0165944D01*
X0123879Y0167543D02*
X0114786Y0167543D01*
X0115855Y0169141D02*
X0123152Y0169141D01*
X0122424Y0170740D02*
X0116775Y0170740D01*
X0118386Y0172338D02*
X0121697Y0172338D01*
X0125646Y0164346D02*
X0113602Y0164346D01*
X0113602Y0162747D02*
X0126620Y0162747D01*
X0127593Y0161149D02*
X0113602Y0161149D01*
X0113602Y0159550D02*
X0128567Y0159550D01*
X0129540Y0157952D02*
X0113602Y0157952D01*
X0113602Y0156353D02*
X0130513Y0156353D01*
X0131687Y0154755D02*
X0113602Y0154755D01*
X0113602Y0153156D02*
X0132945Y0153156D01*
X0134203Y0151558D02*
X0113602Y0151558D01*
X0113602Y0149959D02*
X0135461Y0149959D01*
X0136720Y0148361D02*
X0113602Y0148361D01*
X0113602Y0146762D02*
X0137978Y0146762D01*
X0139464Y0145164D02*
X0113602Y0145164D01*
X0113602Y0143565D02*
X0141066Y0143565D01*
X0142669Y0141967D02*
X0113602Y0141967D01*
X0113602Y0140368D02*
X0144271Y0140368D01*
X0145874Y0138770D02*
X0113602Y0138770D01*
X0113602Y0137171D02*
X0147578Y0137171D01*
X0149620Y0135573D02*
X0113602Y0135573D01*
X0113602Y0133974D02*
X0151662Y0133974D01*
X0153703Y0132376D02*
X0113602Y0132376D01*
X0113602Y0130777D02*
X0155745Y0130777D01*
X0158081Y0129179D02*
X0113602Y0129179D01*
X0113602Y0127580D02*
X0160721Y0127580D01*
X0163362Y0125982D02*
X0113602Y0125982D01*
X0113602Y0124383D02*
X0165805Y0124383D01*
X0165036Y0122784D02*
X0113602Y0122784D01*
X0113602Y0121186D02*
X0165359Y0121186D01*
X0169882Y0119587D02*
X0113602Y0119587D01*
X0113602Y0117989D02*
X0173453Y0117989D01*
X0174712Y0116390D02*
X0113602Y0116390D01*
X0113602Y0114792D02*
X0175345Y0114792D01*
X0170037Y0128697D02*
X0169989Y0128719D01*
X0160069Y0134725D01*
X0155703Y0138143D01*
X0157078Y0139442D01*
X0157075Y0139385D01*
X0157118Y0139262D01*
X0157122Y0139132D01*
X0157300Y0138740D01*
X0157442Y0138334D01*
X0157529Y0138236D01*
X0157583Y0138118D01*
X0157898Y0137824D01*
X0158184Y0137503D01*
X0158302Y0137446D01*
X0158397Y0137357D01*
X0158800Y0137206D01*
X0159188Y0137019D01*
X0159318Y0137012D01*
X0159440Y0136966D01*
X0159870Y0136981D01*
X0160300Y0136957D01*
X0160423Y0137000D01*
X0160553Y0137004D01*
X0160945Y0137182D01*
X0161352Y0137324D01*
X0161376Y0137346D01*
X0162164Y0137624D01*
X0164489Y0137807D01*
X0166736Y0137185D01*
X0168637Y0135834D01*
X0169823Y0134117D01*
X0170030Y0133658D01*
X0170553Y0131659D01*
X0170339Y0129337D01*
X0170037Y0128697D01*
X0170264Y0129179D02*
X0169230Y0129179D01*
X0170472Y0130777D02*
X0166589Y0130777D01*
X0163949Y0132376D02*
X0170366Y0132376D01*
X0169887Y0133974D02*
X0161309Y0133974D01*
X0158986Y0135573D02*
X0168817Y0135573D01*
X0166756Y0137171D02*
X0160921Y0137171D01*
X0158873Y0137171D02*
X0156944Y0137171D01*
X0157287Y0138770D02*
X0156366Y0138770D01*
X0151968Y0141967D02*
X0150845Y0141967D01*
X0150938Y0141874D02*
X0151588Y0141365D01*
X0154983Y0146739D01*
X0154967Y0146900D01*
X0155471Y0147512D01*
X0155895Y0148182D01*
X0156052Y0148218D01*
X0156155Y0148342D01*
X0156944Y0148419D01*
X0157718Y0148593D01*
X0157854Y0148507D01*
X0157924Y0148514D01*
X0159306Y0150192D01*
X0158640Y0151300D01*
X0156846Y0152764D01*
X0154662Y0153533D01*
X0152346Y0153516D01*
X0150173Y0152716D01*
X0149504Y0152247D01*
X0149493Y0152228D01*
X0149133Y0151974D01*
X0148795Y0151690D01*
X0148681Y0151654D01*
X0148583Y0151585D01*
X0148153Y0151488D01*
X0147733Y0151355D01*
X0147614Y0151366D01*
X0147497Y0151339D01*
X0147062Y0151414D01*
X0146623Y0151452D01*
X0146517Y0151507D01*
X0146399Y0151527D01*
X0146026Y0151763D01*
X0145635Y0151966D01*
X0145558Y0152058D01*
X0145457Y0152122D01*
X0145202Y0152481D01*
X0144919Y0152819D01*
X0144883Y0152933D01*
X0144814Y0153031D01*
X0144716Y0153461D01*
X0144583Y0153881D01*
X0144594Y0154001D01*
X0144567Y0154117D01*
X0144642Y0154552D01*
X0144680Y0154991D01*
X0144735Y0155097D01*
X0144756Y0155215D01*
X0144991Y0155588D01*
X0145194Y0155979D01*
X0145211Y0155993D01*
X0145587Y0156722D01*
X0145620Y0156874D01*
X0144909Y0157584D01*
X0144063Y0159628D01*
X0144063Y0161841D01*
X0144693Y0163364D01*
X0142997Y0164925D01*
X0140855Y0165822D01*
X0138536Y0165936D01*
X0136316Y0165253D01*
X0134462Y0163856D01*
X0133964Y0163222D01*
X0133963Y0163216D01*
X0133687Y0162854D01*
X0133495Y0162558D01*
X0135554Y0159177D01*
X0142727Y0150064D01*
X0150938Y0141874D01*
X0149242Y0143565D02*
X0152978Y0143565D01*
X0153988Y0145164D02*
X0147639Y0145164D01*
X0146037Y0146762D02*
X0154980Y0146762D01*
X0156343Y0148361D02*
X0144434Y0148361D01*
X0142832Y0149959D02*
X0159114Y0149959D01*
X0158325Y0151558D02*
X0148462Y0151558D01*
X0146351Y0151558D02*
X0141551Y0151558D01*
X0140293Y0153156D02*
X0144785Y0153156D01*
X0144660Y0154755D02*
X0139035Y0154755D01*
X0137776Y0156353D02*
X0145396Y0156353D01*
X0144757Y0157952D02*
X0136518Y0157952D01*
X0135327Y0159550D02*
X0144095Y0159550D01*
X0144063Y0161149D02*
X0134353Y0161149D01*
X0133618Y0162747D02*
X0144438Y0162747D01*
X0143626Y0164346D02*
X0135112Y0164346D01*
X0151368Y0153156D02*
X0155732Y0153156D01*
X0179330Y0175535D02*
X0180169Y0175535D01*
X0179790Y0175075D02*
X0208276Y0209676D01*
X0207128Y0210152D01*
X0205652Y0211628D01*
X0205102Y0212955D01*
X0204553Y0211628D01*
X0203076Y0210152D01*
X0201147Y0209352D01*
X0199058Y0209352D01*
X0197128Y0210152D01*
X0195652Y0211628D01*
X0195102Y0212955D01*
X0194553Y0211628D01*
X0193076Y0210152D01*
X0191147Y0209352D01*
X0189058Y0209352D01*
X0187128Y0210152D01*
X0185652Y0211628D01*
X0184852Y0213558D01*
X0184852Y0215647D01*
X0185652Y0217576D01*
X0187128Y0219053D01*
X0188334Y0219552D01*
X0118404Y0219552D01*
X0118402Y0219529D01*
X0118402Y0218045D01*
X0118365Y0217955D01*
X0118269Y0213656D01*
X0118720Y0206982D01*
X0128635Y0205165D01*
X0128635Y0205165D01*
X0131647Y0204227D01*
X0132851Y0204227D01*
X0134896Y0203380D01*
X0135136Y0203139D01*
X0140695Y0201407D01*
X0140695Y0201407D01*
X0152213Y0196223D01*
X0152213Y0196223D01*
X0163023Y0189688D01*
X0163023Y0189688D01*
X0172967Y0181898D01*
X0172967Y0181898D01*
X0179790Y0175075D01*
X0181485Y0177134D02*
X0177731Y0177134D01*
X0176133Y0178732D02*
X0182801Y0178732D01*
X0184117Y0180331D02*
X0174534Y0180331D01*
X0172927Y0181929D02*
X0185433Y0181929D01*
X0186749Y0183528D02*
X0170887Y0183528D01*
X0168846Y0185126D02*
X0188065Y0185126D01*
X0189381Y0186725D02*
X0166806Y0186725D01*
X0164766Y0188323D02*
X0190697Y0188323D01*
X0192013Y0189922D02*
X0162637Y0189922D01*
X0159993Y0191520D02*
X0193329Y0191520D01*
X0194645Y0193119D02*
X0157348Y0193119D01*
X0154704Y0194718D02*
X0195961Y0194718D01*
X0197277Y0196316D02*
X0152007Y0196316D01*
X0148455Y0197915D02*
X0198593Y0197915D01*
X0199909Y0199513D02*
X0144904Y0199513D01*
X0141352Y0201112D02*
X0201225Y0201112D01*
X0202541Y0202710D02*
X0136514Y0202710D01*
X0131384Y0204309D02*
X0203857Y0204309D01*
X0205173Y0205907D02*
X0124587Y0205907D01*
X0118685Y0207506D02*
X0206489Y0207506D01*
X0207805Y0209104D02*
X0118576Y0209104D01*
X0118468Y0210703D02*
X0186577Y0210703D01*
X0185373Y0212301D02*
X0118360Y0212301D01*
X0118274Y0213900D02*
X0184852Y0213900D01*
X0184852Y0215498D02*
X0118310Y0215498D01*
X0118346Y0217097D02*
X0185453Y0217097D01*
X0186771Y0218695D02*
X0118402Y0218695D01*
X0115045Y0225402D02*
X0114016Y0224976D01*
X0113602Y0224562D01*
X0113602Y0234638D01*
X0114118Y0234164D01*
X0115164Y0233781D01*
X0116277Y0233828D01*
X0117287Y0234298D01*
X0118041Y0235118D01*
X0118423Y0236164D01*
X0118400Y0236721D01*
X0118399Y0236802D01*
X0211659Y0236802D01*
X0212688Y0237229D01*
X0213476Y0238016D01*
X0213902Y0239045D01*
X0213902Y0240159D01*
X0213476Y0241188D01*
X0212688Y0241976D01*
X0211659Y0242402D01*
X0118402Y0242402D01*
X0118402Y0243474D01*
X0119227Y0254084D01*
X0121502Y0265455D01*
X0125120Y0276474D01*
X0130029Y0286980D01*
X0136160Y0296824D01*
X0143424Y0305865D01*
X0151717Y0313972D01*
X0160920Y0321029D01*
X0170900Y0326935D01*
X0181515Y0331605D01*
X0192612Y0334973D01*
X0204033Y0336989D01*
X0215613Y0337626D01*
X0227185Y0336873D01*
X0238585Y0334742D01*
X0249648Y0331263D01*
X0260215Y0326486D01*
X0270136Y0320480D01*
X0279267Y0313331D01*
X0287478Y0305141D01*
X0294651Y0296028D01*
X0300682Y0286123D01*
X0305486Y0275567D01*
X0308993Y0264513D01*
X0311154Y0253119D01*
X0311878Y0242402D01*
X0218795Y0242402D01*
X0217766Y0241976D01*
X0216979Y0241188D01*
X0216552Y0240159D01*
X0216552Y0239045D01*
X0216979Y0238016D01*
X0217766Y0237229D01*
X0218795Y0236802D01*
X0311830Y0236802D01*
X0311806Y0235749D01*
X0311777Y0235193D01*
X0312149Y0234143D01*
X0312894Y0233315D01*
X0313900Y0232835D01*
X0315012Y0232777D01*
X0316052Y0233145D01*
X0316052Y0224782D01*
X0315159Y0225152D01*
X0218295Y0225152D01*
X0217266Y0224726D01*
X0216479Y0223938D01*
X0216052Y0222909D01*
X0216052Y0221795D01*
X0216479Y0220766D01*
X0217266Y0219979D01*
X0218295Y0219552D01*
X0218334Y0219552D01*
X0217128Y0219053D01*
X0215979Y0217903D01*
X0214226Y0217903D01*
X0213076Y0219053D01*
X0211871Y0219552D01*
X0211909Y0219552D01*
X0212938Y0219979D01*
X0213726Y0220766D01*
X0214152Y0221795D01*
X0214152Y0222909D01*
X0213726Y0223938D01*
X0212938Y0224726D01*
X0211909Y0225152D01*
X0116763Y0225152D01*
X0116159Y0225402D01*
X0115045Y0225402D01*
X0114289Y0225089D02*
X0113602Y0225089D01*
X0113602Y0226688D02*
X0316052Y0226688D01*
X0316052Y0228286D02*
X0113602Y0228286D01*
X0113602Y0229885D02*
X0316052Y0229885D01*
X0316052Y0231483D02*
X0113602Y0231483D01*
X0113602Y0233082D02*
X0313383Y0233082D01*
X0311959Y0234680D02*
X0117639Y0234680D01*
X0118419Y0236279D02*
X0311818Y0236279D01*
X0315872Y0233082D02*
X0316052Y0233082D01*
X0321652Y0233082D02*
X0322322Y0233082D01*
X0321652Y0232412D02*
X0323293Y0234053D01*
X0325765Y0235077D01*
X0328440Y0235077D01*
X0330911Y0234053D01*
X0332803Y0232161D01*
X0333827Y0229690D01*
X0333827Y0227015D01*
X0332803Y0224543D01*
X0330911Y0222652D01*
X0328440Y0221628D01*
X0325765Y0221628D01*
X0323293Y0222652D01*
X0321652Y0224293D01*
X0321652Y0199902D01*
X0333724Y0199902D01*
X0332852Y0200774D01*
X0332852Y0208931D01*
X0334024Y0210102D01*
X0342181Y0210102D01*
X0343352Y0208931D01*
X0343352Y0207104D01*
X0343652Y0207826D01*
X0345128Y0209303D01*
X0347058Y0210102D01*
X0349147Y0210102D01*
X0351076Y0209303D01*
X0352553Y0207826D01*
X0353102Y0206500D01*
X0353652Y0207826D01*
X0355128Y0209303D01*
X0357058Y0210102D01*
X0359147Y0210102D01*
X0361076Y0209303D01*
X0362553Y0207826D01*
X0363102Y0206500D01*
X0363652Y0207826D01*
X0365128Y0209303D01*
X0367058Y0210102D01*
X0369147Y0210102D01*
X0371076Y0209303D01*
X0372553Y0207826D01*
X0373102Y0206500D01*
X0373652Y0207826D01*
X0375128Y0209303D01*
X0377058Y0210102D01*
X0379147Y0210102D01*
X0381076Y0209303D01*
X0382553Y0207826D01*
X0383102Y0206500D01*
X0383652Y0207826D01*
X0385128Y0209303D01*
X0387058Y0210102D01*
X0389147Y0210102D01*
X0391076Y0209303D01*
X0392553Y0207826D01*
X0392852Y0207104D01*
X0392852Y0208931D01*
X0394024Y0210102D01*
X0402181Y0210102D01*
X0403352Y0208931D01*
X0403352Y0207104D01*
X0403652Y0207826D01*
X0405128Y0209303D01*
X0407058Y0210102D01*
X0409147Y0210102D01*
X0411076Y0209303D01*
X0412553Y0207826D01*
X0413102Y0206500D01*
X0413652Y0207826D01*
X0415128Y0209303D01*
X0417058Y0210102D01*
X0419147Y0210102D01*
X0421076Y0209303D01*
X0422553Y0207826D01*
X0423102Y0206500D01*
X0423652Y0207826D01*
X0425128Y0209303D01*
X0427058Y0210102D01*
X0429147Y0210102D01*
X0431076Y0209303D01*
X0432553Y0207826D01*
X0433102Y0206500D01*
X0433652Y0207826D01*
X0435128Y0209303D01*
X0437058Y0210102D01*
X0439147Y0210102D01*
X0441076Y0209303D01*
X0442553Y0207826D01*
X0443102Y0206500D01*
X0443652Y0207826D01*
X0445128Y0209303D01*
X0447058Y0210102D01*
X0449147Y0210102D01*
X0451076Y0209303D01*
X0452553Y0207826D01*
X0453352Y0205897D01*
X0453352Y0203808D01*
X0452553Y0201878D01*
X0451076Y0200402D01*
X0449871Y0199902D01*
X0466302Y0199902D01*
X0466302Y0225749D01*
X0465803Y0224543D01*
X0463911Y0222652D01*
X0461440Y0221628D01*
X0458765Y0221628D01*
X0456293Y0222652D01*
X0454402Y0224543D01*
X0453378Y0227015D01*
X0453378Y0229690D01*
X0454402Y0232161D01*
X0456293Y0234053D01*
X0458765Y0235077D01*
X0461440Y0235077D01*
X0463911Y0234053D01*
X0465803Y0232161D01*
X0466302Y0230956D01*
X0466302Y0257802D01*
X0321652Y0257802D01*
X0321652Y0232412D01*
X0321652Y0234680D02*
X0324808Y0234680D01*
X0321652Y0236279D02*
X0466302Y0236279D01*
X0466302Y0237877D02*
X0321652Y0237877D01*
X0321652Y0239476D02*
X0466302Y0239476D01*
X0466302Y0241074D02*
X0321652Y0241074D01*
X0321652Y0242673D02*
X0466302Y0242673D01*
X0466302Y0244271D02*
X0321652Y0244271D01*
X0321652Y0245870D02*
X0466302Y0245870D01*
X0466302Y0247468D02*
X0321652Y0247468D01*
X0321652Y0249067D02*
X0466302Y0249067D01*
X0466302Y0250665D02*
X0321652Y0250665D01*
X0321652Y0252264D02*
X0466302Y0252264D01*
X0466302Y0253862D02*
X0321652Y0253862D01*
X0321652Y0255461D02*
X0466302Y0255461D01*
X0466302Y0257059D02*
X0321652Y0257059D01*
X0316052Y0258277D02*
X0316052Y0258943D01*
X0315979Y0259016D01*
X0315856Y0259312D01*
X0316052Y0258277D01*
X0316052Y0258658D02*
X0315980Y0258658D01*
X0315552Y0260914D02*
X0314602Y0265929D01*
X0310885Y0277644D01*
X0305794Y0288830D01*
X0299402Y0299327D01*
X0291801Y0308984D01*
X0283099Y0317663D01*
X0273423Y0325240D01*
X0273423Y0325240D01*
X0262909Y0331605D01*
X0262472Y0331802D01*
X0316052Y0331802D01*
X0316052Y0271159D01*
X0316052Y0262262D01*
X0315979Y0262188D01*
X0315552Y0261159D01*
X0315552Y0260914D01*
X0315374Y0261855D02*
X0315841Y0261855D01*
X0316052Y0263453D02*
X0315071Y0263453D01*
X0314768Y0265052D02*
X0316052Y0265052D01*
X0316052Y0266651D02*
X0314373Y0266651D01*
X0314602Y0265929D02*
X0314602Y0265929D01*
X0313866Y0268249D02*
X0316052Y0268249D01*
X0316052Y0269848D02*
X0313358Y0269848D01*
X0312851Y0271446D02*
X0316052Y0271446D01*
X0316052Y0273045D02*
X0312344Y0273045D01*
X0311837Y0274643D02*
X0316052Y0274643D01*
X0316052Y0276242D02*
X0311330Y0276242D01*
X0310885Y0277644D02*
X0310885Y0277644D01*
X0310795Y0277840D02*
X0316052Y0277840D01*
X0316052Y0279439D02*
X0310068Y0279439D01*
X0309340Y0281037D02*
X0316052Y0281037D01*
X0316052Y0282636D02*
X0308613Y0282636D01*
X0307885Y0284234D02*
X0316052Y0284234D01*
X0316052Y0285833D02*
X0307158Y0285833D01*
X0306430Y0287431D02*
X0316052Y0287431D01*
X0316052Y0289030D02*
X0305672Y0289030D01*
X0305794Y0288830D02*
X0305794Y0288830D01*
X0304699Y0290628D02*
X0316052Y0290628D01*
X0316052Y0292227D02*
X0303725Y0292227D01*
X0302752Y0293825D02*
X0316052Y0293825D01*
X0316052Y0295424D02*
X0301779Y0295424D01*
X0300805Y0297022D02*
X0316052Y0297022D01*
X0316052Y0298621D02*
X0299832Y0298621D01*
X0299402Y0299327D02*
X0299402Y0299327D01*
X0298699Y0300219D02*
X0316052Y0300219D01*
X0316052Y0301818D02*
X0297441Y0301818D01*
X0296183Y0303416D02*
X0316052Y0303416D01*
X0316052Y0305015D02*
X0294925Y0305015D01*
X0293667Y0306613D02*
X0316052Y0306613D01*
X0316052Y0308212D02*
X0292409Y0308212D01*
X0291801Y0308984D02*
X0291801Y0308984D01*
X0290972Y0309810D02*
X0316052Y0309810D01*
X0316052Y0311409D02*
X0289370Y0311409D01*
X0287767Y0313007D02*
X0316052Y0313007D01*
X0316052Y0314606D02*
X0286165Y0314606D01*
X0284562Y0316204D02*
X0316052Y0316204D01*
X0316052Y0317803D02*
X0282921Y0317803D01*
X0283099Y0317663D02*
X0283099Y0317663D01*
X0280879Y0319401D02*
X0316052Y0319401D01*
X0316052Y0321000D02*
X0278838Y0321000D01*
X0276796Y0322598D02*
X0316052Y0322598D01*
X0316052Y0324197D02*
X0274754Y0324197D01*
X0272505Y0325795D02*
X0316052Y0325795D01*
X0316052Y0327394D02*
X0269864Y0327394D01*
X0267224Y0328992D02*
X0316052Y0328992D01*
X0316052Y0330591D02*
X0264584Y0330591D01*
X0262909Y0331605D02*
X0262909Y0331605D01*
X0261356Y0325795D02*
X0244129Y0325795D01*
X0244785Y0325140D02*
X0243220Y0326704D01*
X0241176Y0327551D01*
X0238963Y0327551D01*
X0236918Y0326704D01*
X0235354Y0325140D01*
X0234507Y0323095D01*
X0234507Y0320883D01*
X0235354Y0318838D01*
X0236918Y0317274D01*
X0238963Y0316427D01*
X0241176Y0316427D01*
X0243220Y0317274D01*
X0244785Y0318838D01*
X0245631Y0320883D01*
X0245631Y0323095D01*
X0244785Y0325140D01*
X0245175Y0324197D02*
X0263997Y0324197D01*
X0266637Y0322598D02*
X0245631Y0322598D01*
X0245631Y0321000D02*
X0269277Y0321000D01*
X0271514Y0319401D02*
X0245018Y0319401D01*
X0243749Y0317803D02*
X0273555Y0317803D01*
X0275597Y0316204D02*
X0154628Y0316204D01*
X0152544Y0314606D02*
X0277639Y0314606D01*
X0279591Y0313007D02*
X0150730Y0313007D01*
X0149095Y0311409D02*
X0281194Y0311409D01*
X0282797Y0309810D02*
X0147460Y0309810D01*
X0145825Y0308212D02*
X0284399Y0308212D01*
X0286002Y0306613D02*
X0144190Y0306613D01*
X0142741Y0305015D02*
X0287577Y0305015D01*
X0288835Y0303416D02*
X0141457Y0303416D01*
X0140172Y0301818D02*
X0290094Y0301818D01*
X0291352Y0300219D02*
X0282508Y0300219D01*
X0281619Y0300587D02*
X0279407Y0300587D01*
X0277362Y0299740D01*
X0275798Y0298176D01*
X0274951Y0296131D01*
X0274951Y0293919D01*
X0275798Y0291874D01*
X0277362Y0290310D01*
X0279407Y0289463D01*
X0281619Y0289463D01*
X0283664Y0290310D01*
X0285228Y0291874D01*
X0286075Y0293919D01*
X0286075Y0296131D01*
X0285228Y0298176D01*
X0283664Y0299740D01*
X0281619Y0300587D01*
X0278518Y0300219D02*
X0151686Y0300219D01*
X0150798Y0300587D02*
X0152842Y0299740D01*
X0154407Y0298176D01*
X0155254Y0296131D01*
X0155254Y0293919D01*
X0154407Y0291874D01*
X0152842Y0290310D01*
X0150798Y0289463D01*
X0148585Y0289463D01*
X0146541Y0290310D01*
X0144976Y0291874D01*
X0144129Y0293919D01*
X0144129Y0296131D01*
X0144976Y0298176D01*
X0146541Y0299740D01*
X0148585Y0300587D01*
X0150798Y0300587D01*
X0147697Y0300219D02*
X0138888Y0300219D01*
X0137604Y0298621D02*
X0145421Y0298621D01*
X0144498Y0297022D02*
X0136319Y0297022D01*
X0135288Y0295424D02*
X0144129Y0295424D01*
X0144168Y0293825D02*
X0134292Y0293825D01*
X0133297Y0292227D02*
X0144830Y0292227D01*
X0146222Y0290628D02*
X0132301Y0290628D01*
X0131306Y0289030D02*
X0298912Y0289030D01*
X0297939Y0290628D02*
X0283982Y0290628D01*
X0285374Y0292227D02*
X0296965Y0292227D01*
X0295992Y0293825D02*
X0286037Y0293825D01*
X0286075Y0295424D02*
X0295019Y0295424D01*
X0293868Y0297022D02*
X0285706Y0297022D01*
X0284783Y0298621D02*
X0292610Y0298621D01*
X0299885Y0287431D02*
X0130310Y0287431D01*
X0129493Y0285833D02*
X0300814Y0285833D01*
X0301542Y0284234D02*
X0128746Y0284234D01*
X0127999Y0282636D02*
X0302269Y0282636D01*
X0302997Y0281037D02*
X0127252Y0281037D01*
X0126505Y0279439D02*
X0303724Y0279439D01*
X0304452Y0277840D02*
X0125758Y0277840D01*
X0125044Y0276242D02*
X0305179Y0276242D01*
X0305779Y0274643D02*
X0124519Y0274643D01*
X0123994Y0273045D02*
X0306287Y0273045D01*
X0306794Y0271446D02*
X0123469Y0271446D01*
X0122944Y0269848D02*
X0307301Y0269848D01*
X0307808Y0268249D02*
X0122419Y0268249D01*
X0121894Y0266651D02*
X0308315Y0266651D01*
X0308822Y0265052D02*
X0121421Y0265052D01*
X0121502Y0265455D02*
X0121502Y0265455D01*
X0121101Y0263453D02*
X0309194Y0263453D01*
X0309497Y0261855D02*
X0301506Y0261855D01*
X0301636Y0261801D02*
X0299592Y0262648D01*
X0297379Y0262648D01*
X0295335Y0261801D01*
X0293770Y0260236D01*
X0292923Y0258192D01*
X0292923Y0255979D01*
X0293770Y0253935D01*
X0295335Y0252370D01*
X0297379Y0251523D01*
X0299592Y0251523D01*
X0301636Y0252370D01*
X0303201Y0253935D01*
X0304048Y0255979D01*
X0304048Y0258192D01*
X0303201Y0260236D01*
X0301636Y0261801D01*
X0303181Y0260256D02*
X0309800Y0260256D01*
X0310104Y0258658D02*
X0303855Y0258658D01*
X0304048Y0257059D02*
X0310407Y0257059D01*
X0310710Y0255461D02*
X0303833Y0255461D01*
X0303129Y0253862D02*
X0311013Y0253862D01*
X0311211Y0252264D02*
X0301380Y0252264D01*
X0295591Y0252264D02*
X0134614Y0252264D01*
X0134870Y0252370D02*
X0136435Y0253935D01*
X0137281Y0255979D01*
X0137281Y0258192D01*
X0136435Y0260236D01*
X0134870Y0261801D01*
X0132826Y0262648D01*
X0130613Y0262648D01*
X0128569Y0261801D01*
X0127004Y0260236D01*
X0126157Y0258192D01*
X0126157Y0255979D01*
X0127004Y0253935D01*
X0128569Y0252370D01*
X0130613Y0251523D01*
X0132826Y0251523D01*
X0134870Y0252370D01*
X0136362Y0253862D02*
X0293842Y0253862D01*
X0293138Y0255461D02*
X0137067Y0255461D01*
X0137281Y0257059D02*
X0292923Y0257059D01*
X0293116Y0258658D02*
X0137088Y0258658D01*
X0136414Y0260256D02*
X0293790Y0260256D01*
X0295465Y0261855D02*
X0134739Y0261855D01*
X0128699Y0261855D02*
X0120781Y0261855D01*
X0120462Y0260256D02*
X0127024Y0260256D01*
X0126350Y0258658D02*
X0120142Y0258658D01*
X0119822Y0257059D02*
X0126157Y0257059D01*
X0126372Y0255461D02*
X0119502Y0255461D01*
X0119210Y0253862D02*
X0127076Y0253862D01*
X0128825Y0252264D02*
X0119085Y0252264D01*
X0118961Y0250665D02*
X0311320Y0250665D01*
X0311428Y0249067D02*
X0118837Y0249067D01*
X0118713Y0247468D02*
X0311536Y0247468D01*
X0311644Y0245870D02*
X0118589Y0245870D01*
X0118464Y0244271D02*
X0311752Y0244271D01*
X0311860Y0242673D02*
X0118402Y0242673D01*
X0113602Y0255401D02*
X0113602Y0342602D01*
X0202616Y0342602D01*
X0191267Y0340599D01*
X0179507Y0337030D01*
X0168258Y0332080D01*
X0168258Y0332080D01*
X0157681Y0325821D01*
X0147928Y0318343D01*
X0139140Y0309751D01*
X0131442Y0300171D01*
X0124945Y0289738D01*
X0119742Y0278604D01*
X0115908Y0266928D01*
X0113602Y0255401D01*
X0113602Y0255461D02*
X0113614Y0255461D01*
X0113602Y0257059D02*
X0113934Y0257059D01*
X0114254Y0258658D02*
X0113602Y0258658D01*
X0113602Y0260256D02*
X0114574Y0260256D01*
X0114893Y0261855D02*
X0113602Y0261855D01*
X0113602Y0263453D02*
X0115213Y0263453D01*
X0115533Y0265052D02*
X0113602Y0265052D01*
X0113602Y0266651D02*
X0115853Y0266651D01*
X0116342Y0268249D02*
X0113602Y0268249D01*
X0113602Y0269848D02*
X0116867Y0269848D01*
X0117392Y0271446D02*
X0113602Y0271446D01*
X0113602Y0273045D02*
X0117917Y0273045D01*
X0118442Y0274643D02*
X0113602Y0274643D01*
X0113602Y0276242D02*
X0118966Y0276242D01*
X0119491Y0277840D02*
X0113602Y0277840D01*
X0113602Y0279439D02*
X0120132Y0279439D01*
X0119742Y0278604D02*
X0119742Y0278604D01*
X0120879Y0281037D02*
X0113602Y0281037D01*
X0113602Y0282636D02*
X0121626Y0282636D01*
X0122373Y0284234D02*
X0113602Y0284234D01*
X0113602Y0285833D02*
X0123120Y0285833D01*
X0123867Y0287431D02*
X0113602Y0287431D01*
X0113602Y0289030D02*
X0124614Y0289030D01*
X0124945Y0289738D02*
X0124945Y0289738D01*
X0125499Y0290628D02*
X0113602Y0290628D01*
X0113602Y0292227D02*
X0126495Y0292227D01*
X0127490Y0293825D02*
X0113602Y0293825D01*
X0113602Y0295424D02*
X0128486Y0295424D01*
X0129482Y0297022D02*
X0113602Y0297022D01*
X0113602Y0298621D02*
X0130477Y0298621D01*
X0131442Y0300171D02*
X0131442Y0300171D01*
X0131481Y0300219D02*
X0113602Y0300219D01*
X0113602Y0301818D02*
X0132766Y0301818D01*
X0134050Y0303416D02*
X0113602Y0303416D01*
X0113602Y0305015D02*
X0135335Y0305015D01*
X0136619Y0306613D02*
X0113602Y0306613D01*
X0113602Y0308212D02*
X0137903Y0308212D01*
X0139140Y0309751D02*
X0139140Y0309751D01*
X0139201Y0309810D02*
X0113602Y0309810D01*
X0113602Y0311409D02*
X0140836Y0311409D01*
X0142471Y0313007D02*
X0113602Y0313007D01*
X0113602Y0314606D02*
X0144106Y0314606D01*
X0145741Y0316204D02*
X0113602Y0316204D01*
X0113602Y0317803D02*
X0147376Y0317803D01*
X0147928Y0318343D02*
X0147928Y0318343D01*
X0149309Y0319401D02*
X0113602Y0319401D01*
X0113602Y0321000D02*
X0151394Y0321000D01*
X0153478Y0322598D02*
X0113602Y0322598D01*
X0113602Y0324197D02*
X0155563Y0324197D01*
X0157647Y0325795D02*
X0113602Y0325795D01*
X0113602Y0327394D02*
X0160338Y0327394D01*
X0157681Y0325821D02*
X0157681Y0325821D01*
X0163040Y0328992D02*
X0113602Y0328992D01*
X0113602Y0330591D02*
X0165741Y0330591D01*
X0168506Y0332189D02*
X0113602Y0332189D01*
X0113602Y0333788D02*
X0172139Y0333788D01*
X0175772Y0335387D02*
X0113602Y0335387D01*
X0113602Y0336985D02*
X0179405Y0336985D01*
X0179507Y0337030D02*
X0179507Y0337030D01*
X0183440Y0332189D02*
X0246702Y0332189D01*
X0251134Y0330591D02*
X0179209Y0330591D01*
X0175576Y0328992D02*
X0254671Y0328992D01*
X0258207Y0327394D02*
X0241555Y0327394D01*
X0238583Y0327394D02*
X0191621Y0327394D01*
X0191242Y0327551D02*
X0189029Y0327551D01*
X0186985Y0326704D01*
X0185420Y0325140D01*
X0184573Y0323095D01*
X0184573Y0320883D01*
X0185420Y0318838D01*
X0186985Y0317274D01*
X0189029Y0316427D01*
X0191242Y0316427D01*
X0193286Y0317274D01*
X0194851Y0318838D01*
X0195698Y0320883D01*
X0195698Y0323095D01*
X0194851Y0325140D01*
X0193286Y0326704D01*
X0191242Y0327551D01*
X0188650Y0327394D02*
X0171943Y0327394D01*
X0168974Y0325795D02*
X0186076Y0325795D01*
X0185030Y0324197D02*
X0166273Y0324197D01*
X0163572Y0322598D02*
X0184573Y0322598D01*
X0184573Y0321000D02*
X0160882Y0321000D01*
X0158797Y0319401D02*
X0185187Y0319401D01*
X0186455Y0317803D02*
X0156713Y0317803D01*
X0153962Y0298621D02*
X0276243Y0298621D01*
X0275320Y0297022D02*
X0154885Y0297022D01*
X0155254Y0295424D02*
X0274951Y0295424D01*
X0274990Y0293825D02*
X0155215Y0293825D01*
X0154553Y0292227D02*
X0275652Y0292227D01*
X0277044Y0290628D02*
X0153161Y0290628D01*
X0193816Y0317803D02*
X0236389Y0317803D01*
X0235121Y0319401D02*
X0195084Y0319401D01*
X0195698Y0321000D02*
X0234507Y0321000D01*
X0234507Y0322598D02*
X0195698Y0322598D01*
X0195241Y0324197D02*
X0234963Y0324197D01*
X0236010Y0325795D02*
X0194195Y0325795D01*
X0194954Y0335387D02*
X0235137Y0335387D01*
X0241618Y0333788D02*
X0188707Y0333788D01*
X0184627Y0338584D02*
X0113602Y0338584D01*
X0113602Y0340182D02*
X0189895Y0340182D01*
X0191267Y0340599D02*
X0191267Y0340599D01*
X0197961Y0341781D02*
X0113602Y0341781D01*
X0204008Y0336985D02*
X0225465Y0336985D01*
X0227959Y0342602D02*
X0468352Y0342602D01*
X0468352Y0337152D01*
X0322263Y0337152D01*
X0321659Y0337402D01*
X0249372Y0337402D01*
X0239986Y0340354D01*
X0227959Y0342602D01*
X0232354Y0341781D02*
X0468352Y0341781D01*
X0468352Y0340182D02*
X0240532Y0340182D01*
X0239986Y0340354D02*
X0239986Y0340354D01*
X0245616Y0338584D02*
X0468352Y0338584D01*
X0466302Y0331552D02*
X0466302Y0304956D01*
X0465803Y0306161D01*
X0463911Y0308053D01*
X0461440Y0309077D01*
X0458765Y0309077D01*
X0456293Y0308053D01*
X0454402Y0306161D01*
X0453378Y0303690D01*
X0453378Y0301015D01*
X0454402Y0298543D01*
X0456293Y0296652D01*
X0458765Y0295628D01*
X0461440Y0295628D01*
X0463911Y0296652D01*
X0465803Y0298543D01*
X0466302Y0299749D01*
X0466302Y0273402D01*
X0394545Y0273402D01*
X0393516Y0272976D01*
X0392852Y0272312D01*
X0392188Y0272976D01*
X0391159Y0273402D01*
X0321652Y0273402D01*
X0321652Y0298293D01*
X0323293Y0296652D01*
X0325765Y0295628D01*
X0328440Y0295628D01*
X0330911Y0296652D01*
X0332803Y0298543D01*
X0333827Y0301015D01*
X0333827Y0303690D01*
X0332803Y0306161D01*
X0330911Y0308053D01*
X0328440Y0309077D01*
X0325765Y0309077D01*
X0323293Y0308053D01*
X0321652Y0306412D01*
X0321652Y0331552D01*
X0466302Y0331552D01*
X0466302Y0330591D02*
X0321652Y0330591D01*
X0321652Y0328992D02*
X0466302Y0328992D01*
X0466302Y0327394D02*
X0321652Y0327394D01*
X0321652Y0325795D02*
X0466302Y0325795D01*
X0466302Y0324197D02*
X0321652Y0324197D01*
X0321652Y0322598D02*
X0466302Y0322598D01*
X0466302Y0321000D02*
X0321652Y0321000D01*
X0321652Y0319401D02*
X0466302Y0319401D01*
X0466302Y0317803D02*
X0321652Y0317803D01*
X0321652Y0316204D02*
X0466302Y0316204D01*
X0466302Y0314606D02*
X0321652Y0314606D01*
X0321652Y0313007D02*
X0466302Y0313007D01*
X0466302Y0311409D02*
X0321652Y0311409D01*
X0321652Y0309810D02*
X0466302Y0309810D01*
X0466302Y0308212D02*
X0463528Y0308212D01*
X0465351Y0306613D02*
X0466302Y0306613D01*
X0466278Y0305015D02*
X0466302Y0305015D01*
X0466302Y0298621D02*
X0465835Y0298621D01*
X0466302Y0297022D02*
X0464282Y0297022D01*
X0466302Y0295424D02*
X0321652Y0295424D01*
X0321652Y0297022D02*
X0322923Y0297022D01*
X0321652Y0293825D02*
X0466302Y0293825D01*
X0466302Y0292227D02*
X0321652Y0292227D01*
X0321652Y0290628D02*
X0466302Y0290628D01*
X0466302Y0289030D02*
X0321652Y0289030D01*
X0321652Y0287431D02*
X0466302Y0287431D01*
X0466302Y0285833D02*
X0321652Y0285833D01*
X0321652Y0284234D02*
X0466302Y0284234D01*
X0466302Y0282636D02*
X0451744Y0282636D01*
X0451076Y0283303D02*
X0449147Y0284102D01*
X0447058Y0284102D01*
X0445128Y0283303D01*
X0443652Y0281826D01*
X0443102Y0280500D01*
X0442553Y0281826D01*
X0441076Y0283303D01*
X0439147Y0284102D01*
X0437058Y0284102D01*
X0435128Y0283303D01*
X0433652Y0281826D01*
X0433102Y0280500D01*
X0432553Y0281826D01*
X0431076Y0283303D01*
X0429147Y0284102D01*
X0427058Y0284102D01*
X0425128Y0283303D01*
X0423652Y0281826D01*
X0423102Y0280500D01*
X0422553Y0281826D01*
X0421076Y0283303D01*
X0419147Y0284102D01*
X0417058Y0284102D01*
X0415128Y0283303D01*
X0413652Y0281826D01*
X0413102Y0280500D01*
X0412553Y0281826D01*
X0411076Y0283303D01*
X0409147Y0284102D01*
X0407058Y0284102D01*
X0405128Y0283303D01*
X0403652Y0281826D01*
X0403352Y0281104D01*
X0403352Y0282931D01*
X0402181Y0284102D01*
X0394024Y0284102D01*
X0392852Y0282931D01*
X0392852Y0281104D01*
X0392553Y0281826D01*
X0391076Y0283303D01*
X0389147Y0284102D01*
X0387058Y0284102D01*
X0385128Y0283303D01*
X0383652Y0281826D01*
X0383102Y0280500D01*
X0382553Y0281826D01*
X0381076Y0283303D01*
X0379147Y0284102D01*
X0377058Y0284102D01*
X0375128Y0283303D01*
X0373652Y0281826D01*
X0373102Y0280500D01*
X0372553Y0281826D01*
X0371076Y0283303D01*
X0369147Y0284102D01*
X0367058Y0284102D01*
X0365128Y0283303D01*
X0363652Y0281826D01*
X0363102Y0280500D01*
X0362553Y0281826D01*
X0361076Y0283303D01*
X0359147Y0284102D01*
X0357058Y0284102D01*
X0355128Y0283303D01*
X0353652Y0281826D01*
X0353102Y0280500D01*
X0352553Y0281826D01*
X0351076Y0283303D01*
X0349147Y0284102D01*
X0347058Y0284102D01*
X0345128Y0283303D01*
X0343652Y0281826D01*
X0343352Y0281104D01*
X0343352Y0282931D01*
X0342181Y0284102D01*
X0334024Y0284102D01*
X0332852Y0282931D01*
X0332852Y0274774D01*
X0334024Y0273602D01*
X0342181Y0273602D01*
X0343352Y0274774D01*
X0343352Y0276601D01*
X0343652Y0275878D01*
X0345128Y0274402D01*
X0347058Y0273602D01*
X0349147Y0273602D01*
X0351076Y0274402D01*
X0352553Y0275878D01*
X0353102Y0277205D01*
X0353652Y0275878D01*
X0355128Y0274402D01*
X0357058Y0273602D01*
X0359147Y0273602D01*
X0361076Y0274402D01*
X0362553Y0275878D01*
X0363102Y0277205D01*
X0363652Y0275878D01*
X0365128Y0274402D01*
X0367058Y0273602D01*
X0369147Y0273602D01*
X0371076Y0274402D01*
X0372553Y0275878D01*
X0373102Y0277205D01*
X0373652Y0275878D01*
X0375128Y0274402D01*
X0377058Y0273602D01*
X0379147Y0273602D01*
X0381076Y0274402D01*
X0382553Y0275878D01*
X0383102Y0277205D01*
X0383652Y0275878D01*
X0385128Y0274402D01*
X0387058Y0273602D01*
X0389147Y0273602D01*
X0391076Y0274402D01*
X0392553Y0275878D01*
X0392852Y0276601D01*
X0392852Y0274774D01*
X0394024Y0273602D01*
X0402181Y0273602D01*
X0403352Y0274774D01*
X0403352Y0276601D01*
X0403652Y0275878D01*
X0405128Y0274402D01*
X0407058Y0273602D01*
X0409147Y0273602D01*
X0411076Y0274402D01*
X0412553Y0275878D01*
X0413102Y0277205D01*
X0413652Y0275878D01*
X0415128Y0274402D01*
X0417058Y0273602D01*
X0419147Y0273602D01*
X0421076Y0274402D01*
X0422553Y0275878D01*
X0423102Y0277205D01*
X0423652Y0275878D01*
X0425128Y0274402D01*
X0427058Y0273602D01*
X0429147Y0273602D01*
X0431076Y0274402D01*
X0432553Y0275878D01*
X0433102Y0277205D01*
X0433652Y0275878D01*
X0435128Y0274402D01*
X0437058Y0273602D01*
X0439147Y0273602D01*
X0441076Y0274402D01*
X0442553Y0275878D01*
X0443102Y0277205D01*
X0443652Y0275878D01*
X0445128Y0274402D01*
X0447058Y0273602D01*
X0449147Y0273602D01*
X0451076Y0274402D01*
X0452553Y0275878D01*
X0453352Y0277808D01*
X0453352Y0279897D01*
X0452553Y0281826D01*
X0451076Y0283303D01*
X0452880Y0281037D02*
X0466302Y0281037D01*
X0466302Y0279439D02*
X0453352Y0279439D01*
X0453352Y0277840D02*
X0466302Y0277840D01*
X0466302Y0276242D02*
X0452703Y0276242D01*
X0451318Y0274643D02*
X0466302Y0274643D01*
X0466302Y0267802D02*
X0466302Y0263402D01*
X0321652Y0263402D01*
X0321652Y0267802D01*
X0391159Y0267802D01*
X0392188Y0268229D01*
X0392852Y0268893D01*
X0393516Y0268229D01*
X0394545Y0267802D01*
X0466302Y0267802D01*
X0466302Y0266651D02*
X0321652Y0266651D01*
X0321652Y0265052D02*
X0466302Y0265052D01*
X0466302Y0263453D02*
X0321652Y0263453D01*
X0321652Y0274643D02*
X0332983Y0274643D01*
X0332852Y0276242D02*
X0321652Y0276242D01*
X0321652Y0277840D02*
X0332852Y0277840D01*
X0332852Y0279439D02*
X0321652Y0279439D01*
X0321652Y0281037D02*
X0332852Y0281037D01*
X0332852Y0282636D02*
X0321652Y0282636D01*
X0331282Y0297022D02*
X0455923Y0297022D01*
X0454370Y0298621D02*
X0332835Y0298621D01*
X0333497Y0300219D02*
X0453707Y0300219D01*
X0453378Y0301818D02*
X0333827Y0301818D01*
X0333827Y0303416D02*
X0453378Y0303416D01*
X0453927Y0305015D02*
X0333278Y0305015D01*
X0332351Y0306613D02*
X0454854Y0306613D01*
X0456677Y0308212D02*
X0330528Y0308212D01*
X0323677Y0308212D02*
X0321652Y0308212D01*
X0321652Y0306613D02*
X0321854Y0306613D01*
X0343352Y0282636D02*
X0344461Y0282636D01*
X0343501Y0276242D02*
X0343352Y0276242D01*
X0343221Y0274643D02*
X0344887Y0274643D01*
X0351318Y0274643D02*
X0354887Y0274643D01*
X0353501Y0276242D02*
X0352703Y0276242D01*
X0352880Y0281037D02*
X0353325Y0281037D01*
X0354461Y0282636D02*
X0351744Y0282636D01*
X0361744Y0282636D02*
X0364461Y0282636D01*
X0363325Y0281037D02*
X0362880Y0281037D01*
X0362703Y0276242D02*
X0363501Y0276242D01*
X0364887Y0274643D02*
X0361318Y0274643D01*
X0371318Y0274643D02*
X0374887Y0274643D01*
X0373501Y0276242D02*
X0372703Y0276242D01*
X0372880Y0281037D02*
X0373325Y0281037D01*
X0374461Y0282636D02*
X0371744Y0282636D01*
X0381744Y0282636D02*
X0384461Y0282636D01*
X0383325Y0281037D02*
X0382880Y0281037D01*
X0382703Y0276242D02*
X0383501Y0276242D01*
X0384887Y0274643D02*
X0381318Y0274643D01*
X0391318Y0274643D02*
X0392983Y0274643D01*
X0392852Y0276242D02*
X0392703Y0276242D01*
X0392023Y0273045D02*
X0393682Y0273045D01*
X0393496Y0268249D02*
X0392209Y0268249D01*
X0403221Y0274643D02*
X0404887Y0274643D01*
X0403501Y0276242D02*
X0403352Y0276242D01*
X0403352Y0282636D02*
X0404461Y0282636D01*
X0411744Y0282636D02*
X0414461Y0282636D01*
X0413325Y0281037D02*
X0412880Y0281037D01*
X0412703Y0276242D02*
X0413501Y0276242D01*
X0414887Y0274643D02*
X0411318Y0274643D01*
X0421318Y0274643D02*
X0424887Y0274643D01*
X0423501Y0276242D02*
X0422703Y0276242D01*
X0422880Y0281037D02*
X0423325Y0281037D01*
X0424461Y0282636D02*
X0421744Y0282636D01*
X0431744Y0282636D02*
X0434461Y0282636D01*
X0433325Y0281037D02*
X0432880Y0281037D01*
X0432703Y0276242D02*
X0433501Y0276242D01*
X0434887Y0274643D02*
X0431318Y0274643D01*
X0441318Y0274643D02*
X0444887Y0274643D01*
X0443501Y0276242D02*
X0442703Y0276242D01*
X0442880Y0281037D02*
X0443325Y0281037D01*
X0444461Y0282636D02*
X0441744Y0282636D01*
X0392852Y0282636D02*
X0391744Y0282636D01*
X0331883Y0233082D02*
X0455322Y0233082D01*
X0454121Y0231483D02*
X0333084Y0231483D01*
X0333746Y0229885D02*
X0453459Y0229885D01*
X0453378Y0228286D02*
X0333827Y0228286D01*
X0333691Y0226688D02*
X0453513Y0226688D01*
X0454176Y0225089D02*
X0333029Y0225089D01*
X0331750Y0223491D02*
X0455454Y0223491D01*
X0458127Y0221892D02*
X0329078Y0221892D01*
X0325127Y0221892D02*
X0321652Y0221892D01*
X0321652Y0220294D02*
X0466302Y0220294D01*
X0466302Y0221892D02*
X0462078Y0221892D01*
X0464750Y0223491D02*
X0466302Y0223491D01*
X0466302Y0225089D02*
X0466029Y0225089D01*
X0466302Y0218695D02*
X0321652Y0218695D01*
X0321652Y0217097D02*
X0466302Y0217097D01*
X0466302Y0215498D02*
X0321652Y0215498D01*
X0321652Y0213900D02*
X0466302Y0213900D01*
X0466302Y0212301D02*
X0321652Y0212301D01*
X0321652Y0210703D02*
X0466302Y0210703D01*
X0466302Y0209104D02*
X0451275Y0209104D01*
X0452686Y0207506D02*
X0466302Y0207506D01*
X0466302Y0205907D02*
X0453348Y0205907D01*
X0453352Y0204309D02*
X0466302Y0204309D01*
X0466302Y0202710D02*
X0452898Y0202710D01*
X0451786Y0201112D02*
X0466302Y0201112D01*
X0466302Y0194302D02*
X0466302Y0189652D01*
X0321652Y0189652D01*
X0321652Y0194302D01*
X0391909Y0194302D01*
X0392938Y0194729D01*
X0393726Y0195516D01*
X0393977Y0196123D01*
X0394229Y0195516D01*
X0395016Y0194729D01*
X0396045Y0194302D01*
X0466302Y0194302D01*
X0466302Y0193119D02*
X0321652Y0193119D01*
X0321652Y0191520D02*
X0466302Y0191520D01*
X0466302Y0189922D02*
X0321652Y0189922D01*
X0316052Y0189922D02*
X0314626Y0189922D01*
X0314946Y0191520D02*
X0316052Y0191520D01*
X0316052Y0193119D02*
X0315265Y0193119D01*
X0315585Y0194718D02*
X0316052Y0194718D01*
X0316052Y0196316D02*
X0315905Y0196316D01*
X0316052Y0197054D02*
X0316052Y0125902D01*
X0266641Y0125902D01*
X0272524Y0129383D01*
X0282276Y0136862D01*
X0282276Y0136862D01*
X0291064Y0145453D01*
X0291064Y0145453D01*
X0291064Y0145453D01*
X0298762Y0155034D01*
X0305259Y0165466D01*
X0305259Y0165466D01*
X0310462Y0176600D01*
X0310462Y0176600D01*
X0314297Y0188277D01*
X0316052Y0197054D01*
X0310336Y0197915D02*
X0304115Y0197915D01*
X0304115Y0197597D02*
X0303268Y0195553D01*
X0301703Y0193988D01*
X0299659Y0193142D01*
X0297446Y0193142D01*
X0295402Y0193988D01*
X0293837Y0195553D01*
X0292990Y0197597D01*
X0292990Y0199810D01*
X0293837Y0201855D01*
X0295402Y0203419D01*
X0297446Y0204266D01*
X0299659Y0204266D01*
X0301703Y0203419D01*
X0303268Y0201855D01*
X0304115Y0199810D01*
X0304115Y0197597D01*
X0303584Y0196316D02*
X0310017Y0196316D01*
X0309697Y0194718D02*
X0302432Y0194718D01*
X0294673Y0194718D02*
X0201805Y0194718D01*
X0203121Y0196316D02*
X0293521Y0196316D01*
X0292990Y0197915D02*
X0204437Y0197915D01*
X0205753Y0199513D02*
X0292990Y0199513D01*
X0293529Y0201112D02*
X0207069Y0201112D01*
X0208385Y0202710D02*
X0294692Y0202710D01*
X0302412Y0202710D02*
X0311101Y0202710D01*
X0310978Y0201121D02*
X0308703Y0189749D01*
X0305085Y0178731D01*
X0300175Y0168224D01*
X0294044Y0158380D01*
X0286781Y0149340D01*
X0278488Y0141233D01*
X0269285Y0134176D01*
X0259305Y0128270D01*
X0248690Y0123599D01*
X0237592Y0120232D01*
X0226172Y0118215D01*
X0214592Y0117579D01*
X0207102Y0118066D01*
X0205165Y0128635D01*
X0205165Y0128635D01*
X0201407Y0140695D01*
X0196223Y0152213D01*
X0196223Y0152213D01*
X0189688Y0163023D01*
X0182874Y0171722D01*
X0215109Y0210878D01*
X0216013Y0210878D01*
X0216208Y0211072D01*
X0217128Y0210152D01*
X0219058Y0209352D01*
X0221147Y0209352D01*
X0223076Y0210152D01*
X0224553Y0211628D01*
X0225102Y0212955D01*
X0225652Y0211628D01*
X0227128Y0210152D01*
X0229058Y0209352D01*
X0231147Y0209352D01*
X0233076Y0210152D01*
X0234553Y0211628D01*
X0234852Y0212351D01*
X0234852Y0210524D01*
X0236024Y0209352D01*
X0244181Y0209352D01*
X0245352Y0210524D01*
X0245352Y0218681D01*
X0244481Y0219552D01*
X0311802Y0219552D01*
X0311802Y0219098D01*
X0311781Y0219040D01*
X0311802Y0218543D01*
X0311802Y0215795D01*
X0311839Y0215707D01*
X0311876Y0212683D01*
X0310978Y0201121D01*
X0310976Y0201112D02*
X0303576Y0201112D01*
X0304115Y0199513D02*
X0310656Y0199513D01*
X0311226Y0204309D02*
X0209701Y0204309D01*
X0211017Y0205907D02*
X0311350Y0205907D01*
X0311474Y0207506D02*
X0212333Y0207506D01*
X0213649Y0209104D02*
X0311598Y0209104D01*
X0311722Y0210703D02*
X0245352Y0210703D01*
X0245352Y0212301D02*
X0311847Y0212301D01*
X0311861Y0213900D02*
X0245352Y0213900D01*
X0245352Y0215498D02*
X0311842Y0215498D01*
X0311802Y0217097D02*
X0245352Y0217097D01*
X0245338Y0218695D02*
X0311796Y0218695D01*
X0315312Y0225089D02*
X0316052Y0225089D01*
X0321652Y0223491D02*
X0322454Y0223491D01*
X0329397Y0234680D02*
X0457808Y0234680D01*
X0462397Y0234680D02*
X0466302Y0234680D01*
X0466302Y0233082D02*
X0464883Y0233082D01*
X0466084Y0231483D02*
X0466302Y0231483D01*
X0444929Y0209104D02*
X0441275Y0209104D01*
X0442686Y0207506D02*
X0443519Y0207506D01*
X0443102Y0203205D02*
X0443652Y0201878D01*
X0445128Y0200402D01*
X0446334Y0199902D01*
X0439871Y0199902D01*
X0441076Y0200402D01*
X0442553Y0201878D01*
X0443102Y0203205D01*
X0442898Y0202710D02*
X0443307Y0202710D01*
X0444419Y0201112D02*
X0441786Y0201112D01*
X0436334Y0199902D02*
X0429871Y0199902D01*
X0431076Y0200402D01*
X0432553Y0201878D01*
X0433102Y0203205D01*
X0433652Y0201878D01*
X0435128Y0200402D01*
X0436334Y0199902D01*
X0434419Y0201112D02*
X0431786Y0201112D01*
X0432898Y0202710D02*
X0433307Y0202710D01*
X0426334Y0199902D02*
X0419871Y0199902D01*
X0421076Y0200402D01*
X0422553Y0201878D01*
X0423102Y0203205D01*
X0423652Y0201878D01*
X0425128Y0200402D01*
X0426334Y0199902D01*
X0424419Y0201112D02*
X0421786Y0201112D01*
X0422898Y0202710D02*
X0423307Y0202710D01*
X0416334Y0199902D02*
X0409871Y0199902D01*
X0411076Y0200402D01*
X0412553Y0201878D01*
X0413102Y0203205D01*
X0413652Y0201878D01*
X0415128Y0200402D01*
X0416334Y0199902D01*
X0414419Y0201112D02*
X0411786Y0201112D01*
X0412898Y0202710D02*
X0413307Y0202710D01*
X0413519Y0207506D02*
X0412686Y0207506D01*
X0411275Y0209104D02*
X0414929Y0209104D01*
X0421275Y0209104D02*
X0424929Y0209104D01*
X0423519Y0207506D02*
X0422686Y0207506D01*
X0431275Y0209104D02*
X0434929Y0209104D01*
X0433519Y0207506D02*
X0432686Y0207506D01*
X0406334Y0199902D02*
X0402481Y0199902D01*
X0403352Y0200774D01*
X0403352Y0202601D01*
X0403652Y0201878D01*
X0405128Y0200402D01*
X0406334Y0199902D01*
X0404419Y0201112D02*
X0403352Y0201112D01*
X0403352Y0207506D02*
X0403519Y0207506D01*
X0403179Y0209104D02*
X0404929Y0209104D01*
X0393026Y0209104D02*
X0391275Y0209104D01*
X0392686Y0207506D02*
X0392852Y0207506D01*
X0392852Y0202601D02*
X0392852Y0200774D01*
X0394024Y0199602D01*
X0395321Y0199602D01*
X0395016Y0199476D01*
X0394229Y0198688D01*
X0393977Y0198082D01*
X0393726Y0198688D01*
X0392938Y0199476D01*
X0391909Y0199902D01*
X0389871Y0199902D01*
X0391076Y0200402D01*
X0392553Y0201878D01*
X0392852Y0202601D01*
X0392852Y0201112D02*
X0391786Y0201112D01*
X0392849Y0199513D02*
X0395106Y0199513D01*
X0395043Y0194718D02*
X0392912Y0194718D01*
X0386334Y0199902D02*
X0379871Y0199902D01*
X0381076Y0200402D01*
X0382553Y0201878D01*
X0383102Y0203205D01*
X0383652Y0201878D01*
X0385128Y0200402D01*
X0386334Y0199902D01*
X0384419Y0201112D02*
X0381786Y0201112D01*
X0382898Y0202710D02*
X0383307Y0202710D01*
X0383519Y0207506D02*
X0382686Y0207506D01*
X0381275Y0209104D02*
X0384929Y0209104D01*
X0374929Y0209104D02*
X0371275Y0209104D01*
X0372686Y0207506D02*
X0373519Y0207506D01*
X0373102Y0203205D02*
X0373652Y0201878D01*
X0375128Y0200402D01*
X0376334Y0199902D01*
X0369871Y0199902D01*
X0371076Y0200402D01*
X0372553Y0201878D01*
X0373102Y0203205D01*
X0372898Y0202710D02*
X0373307Y0202710D01*
X0374419Y0201112D02*
X0371786Y0201112D01*
X0366334Y0199902D02*
X0359871Y0199902D01*
X0361076Y0200402D01*
X0362553Y0201878D01*
X0363102Y0203205D01*
X0363652Y0201878D01*
X0365128Y0200402D01*
X0366334Y0199902D01*
X0364419Y0201112D02*
X0361786Y0201112D01*
X0362898Y0202710D02*
X0363307Y0202710D01*
X0356334Y0199902D02*
X0349871Y0199902D01*
X0351076Y0200402D01*
X0352553Y0201878D01*
X0353102Y0203205D01*
X0353652Y0201878D01*
X0355128Y0200402D01*
X0356334Y0199902D01*
X0354419Y0201112D02*
X0351786Y0201112D01*
X0352898Y0202710D02*
X0353307Y0202710D01*
X0346334Y0199902D02*
X0342481Y0199902D01*
X0343352Y0200774D01*
X0343352Y0202601D01*
X0343652Y0201878D01*
X0345128Y0200402D01*
X0346334Y0199902D01*
X0344419Y0201112D02*
X0343352Y0201112D01*
X0343352Y0207506D02*
X0343519Y0207506D01*
X0343179Y0209104D02*
X0344929Y0209104D01*
X0351275Y0209104D02*
X0354929Y0209104D01*
X0353519Y0207506D02*
X0352686Y0207506D01*
X0361275Y0209104D02*
X0364929Y0209104D01*
X0363519Y0207506D02*
X0362686Y0207506D01*
X0333026Y0209104D02*
X0321652Y0209104D01*
X0321652Y0207506D02*
X0332852Y0207506D01*
X0332852Y0205907D02*
X0321652Y0205907D01*
X0321652Y0204309D02*
X0332852Y0204309D01*
X0332852Y0202710D02*
X0321652Y0202710D01*
X0321652Y0201112D02*
X0332852Y0201112D01*
X0316052Y0188323D02*
X0314306Y0188323D01*
X0314297Y0188277D02*
X0314297Y0188277D01*
X0313787Y0186725D02*
X0316052Y0186725D01*
X0316052Y0185126D02*
X0313262Y0185126D01*
X0312737Y0183528D02*
X0316052Y0183528D01*
X0316052Y0181929D02*
X0312212Y0181929D01*
X0311687Y0180331D02*
X0316052Y0180331D01*
X0316052Y0178732D02*
X0311162Y0178732D01*
X0310638Y0177134D02*
X0316052Y0177134D01*
X0316052Y0175535D02*
X0309965Y0175535D01*
X0309218Y0173937D02*
X0316052Y0173937D01*
X0316052Y0172338D02*
X0308471Y0172338D01*
X0307724Y0170740D02*
X0316052Y0170740D01*
X0316052Y0169141D02*
X0306977Y0169141D01*
X0306230Y0167543D02*
X0316052Y0167543D01*
X0316052Y0165944D02*
X0305483Y0165944D01*
X0304562Y0164346D02*
X0316052Y0164346D01*
X0316052Y0162747D02*
X0303566Y0162747D01*
X0302571Y0161149D02*
X0316052Y0161149D01*
X0316052Y0159550D02*
X0301575Y0159550D01*
X0300579Y0157952D02*
X0316052Y0157952D01*
X0316052Y0156353D02*
X0299584Y0156353D01*
X0298762Y0155034D02*
X0298762Y0155034D01*
X0298538Y0154755D02*
X0316052Y0154755D01*
X0316052Y0153156D02*
X0297254Y0153156D01*
X0295969Y0151558D02*
X0316052Y0151558D01*
X0316052Y0149959D02*
X0294685Y0149959D01*
X0293400Y0148361D02*
X0316052Y0148361D01*
X0316052Y0146762D02*
X0292116Y0146762D01*
X0290768Y0145164D02*
X0316052Y0145164D01*
X0316052Y0143565D02*
X0289133Y0143565D01*
X0287498Y0141967D02*
X0316052Y0141967D01*
X0316052Y0140368D02*
X0285863Y0140368D01*
X0284227Y0138770D02*
X0316052Y0138770D01*
X0316052Y0137171D02*
X0282592Y0137171D01*
X0280595Y0135573D02*
X0316052Y0135573D01*
X0316052Y0133974D02*
X0278510Y0133974D01*
X0276426Y0132376D02*
X0316052Y0132376D01*
X0316052Y0130777D02*
X0274341Y0130777D01*
X0272524Y0129383D02*
X0272524Y0129383D01*
X0272178Y0129179D02*
X0316052Y0129179D01*
X0316052Y0127580D02*
X0269476Y0127580D01*
X0266775Y0125982D02*
X0316052Y0125982D01*
X0321652Y0125982D02*
X0333645Y0125982D01*
X0333724Y0125902D02*
X0321652Y0125902D01*
X0321652Y0150293D01*
X0323293Y0148652D01*
X0325765Y0147628D01*
X0328440Y0147628D01*
X0330911Y0148652D01*
X0332803Y0150543D01*
X0333827Y0153015D01*
X0333827Y0155690D01*
X0332803Y0158161D01*
X0330911Y0160053D01*
X0328440Y0161077D01*
X0325765Y0161077D01*
X0323293Y0160053D01*
X0321652Y0158412D01*
X0321652Y0184052D01*
X0466302Y0184052D01*
X0466302Y0156956D01*
X0465803Y0158161D01*
X0463911Y0160053D01*
X0461440Y0161077D01*
X0458765Y0161077D01*
X0456293Y0160053D01*
X0454402Y0158161D01*
X0453378Y0155690D01*
X0453378Y0153015D01*
X0454402Y0150543D01*
X0456293Y0148652D01*
X0458765Y0147628D01*
X0461440Y0147628D01*
X0463911Y0148652D01*
X0465803Y0150543D01*
X0466302Y0151749D01*
X0466302Y0125902D01*
X0449871Y0125902D01*
X0451076Y0126402D01*
X0452553Y0127878D01*
X0453352Y0129808D01*
X0453352Y0131897D01*
X0452553Y0133826D01*
X0451076Y0135303D01*
X0449147Y0136102D01*
X0447058Y0136102D01*
X0445128Y0135303D01*
X0443652Y0133826D01*
X0443102Y0132500D01*
X0442553Y0133826D01*
X0441076Y0135303D01*
X0439147Y0136102D01*
X0437058Y0136102D01*
X0435128Y0135303D01*
X0433652Y0133826D01*
X0433102Y0132500D01*
X0432553Y0133826D01*
X0431076Y0135303D01*
X0429147Y0136102D01*
X0427058Y0136102D01*
X0425128Y0135303D01*
X0423652Y0133826D01*
X0423102Y0132500D01*
X0422553Y0133826D01*
X0421076Y0135303D01*
X0419147Y0136102D01*
X0417058Y0136102D01*
X0415128Y0135303D01*
X0413652Y0133826D01*
X0413102Y0132500D01*
X0412553Y0133826D01*
X0411076Y0135303D01*
X0409147Y0136102D01*
X0407058Y0136102D01*
X0405128Y0135303D01*
X0403652Y0133826D01*
X0403352Y0133104D01*
X0403352Y0134931D01*
X0402181Y0136102D01*
X0394024Y0136102D01*
X0392852Y0134931D01*
X0392852Y0133104D01*
X0392553Y0133826D01*
X0391076Y0135303D01*
X0389147Y0136102D01*
X0387058Y0136102D01*
X0385128Y0135303D01*
X0383652Y0133826D01*
X0383102Y0132500D01*
X0382553Y0133826D01*
X0381076Y0135303D01*
X0379147Y0136102D01*
X0377058Y0136102D01*
X0375128Y0135303D01*
X0373652Y0133826D01*
X0373102Y0132500D01*
X0372553Y0133826D01*
X0371076Y0135303D01*
X0369147Y0136102D01*
X0367058Y0136102D01*
X0365128Y0135303D01*
X0363652Y0133826D01*
X0363102Y0132500D01*
X0362553Y0133826D01*
X0361076Y0135303D01*
X0359147Y0136102D01*
X0357058Y0136102D01*
X0355128Y0135303D01*
X0353652Y0133826D01*
X0353102Y0132500D01*
X0352553Y0133826D01*
X0351076Y0135303D01*
X0349147Y0136102D01*
X0347058Y0136102D01*
X0345128Y0135303D01*
X0343652Y0133826D01*
X0343352Y0133104D01*
X0343352Y0134931D01*
X0342181Y0136102D01*
X0334024Y0136102D01*
X0332852Y0134931D01*
X0332852Y0126774D01*
X0333724Y0125902D01*
X0332852Y0127580D02*
X0321652Y0127580D01*
X0321652Y0129179D02*
X0332852Y0129179D01*
X0332852Y0130777D02*
X0321652Y0130777D01*
X0321652Y0132376D02*
X0332852Y0132376D01*
X0332852Y0133974D02*
X0321652Y0133974D01*
X0321652Y0135573D02*
X0333494Y0135573D01*
X0342711Y0135573D02*
X0345779Y0135573D01*
X0343799Y0133974D02*
X0343352Y0133974D01*
X0343352Y0128601D02*
X0343652Y0127878D01*
X0345128Y0126402D01*
X0346334Y0125902D01*
X0342481Y0125902D01*
X0343352Y0126774D01*
X0343352Y0128601D01*
X0343352Y0127580D02*
X0343950Y0127580D01*
X0342560Y0125982D02*
X0346143Y0125982D01*
X0349871Y0125902D02*
X0356334Y0125902D01*
X0355128Y0126402D01*
X0353652Y0127878D01*
X0353102Y0129205D01*
X0352553Y0127878D01*
X0351076Y0126402D01*
X0349871Y0125902D01*
X0350062Y0125982D02*
X0356143Y0125982D01*
X0353950Y0127580D02*
X0352255Y0127580D01*
X0353092Y0129179D02*
X0353113Y0129179D01*
X0353799Y0133974D02*
X0352405Y0133974D01*
X0350426Y0135573D02*
X0355779Y0135573D01*
X0360426Y0135573D02*
X0365779Y0135573D01*
X0363799Y0133974D02*
X0362405Y0133974D01*
X0363102Y0129205D02*
X0363652Y0127878D01*
X0365128Y0126402D01*
X0366334Y0125902D01*
X0359871Y0125902D01*
X0361076Y0126402D01*
X0362553Y0127878D01*
X0363102Y0129205D01*
X0363092Y0129179D02*
X0363113Y0129179D01*
X0363950Y0127580D02*
X0362255Y0127580D01*
X0360062Y0125982D02*
X0366143Y0125982D01*
X0369871Y0125902D02*
X0376334Y0125902D01*
X0375128Y0126402D01*
X0373652Y0127878D01*
X0373102Y0129205D01*
X0372553Y0127878D01*
X0371076Y0126402D01*
X0369871Y0125902D01*
X0370062Y0125982D02*
X0376143Y0125982D01*
X0373950Y0127580D02*
X0372255Y0127580D01*
X0373092Y0129179D02*
X0373113Y0129179D01*
X0373799Y0133974D02*
X0372405Y0133974D01*
X0370426Y0135573D02*
X0375779Y0135573D01*
X0380426Y0135573D02*
X0385779Y0135573D01*
X0383799Y0133974D02*
X0382405Y0133974D01*
X0383102Y0129205D02*
X0383652Y0127878D01*
X0385128Y0126402D01*
X0386334Y0125902D01*
X0379871Y0125902D01*
X0381076Y0126402D01*
X0382553Y0127878D01*
X0383102Y0129205D01*
X0383092Y0129179D02*
X0383113Y0129179D01*
X0383950Y0127580D02*
X0382255Y0127580D01*
X0380062Y0125982D02*
X0386143Y0125982D01*
X0389871Y0125902D02*
X0391076Y0126402D01*
X0392553Y0127878D01*
X0392852Y0128601D01*
X0392852Y0126774D01*
X0394024Y0125602D01*
X0395071Y0125602D01*
X0394766Y0125476D01*
X0393979Y0124688D01*
X0393602Y0123780D01*
X0393226Y0124688D01*
X0392438Y0125476D01*
X0391409Y0125902D01*
X0389871Y0125902D01*
X0390062Y0125982D02*
X0393645Y0125982D01*
X0393852Y0124383D02*
X0393353Y0124383D01*
X0393602Y0122425D02*
X0393979Y0121516D01*
X0394766Y0120729D01*
X0395795Y0120302D01*
X0468352Y0120302D01*
X0468352Y0113855D01*
X0468561Y0113352D01*
X0231837Y0113352D01*
X0238937Y0114606D01*
X0238937Y0114606D01*
X0250698Y0118175D01*
X0255533Y0120302D01*
X0391409Y0120302D01*
X0392438Y0120729D01*
X0393226Y0121516D01*
X0393602Y0122425D01*
X0392896Y0121186D02*
X0394309Y0121186D01*
X0392852Y0127580D02*
X0392255Y0127580D01*
X0392405Y0133974D02*
X0392852Y0133974D01*
X0393494Y0135573D02*
X0390426Y0135573D01*
X0402711Y0135573D02*
X0405779Y0135573D01*
X0403799Y0133974D02*
X0403352Y0133974D01*
X0410426Y0135573D02*
X0415779Y0135573D01*
X0413799Y0133974D02*
X0412405Y0133974D01*
X0413102Y0129205D02*
X0413652Y0127878D01*
X0415128Y0126402D01*
X0416334Y0125902D01*
X0409871Y0125902D01*
X0411076Y0126402D01*
X0412553Y0127878D01*
X0413102Y0129205D01*
X0413092Y0129179D02*
X0413113Y0129179D01*
X0413950Y0127580D02*
X0412255Y0127580D01*
X0410062Y0125982D02*
X0416143Y0125982D01*
X0419871Y0125902D02*
X0426334Y0125902D01*
X0425128Y0126402D01*
X0423652Y0127878D01*
X0423102Y0129205D01*
X0422553Y0127878D01*
X0421076Y0126402D01*
X0419871Y0125902D01*
X0420062Y0125982D02*
X0426143Y0125982D01*
X0423950Y0127580D02*
X0422255Y0127580D01*
X0423092Y0129179D02*
X0423113Y0129179D01*
X0429871Y0125902D02*
X0436334Y0125902D01*
X0435128Y0126402D01*
X0433652Y0127878D01*
X0433102Y0129205D01*
X0432553Y0127878D01*
X0431076Y0126402D01*
X0429871Y0125902D01*
X0430062Y0125982D02*
X0436143Y0125982D01*
X0433950Y0127580D02*
X0432255Y0127580D01*
X0433092Y0129179D02*
X0433113Y0129179D01*
X0433799Y0133974D02*
X0432405Y0133974D01*
X0430426Y0135573D02*
X0435779Y0135573D01*
X0440426Y0135573D02*
X0445779Y0135573D01*
X0443799Y0133974D02*
X0442405Y0133974D01*
X0443102Y0129205D02*
X0443652Y0127878D01*
X0445128Y0126402D01*
X0446334Y0125902D01*
X0439871Y0125902D01*
X0441076Y0126402D01*
X0442553Y0127878D01*
X0443102Y0129205D01*
X0443092Y0129179D02*
X0443113Y0129179D01*
X0443950Y0127580D02*
X0442255Y0127580D01*
X0440062Y0125982D02*
X0446143Y0125982D01*
X0450062Y0125982D02*
X0466302Y0125982D01*
X0466302Y0127580D02*
X0452255Y0127580D01*
X0453092Y0129179D02*
X0466302Y0129179D01*
X0466302Y0130777D02*
X0453352Y0130777D01*
X0453154Y0132376D02*
X0466302Y0132376D01*
X0466302Y0133974D02*
X0452405Y0133974D01*
X0450426Y0135573D02*
X0466302Y0135573D01*
X0466302Y0137171D02*
X0321652Y0137171D01*
X0321652Y0138770D02*
X0466302Y0138770D01*
X0466302Y0140368D02*
X0321652Y0140368D01*
X0321652Y0141967D02*
X0466302Y0141967D01*
X0466302Y0143565D02*
X0321652Y0143565D01*
X0321652Y0145164D02*
X0466302Y0145164D01*
X0466302Y0146762D02*
X0321652Y0146762D01*
X0321652Y0148361D02*
X0323996Y0148361D01*
X0321986Y0149959D02*
X0321652Y0149959D01*
X0330209Y0148361D02*
X0456996Y0148361D01*
X0454986Y0149959D02*
X0332219Y0149959D01*
X0333223Y0151558D02*
X0453981Y0151558D01*
X0453378Y0153156D02*
X0333827Y0153156D01*
X0333827Y0154755D02*
X0453378Y0154755D01*
X0453653Y0156353D02*
X0333552Y0156353D01*
X0332890Y0157952D02*
X0454315Y0157952D01*
X0455791Y0159550D02*
X0331414Y0159550D01*
X0322791Y0159550D02*
X0321652Y0159550D01*
X0321652Y0161149D02*
X0466302Y0161149D01*
X0466302Y0162747D02*
X0321652Y0162747D01*
X0321652Y0164346D02*
X0466302Y0164346D01*
X0466302Y0165944D02*
X0321652Y0165944D01*
X0321652Y0167543D02*
X0466302Y0167543D01*
X0466302Y0169141D02*
X0321652Y0169141D01*
X0321652Y0170740D02*
X0466302Y0170740D01*
X0466302Y0172338D02*
X0321652Y0172338D01*
X0321652Y0173937D02*
X0466302Y0173937D01*
X0466302Y0175535D02*
X0321652Y0175535D01*
X0321652Y0177134D02*
X0466302Y0177134D01*
X0466302Y0178732D02*
X0321652Y0178732D01*
X0321652Y0180331D02*
X0466302Y0180331D01*
X0466302Y0181929D02*
X0321652Y0181929D01*
X0321652Y0183528D02*
X0466302Y0183528D01*
X0466302Y0159550D02*
X0464414Y0159550D01*
X0465890Y0157952D02*
X0466302Y0157952D01*
X0466223Y0151558D02*
X0466302Y0151558D01*
X0466302Y0149959D02*
X0465219Y0149959D01*
X0466302Y0148361D02*
X0463209Y0148361D01*
X0425779Y0135573D02*
X0420426Y0135573D01*
X0422405Y0133974D02*
X0423799Y0133974D01*
X0406334Y0125902D02*
X0402481Y0125902D01*
X0403352Y0126774D01*
X0403352Y0128601D01*
X0403652Y0127878D01*
X0405128Y0126402D01*
X0406334Y0125902D01*
X0406143Y0125982D02*
X0402560Y0125982D01*
X0403352Y0127580D02*
X0403950Y0127580D01*
X0468352Y0119587D02*
X0253908Y0119587D01*
X0250698Y0118175D02*
X0250698Y0118175D01*
X0250085Y0117989D02*
X0468352Y0117989D01*
X0468352Y0116390D02*
X0244817Y0116390D01*
X0239550Y0114792D02*
X0468352Y0114792D01*
X0307710Y0186725D02*
X0195225Y0186725D01*
X0193909Y0185126D02*
X0307185Y0185126D01*
X0306660Y0183528D02*
X0192593Y0183528D01*
X0191277Y0181929D02*
X0306135Y0181929D01*
X0305610Y0180331D02*
X0189961Y0180331D01*
X0188645Y0178732D02*
X0305085Y0178732D01*
X0304339Y0177134D02*
X0187329Y0177134D01*
X0186013Y0175535D02*
X0303592Y0175535D01*
X0302845Y0173937D02*
X0184697Y0173937D01*
X0183381Y0172338D02*
X0302098Y0172338D01*
X0301351Y0170740D02*
X0183643Y0170740D01*
X0184895Y0169141D02*
X0300604Y0169141D01*
X0299751Y0167543D02*
X0186148Y0167543D01*
X0187400Y0165944D02*
X0278622Y0165944D01*
X0279474Y0166297D02*
X0277429Y0165450D01*
X0275865Y0163886D01*
X0275018Y0161841D01*
X0275018Y0159628D01*
X0275865Y0157584D01*
X0277429Y0156019D01*
X0279474Y0155173D01*
X0281686Y0155173D01*
X0283731Y0156019D01*
X0285295Y0157584D01*
X0286142Y0159628D01*
X0286142Y0161841D01*
X0285295Y0163886D01*
X0283731Y0165450D01*
X0281686Y0166297D01*
X0279474Y0166297D01*
X0282538Y0165944D02*
X0298755Y0165944D01*
X0297760Y0164346D02*
X0284835Y0164346D01*
X0285767Y0162747D02*
X0296764Y0162747D01*
X0295769Y0161149D02*
X0286142Y0161149D01*
X0286110Y0159550D02*
X0294773Y0159550D01*
X0293700Y0157952D02*
X0285448Y0157952D01*
X0284065Y0156353D02*
X0292416Y0156353D01*
X0291131Y0154755D02*
X0194687Y0154755D01*
X0193721Y0156353D02*
X0277095Y0156353D01*
X0275712Y0157952D02*
X0192754Y0157952D01*
X0191788Y0159550D02*
X0275050Y0159550D01*
X0275018Y0161149D02*
X0190822Y0161149D01*
X0189855Y0162747D02*
X0275393Y0162747D01*
X0276325Y0164346D02*
X0188652Y0164346D01*
X0189688Y0163023D02*
X0189688Y0163023D01*
X0195653Y0153156D02*
X0289847Y0153156D01*
X0288562Y0151558D02*
X0196518Y0151558D01*
X0197238Y0149959D02*
X0287278Y0149959D01*
X0285779Y0148361D02*
X0197957Y0148361D01*
X0198677Y0146762D02*
X0284144Y0146762D01*
X0282509Y0145164D02*
X0199396Y0145164D01*
X0200115Y0143565D02*
X0280873Y0143565D01*
X0279238Y0141967D02*
X0200835Y0141967D01*
X0201407Y0140695D02*
X0201407Y0140695D01*
X0201509Y0140368D02*
X0277360Y0140368D01*
X0275275Y0138770D02*
X0242439Y0138770D01*
X0243275Y0138423D02*
X0241231Y0139270D01*
X0239018Y0139270D01*
X0236974Y0138423D01*
X0235409Y0136859D01*
X0234562Y0134814D01*
X0234562Y0132601D01*
X0235409Y0130557D01*
X0236974Y0128992D01*
X0239018Y0128146D01*
X0241231Y0128146D01*
X0243275Y0128992D01*
X0244840Y0130557D01*
X0245687Y0132601D01*
X0245687Y0134814D01*
X0244840Y0136859D01*
X0243275Y0138423D01*
X0244527Y0137171D02*
X0273191Y0137171D01*
X0271107Y0135573D02*
X0245372Y0135573D01*
X0245687Y0133974D02*
X0268944Y0133974D01*
X0266243Y0132376D02*
X0245593Y0132376D01*
X0244931Y0130777D02*
X0263542Y0130777D01*
X0260841Y0129179D02*
X0243461Y0129179D01*
X0236787Y0129179D02*
X0204996Y0129179D01*
X0205359Y0127580D02*
X0257737Y0127580D01*
X0254104Y0125982D02*
X0205651Y0125982D01*
X0205944Y0124383D02*
X0250471Y0124383D01*
X0246005Y0122784D02*
X0206237Y0122784D01*
X0206530Y0121186D02*
X0240737Y0121186D01*
X0233944Y0119587D02*
X0206823Y0119587D01*
X0208287Y0117989D02*
X0222055Y0117989D01*
X0235318Y0130777D02*
X0204498Y0130777D01*
X0204000Y0132376D02*
X0234656Y0132376D01*
X0234562Y0133974D02*
X0203502Y0133974D01*
X0203003Y0135573D02*
X0234876Y0135573D01*
X0235721Y0137171D02*
X0202505Y0137171D01*
X0202007Y0138770D02*
X0237810Y0138770D01*
X0196541Y0188323D02*
X0308235Y0188323D01*
X0308738Y0189922D02*
X0197857Y0189922D01*
X0199173Y0191520D02*
X0309057Y0191520D01*
X0309377Y0193119D02*
X0200489Y0193119D01*
X0203627Y0210703D02*
X0206577Y0210703D01*
X0205373Y0212301D02*
X0204832Y0212301D01*
X0205102Y0216250D02*
X0204553Y0217576D01*
X0203076Y0219053D01*
X0201871Y0219552D01*
X0208334Y0219552D01*
X0207128Y0219053D01*
X0205652Y0217576D01*
X0205102Y0216250D01*
X0204752Y0217097D02*
X0205453Y0217097D01*
X0206771Y0218695D02*
X0203434Y0218695D01*
X0212062Y0225089D02*
X0218143Y0225089D01*
X0216293Y0223491D02*
X0213912Y0223491D01*
X0214152Y0221892D02*
X0216052Y0221892D01*
X0216951Y0220294D02*
X0213253Y0220294D01*
X0213434Y0218695D02*
X0216771Y0218695D01*
X0221871Y0219552D02*
X0228334Y0219552D01*
X0227128Y0219053D01*
X0225652Y0217576D01*
X0225102Y0216250D01*
X0224553Y0217576D01*
X0223076Y0219053D01*
X0221871Y0219552D01*
X0223434Y0218695D02*
X0226771Y0218695D01*
X0225453Y0217097D02*
X0224752Y0217097D01*
X0224832Y0212301D02*
X0225373Y0212301D01*
X0226577Y0210703D02*
X0223627Y0210703D01*
X0216577Y0210703D02*
X0214965Y0210703D01*
X0196577Y0210703D02*
X0193627Y0210703D01*
X0194832Y0212301D02*
X0195373Y0212301D01*
X0195102Y0216250D02*
X0194553Y0217576D01*
X0193076Y0219053D01*
X0191871Y0219552D01*
X0198334Y0219552D01*
X0197128Y0219053D01*
X0195652Y0217576D01*
X0195102Y0216250D01*
X0194752Y0217097D02*
X0195453Y0217097D01*
X0196771Y0218695D02*
X0193434Y0218695D01*
X0213337Y0237877D02*
X0217118Y0237877D01*
X0216552Y0239476D02*
X0213902Y0239476D01*
X0213523Y0241074D02*
X0216931Y0241074D01*
X0231871Y0219552D02*
X0235724Y0219552D01*
X0234852Y0218681D01*
X0234852Y0216854D01*
X0234553Y0217576D01*
X0233076Y0219053D01*
X0231871Y0219552D01*
X0233434Y0218695D02*
X0234867Y0218695D01*
X0234852Y0217097D02*
X0234752Y0217097D01*
X0234832Y0212301D02*
X0234852Y0212301D01*
X0234852Y0210703D02*
X0233627Y0210703D01*
D14*
X0327102Y0228352D03*
X0327102Y0154352D03*
X0460102Y0154352D03*
X0460102Y0228352D03*
X0460102Y0302352D03*
X0327102Y0302352D03*
M02*
