G75*
%MOIN*%
%OFA0B0*%
%FSLAX25Y25*%
%IPPOS*%
%LPD*%
%AMOC8*
5,1,8,0,0,1.08239X$1,22.5*
%
%ADD10C,0.01600*%
%ADD11C,0.00500*%
%ADD12C,0.00400*%
D10*
X0001800Y0025623D02*
X0001800Y0301463D01*
X0388760Y0301463D01*
X0388760Y0025623D01*
X0001800Y0025623D01*
X0009689Y0138093D02*
X0009592Y0135653D01*
X0009554Y0133211D01*
X0009575Y0130769D01*
X0009657Y0128328D01*
X0009799Y0125890D01*
X0010000Y0123456D01*
X0010261Y0121028D01*
X0010581Y0118607D01*
X0010961Y0116195D01*
X0011399Y0113792D01*
X0011896Y0111401D01*
X0012452Y0109023D01*
X0013066Y0106659D01*
X0013738Y0104311D01*
X0014467Y0101981D01*
X0015253Y0099668D01*
X0016095Y0097376D01*
X0016994Y0095105D01*
X0017947Y0092857D01*
X0018956Y0090633D01*
X0020019Y0088434D01*
X0021135Y0086262D01*
X0022304Y0084118D01*
X0023526Y0082003D01*
X0024799Y0079919D01*
X0026123Y0077867D01*
X0027496Y0075848D01*
X0028919Y0073863D01*
X0030390Y0071913D01*
X0031908Y0070000D01*
X0033473Y0068125D01*
X0035083Y0066289D01*
X0036738Y0064493D01*
X0038436Y0062738D01*
X0040177Y0061025D01*
X0041959Y0059356D01*
X0043782Y0057730D01*
X0045644Y0056150D01*
X0047544Y0054616D01*
X0049481Y0053129D01*
X0051454Y0051690D01*
X0053462Y0050299D01*
X0055503Y0048958D01*
X0057576Y0047668D01*
X0059681Y0046429D01*
X0061815Y0045242D01*
X0063977Y0044107D01*
X0066167Y0043026D01*
X0068383Y0041999D01*
X0070623Y0041027D01*
X0072886Y0040110D01*
X0075172Y0039248D01*
X0077477Y0038443D01*
X0079802Y0037694D01*
X0082144Y0037003D01*
X0084503Y0036370D01*
X0086876Y0035794D01*
X0089263Y0035277D01*
X0091661Y0034818D01*
X0094071Y0034418D01*
X0096489Y0034078D01*
X0098915Y0033797D01*
X0101347Y0033575D01*
X0103784Y0033414D01*
X0106224Y0033311D01*
X0108665Y0033269D01*
X0111108Y0033287D01*
X0113548Y0033364D01*
X0115987Y0033502D01*
X0118421Y0033699D01*
X0120850Y0033956D01*
X0123271Y0034272D01*
X0125684Y0034647D01*
X0128087Y0035082D01*
X0130479Y0035575D01*
X0132858Y0036127D01*
X0135223Y0036736D01*
X0137572Y0037404D01*
X0139904Y0038129D01*
X0142218Y0038911D01*
X0144511Y0039750D01*
X0146784Y0040644D01*
X0149034Y0041594D01*
X0151260Y0042599D01*
X0153460Y0043658D01*
X0155634Y0044770D01*
X0157780Y0045936D01*
X0159897Y0047154D01*
X0161983Y0048423D01*
X0164038Y0049744D01*
X0166059Y0051114D01*
X0168047Y0052533D01*
X0169999Y0054001D01*
X0171914Y0055515D01*
X0173792Y0057077D01*
X0175631Y0058684D01*
X0177430Y0060336D01*
X0179188Y0062031D01*
X0180903Y0063769D01*
X0182576Y0065548D01*
X0184205Y0067368D01*
X0185788Y0069227D01*
X0187325Y0071125D01*
X0188816Y0073059D01*
X0190258Y0075030D01*
X0191652Y0077035D01*
X0192997Y0079074D01*
X0194290Y0081145D01*
X0195533Y0083248D01*
X0196724Y0085380D01*
X0197862Y0087540D01*
X0198947Y0089728D01*
X0199978Y0091942D01*
X0200954Y0094181D01*
X0201875Y0096443D01*
X0202741Y0098726D01*
X0203550Y0101030D01*
X0204302Y0103354D01*
X0204997Y0105695D01*
X0205635Y0108052D01*
X0206215Y0110425D01*
X0206736Y0112811D01*
X0207199Y0115208D01*
X0207603Y0117617D01*
X0207947Y0120035D01*
X0208232Y0122460D01*
X0208458Y0124892D01*
X0208624Y0127328D01*
X0208730Y0129768D01*
X0208777Y0132210D01*
X0208763Y0134652D01*
X0208690Y0137093D01*
X0208690Y0134843D02*
X0208690Y0140843D01*
X0208440Y0140843D02*
X0112940Y0140843D01*
X0105440Y0140843D02*
X0009940Y0140843D01*
X0009690Y0140843D02*
X0009690Y0138093D01*
X0009440Y0194093D02*
X0104940Y0194093D01*
X0009440Y0194093D02*
X0009470Y0196516D01*
X0009558Y0198937D01*
X0009705Y0201356D01*
X0009912Y0203770D01*
X0010177Y0206179D01*
X0010500Y0208580D01*
X0010882Y0210973D01*
X0011322Y0213356D01*
X0011820Y0215727D01*
X0012376Y0218086D01*
X0012989Y0220430D01*
X0013659Y0222759D01*
X0014385Y0225071D01*
X0015167Y0227364D01*
X0016005Y0229637D01*
X0016898Y0231890D01*
X0017846Y0234120D01*
X0018848Y0236326D01*
X0019903Y0238508D01*
X0021011Y0240663D01*
X0022171Y0242790D01*
X0023383Y0244889D01*
X0024645Y0246957D01*
X0025957Y0248994D01*
X0027319Y0250998D01*
X0028729Y0252969D01*
X0030186Y0254905D01*
X0031690Y0256804D01*
X0033240Y0258667D01*
X0034835Y0260491D01*
X0036474Y0262276D01*
X0038156Y0264020D01*
X0039880Y0265723D01*
X0041644Y0267384D01*
X0043449Y0269001D01*
X0045293Y0270573D01*
X0047174Y0272101D01*
X0049092Y0273582D01*
X0051045Y0275015D01*
X0053033Y0276401D01*
X0055054Y0277738D01*
X0057106Y0279026D01*
X0059190Y0280263D01*
X0061303Y0281448D01*
X0063444Y0282583D01*
X0065613Y0283664D01*
X0067807Y0284693D01*
X0070025Y0285667D01*
X0072267Y0286588D01*
X0074530Y0287454D01*
X0076813Y0288264D01*
X0079116Y0289018D01*
X0081436Y0289716D01*
X0083773Y0290358D01*
X0086125Y0290942D01*
X0088490Y0291469D01*
X0090867Y0291938D01*
X0093255Y0292349D01*
X0095652Y0292702D01*
X0098058Y0292996D01*
X0100469Y0293232D01*
X0102886Y0293409D01*
X0105306Y0293527D01*
X0107728Y0293586D01*
X0110152Y0293586D01*
X0112574Y0293527D01*
X0114994Y0293409D01*
X0117411Y0293232D01*
X0119822Y0292996D01*
X0122228Y0292702D01*
X0124625Y0292349D01*
X0127013Y0291938D01*
X0129390Y0291469D01*
X0131755Y0290942D01*
X0134107Y0290358D01*
X0136444Y0289716D01*
X0138764Y0289018D01*
X0141067Y0288264D01*
X0143350Y0287454D01*
X0145613Y0286588D01*
X0147855Y0285667D01*
X0150073Y0284693D01*
X0152267Y0283664D01*
X0154436Y0282583D01*
X0156577Y0281448D01*
X0158690Y0280263D01*
X0160774Y0279026D01*
X0162826Y0277738D01*
X0164847Y0276401D01*
X0166835Y0275015D01*
X0168788Y0273582D01*
X0170706Y0272101D01*
X0172587Y0270573D01*
X0174431Y0269001D01*
X0176236Y0267384D01*
X0178000Y0265723D01*
X0179724Y0264020D01*
X0181406Y0262276D01*
X0183045Y0260491D01*
X0184640Y0258667D01*
X0186190Y0256804D01*
X0187694Y0254905D01*
X0189151Y0252969D01*
X0190561Y0250998D01*
X0191923Y0248994D01*
X0193235Y0246957D01*
X0194497Y0244889D01*
X0195709Y0242790D01*
X0196869Y0240663D01*
X0197977Y0238508D01*
X0199032Y0236326D01*
X0200034Y0234120D01*
X0200982Y0231890D01*
X0201875Y0229637D01*
X0202713Y0227364D01*
X0203495Y0225071D01*
X0204221Y0222759D01*
X0204891Y0220430D01*
X0205504Y0218086D01*
X0206060Y0215727D01*
X0206558Y0213356D01*
X0206998Y0210973D01*
X0207380Y0208580D01*
X0207703Y0206179D01*
X0207968Y0203770D01*
X0208175Y0201356D01*
X0208322Y0198937D01*
X0208410Y0196516D01*
X0208440Y0194093D01*
X0113190Y0194093D01*
X0213690Y0195343D02*
X0213690Y0131843D01*
X0286190Y0131843D01*
X0291440Y0131843D02*
X0380940Y0131843D01*
X0380940Y0195343D01*
X0213690Y0195343D01*
X0213690Y0229843D02*
X0285440Y0229843D01*
X0289940Y0229843D02*
X0380940Y0229843D01*
X0380940Y0293593D01*
X0380690Y0293593D02*
X0213690Y0293593D01*
X0213690Y0229843D01*
X0214440Y0097093D02*
X0381440Y0097093D01*
X0381440Y0033343D01*
X0291690Y0033343D01*
X0286190Y0033343D02*
X0214190Y0033343D01*
X0214190Y0096843D01*
X0009440Y0194343D02*
X0009440Y0195343D01*
D11*
X0079190Y0138093D02*
X0079190Y0128093D01*
X0139190Y0128093D01*
X0139190Y0138093D01*
X0079190Y0138093D01*
X0236690Y0134593D02*
X0296690Y0134593D01*
X0296690Y0144593D01*
X0236690Y0144593D01*
X0236690Y0134593D01*
X0296690Y0134593D02*
X0356690Y0134593D01*
X0356690Y0144593D01*
X0296690Y0144593D01*
X0296690Y0134593D01*
X0297440Y0046093D02*
X0237440Y0046093D01*
X0237440Y0036093D01*
X0297440Y0036093D01*
X0297440Y0046093D01*
X0357440Y0046093D01*
X0357440Y0036093D01*
X0297440Y0036093D01*
X0297440Y0046093D01*
X0296940Y0232593D02*
X0236940Y0232593D01*
X0236940Y0242593D01*
X0296940Y0242593D01*
X0296940Y0232593D01*
X0356940Y0232593D01*
X0356940Y0242593D01*
X0296940Y0242593D01*
X0296940Y0232593D01*
D12*
X0274240Y0245810D02*
X0273723Y0245293D01*
X0273206Y0245293D01*
X0272689Y0245810D01*
X0272689Y0248395D01*
X0273206Y0248395D02*
X0272172Y0248395D01*
X0271017Y0246844D02*
X0269466Y0246844D01*
X0268949Y0246327D01*
X0268949Y0245810D01*
X0269466Y0245293D01*
X0270500Y0245293D01*
X0271017Y0245810D01*
X0271017Y0246844D01*
X0269983Y0247878D01*
X0268949Y0248395D01*
X0328949Y0248395D02*
X0331017Y0248395D01*
X0331017Y0246844D01*
X0329983Y0247361D01*
X0329466Y0247361D01*
X0328949Y0246844D01*
X0328949Y0245810D01*
X0329466Y0245293D01*
X0330500Y0245293D01*
X0331017Y0245810D01*
X0332689Y0245810D02*
X0332689Y0248395D01*
X0333206Y0248395D02*
X0332172Y0248395D01*
X0332689Y0245810D02*
X0333206Y0245293D01*
X0333723Y0245293D01*
X0334240Y0245810D01*
X0332956Y0150395D02*
X0331922Y0150395D01*
X0332439Y0150395D02*
X0332439Y0147810D01*
X0332956Y0147293D01*
X0333473Y0147293D01*
X0333990Y0147810D01*
X0330767Y0147810D02*
X0330250Y0147293D01*
X0329216Y0147293D01*
X0328699Y0147810D01*
X0328699Y0148327D01*
X0329216Y0148844D01*
X0330250Y0148844D01*
X0330767Y0149361D01*
X0330767Y0149878D01*
X0330250Y0150395D01*
X0329216Y0150395D01*
X0328699Y0149878D01*
X0328699Y0149361D01*
X0329216Y0148844D01*
X0330250Y0148844D02*
X0330767Y0148327D01*
X0330767Y0147810D01*
X0273990Y0147810D02*
X0273473Y0147293D01*
X0272956Y0147293D01*
X0272439Y0147810D01*
X0272439Y0150395D01*
X0272956Y0150395D02*
X0271922Y0150395D01*
X0270767Y0149878D02*
X0270767Y0149361D01*
X0270250Y0148844D01*
X0268699Y0148844D01*
X0268699Y0149878D02*
X0269216Y0150395D01*
X0270250Y0150395D01*
X0270767Y0149878D01*
X0268699Y0149878D02*
X0268699Y0147810D01*
X0269216Y0147293D01*
X0270250Y0147293D01*
X0270767Y0147810D01*
X0270483Y0051895D02*
X0270483Y0048793D01*
X0271517Y0048793D02*
X0269449Y0048793D01*
X0268295Y0049310D02*
X0267777Y0048793D01*
X0266743Y0048793D01*
X0266226Y0049310D01*
X0266226Y0049827D01*
X0266743Y0050344D01*
X0267260Y0050344D01*
X0266743Y0050344D02*
X0266226Y0050861D01*
X0266226Y0051378D01*
X0266743Y0051895D01*
X0267777Y0051895D01*
X0268295Y0051378D01*
X0270483Y0051895D02*
X0271517Y0050861D01*
X0272672Y0051895D02*
X0273706Y0051895D01*
X0273189Y0051895D02*
X0273189Y0049310D01*
X0273706Y0048793D01*
X0274223Y0048793D01*
X0274740Y0049310D01*
X0326226Y0048793D02*
X0328295Y0048793D01*
X0326226Y0050861D01*
X0326226Y0051378D01*
X0326743Y0051895D01*
X0327777Y0051895D01*
X0328295Y0051378D01*
X0330483Y0051895D02*
X0330483Y0048793D01*
X0331517Y0048793D02*
X0329449Y0048793D01*
X0331517Y0050861D02*
X0330483Y0051895D01*
X0332672Y0051895D02*
X0333706Y0051895D01*
X0333189Y0051895D02*
X0333189Y0049310D01*
X0333706Y0048793D01*
X0334223Y0048793D01*
X0334740Y0049310D01*
X0107935Y0122810D02*
X0107418Y0122293D01*
X0106901Y0122293D01*
X0106384Y0122810D01*
X0106384Y0125395D01*
X0106901Y0125395D02*
X0105867Y0125395D01*
X0104713Y0124361D02*
X0103679Y0125395D01*
X0103679Y0122293D01*
X0104713Y0122293D02*
X0102644Y0122293D01*
M02*
