G75*
%MOIN*%
%OFA0B0*%
%FSLAX25Y25*%
%IPPOS*%
%LPD*%
%AMOC8*
5,1,8,0,0,1.08239X$1,22.5*
%
%ADD10C,0.01600*%
%ADD11C,0.27559*%
%ADD12C,0.01969*%
%ADD13C,0.02400*%
%ADD14C,0.00512*%
%ADD15C,0.00600*%
%ADD16C,0.01000*%
%ADD17C,0.07924*%
%ADD18R,0.07300X0.07300*%
%ADD19C,0.07300*%
%ADD20R,0.05800X0.13280*%
%ADD21C,0.02900*%
%ADD22C,0.03400*%
%ADD23R,0.06800X0.12800*%
%ADD24C,0.10249*%
D10*
X0059783Y0053012D02*
X0059664Y0052813D01*
X0059549Y0052611D01*
X0059440Y0052406D01*
X0059335Y0052199D01*
X0059236Y0051989D01*
X0059141Y0051777D01*
X0059052Y0051562D01*
X0058968Y0051345D01*
X0058890Y0051127D01*
X0058817Y0050906D01*
X0058749Y0050684D01*
X0058687Y0050461D01*
X0058630Y0050235D01*
X0058578Y0050009D01*
X0058533Y0049781D01*
X0058492Y0049552D01*
X0058458Y0049323D01*
X0058429Y0049092D01*
X0058405Y0048861D01*
X0058388Y0048630D01*
X0058376Y0048398D01*
X0058369Y0048166D01*
X0058368Y0047933D01*
X0058373Y0047701D01*
X0058384Y0047469D01*
X0058400Y0047237D01*
X0058422Y0047006D01*
X0058450Y0046776D01*
X0058483Y0046546D01*
X0058522Y0046317D01*
X0058566Y0046089D01*
X0058616Y0045862D01*
X0058671Y0045636D01*
X0058732Y0045412D01*
X0058798Y0045190D01*
X0058870Y0044969D01*
X0058947Y0044750D01*
X0059030Y0044533D01*
X0059118Y0044318D01*
X0059211Y0044105D01*
X0059309Y0043894D01*
X0059412Y0043686D01*
X0059520Y0043481D01*
X0059633Y0043278D01*
X0059752Y0043078D01*
X0059875Y0042881D01*
X0060003Y0042687D01*
X0060135Y0042496D01*
X0060272Y0042309D01*
X0060414Y0042125D01*
X0060560Y0041944D01*
X0060710Y0041767D01*
X0060865Y0041594D01*
X0061024Y0041425D01*
X0061187Y0041259D01*
X0061354Y0041098D01*
X0061525Y0040941D01*
X0061700Y0040788D01*
X0061878Y0040639D01*
X0062060Y0040494D01*
X0062245Y0040355D01*
X0062434Y0040219D01*
X0062626Y0040089D01*
X0062821Y0039963D01*
X0063019Y0039841D01*
X0063220Y0039725D01*
X0063424Y0039614D01*
X0063631Y0039508D01*
X0063840Y0039406D01*
X0064051Y0039310D01*
X0064265Y0039219D01*
X0064481Y0039134D01*
X0064699Y0039053D01*
X0064919Y0038978D01*
X0065140Y0038909D01*
X0065363Y0038844D01*
X0065588Y0038786D01*
X0065814Y0038732D01*
X0066041Y0038685D01*
X0066270Y0038643D01*
X0066499Y0038606D01*
X0066729Y0038575D01*
X0066960Y0038550D01*
X0067192Y0038530D01*
X0067424Y0038516D01*
X0067656Y0038508D01*
X0067888Y0038505D01*
X0068120Y0038508D01*
X0068352Y0038517D01*
X0068584Y0038531D01*
X0068815Y0038551D01*
X0069046Y0038577D01*
X0069276Y0038608D01*
X0069506Y0038645D01*
X0069734Y0038687D01*
X0069961Y0038735D01*
X0070187Y0038789D01*
X0070412Y0038848D01*
X0070635Y0038912D01*
X0070857Y0038982D01*
X0071076Y0039057D01*
X0071294Y0039138D01*
X0071510Y0039224D01*
X0071723Y0039315D01*
X0071935Y0039411D01*
X0072144Y0039513D01*
X0072350Y0039619D01*
X0072554Y0039731D01*
X0072755Y0039848D01*
X0072953Y0039969D01*
X0073148Y0040095D01*
X0073340Y0040226D01*
X0073528Y0040362D01*
X0073713Y0040502D01*
X0073895Y0040646D01*
X0074073Y0040795D01*
X0074248Y0040948D01*
X0074419Y0041106D01*
X0074585Y0041268D01*
X0074748Y0041433D01*
X0074907Y0041603D01*
X0075061Y0041776D01*
X0075212Y0041953D01*
X0075358Y0042134D01*
X0075499Y0042318D01*
X0075636Y0042506D01*
X0075768Y0042697D01*
X0075710Y0042470D01*
X0075659Y0042242D01*
X0075613Y0042012D01*
X0075572Y0041782D01*
X0075537Y0041550D01*
X0075508Y0041318D01*
X0075485Y0041085D01*
X0075467Y0040852D01*
X0075455Y0040618D01*
X0075449Y0040384D01*
X0075449Y0040150D01*
X0075454Y0039916D01*
X0075465Y0039682D01*
X0075482Y0039449D01*
X0075504Y0039216D01*
X0075532Y0038983D01*
X0075566Y0038752D01*
X0075606Y0038521D01*
X0075651Y0038291D01*
X0075702Y0038063D01*
X0075758Y0037835D01*
X0075820Y0037610D01*
X0075888Y0037386D01*
X0075961Y0037163D01*
X0076039Y0036943D01*
X0076123Y0036724D01*
X0076212Y0036508D01*
X0076306Y0036293D01*
X0076406Y0036082D01*
X0076511Y0035872D01*
X0076621Y0035666D01*
X0076736Y0035462D01*
X0076856Y0035261D01*
X0076980Y0035063D01*
X0077110Y0034868D01*
X0077244Y0034676D01*
X0077383Y0034488D01*
X0077527Y0034303D01*
X0077675Y0034122D01*
X0077828Y0033944D01*
X0077984Y0033770D01*
X0078146Y0033600D01*
X0078311Y0033434D01*
X0078480Y0033273D01*
X0078653Y0033115D01*
X0078830Y0032962D01*
X0079011Y0032813D01*
X0079195Y0032668D01*
X0079382Y0032529D01*
X0079574Y0032393D01*
X0079768Y0032263D01*
X0079965Y0032137D01*
X0080166Y0032016D01*
X0080369Y0031901D01*
X0080576Y0031790D01*
X0080784Y0031684D01*
X0080996Y0031584D01*
X0081210Y0031488D01*
X0081426Y0031398D01*
X0081644Y0031313D01*
X0081864Y0031234D01*
X0082086Y0031160D01*
X0082310Y0031092D01*
X0082535Y0031029D01*
X0082762Y0030971D01*
X0082991Y0030919D01*
X0083220Y0030873D01*
X0083451Y0030833D01*
X0083682Y0030798D01*
X0083914Y0030769D01*
X0084147Y0030745D01*
X0084381Y0030727D01*
X0084615Y0030715D01*
X0084849Y0030709D01*
X0085083Y0030708D01*
X0085317Y0030714D01*
X0085550Y0030725D01*
X0085784Y0030741D01*
X0086017Y0030764D01*
X0086249Y0030792D01*
X0086481Y0030826D01*
X0086712Y0030865D01*
X0086941Y0030910D01*
X0087170Y0030961D01*
X0087397Y0031017D01*
X0087623Y0031079D01*
X0087847Y0031147D01*
X0088070Y0031219D01*
X0088290Y0031298D01*
X0088509Y0031381D01*
X0088725Y0031471D01*
X0088939Y0031565D01*
X0089151Y0031664D01*
X0089361Y0031769D01*
X0089567Y0031879D01*
X0089771Y0031994D01*
X0089972Y0032114D01*
X0090171Y0032238D01*
X0090365Y0032368D01*
X0090557Y0032502D01*
X0090746Y0032641D01*
X0090930Y0032785D01*
X0091112Y0032933D01*
X0091289Y0033085D01*
X0091463Y0033242D01*
X0091633Y0033403D01*
X0091799Y0033568D01*
X0091961Y0033737D01*
X0092119Y0033910D01*
X0092272Y0034087D01*
X0092421Y0034268D01*
X0092565Y0034452D01*
X0092705Y0034640D01*
X0092841Y0034831D01*
X0092971Y0035025D01*
X0093097Y0035222D01*
X0093218Y0035423D01*
X0093334Y0035626D01*
X0093445Y0035832D01*
X0093550Y0036041D01*
X0093651Y0036253D01*
X0093746Y0036466D01*
X0093837Y0036682D01*
X0093921Y0036901D01*
X0094001Y0037121D01*
X0094075Y0037343D01*
X0094074Y0037342D02*
X0094082Y0037110D01*
X0094095Y0036877D01*
X0094114Y0036646D01*
X0094139Y0036414D01*
X0094169Y0036184D01*
X0094205Y0035954D01*
X0094247Y0035725D01*
X0094294Y0035497D01*
X0094346Y0035271D01*
X0094405Y0035045D01*
X0094468Y0034822D01*
X0094537Y0034600D01*
X0094612Y0034379D01*
X0094692Y0034161D01*
X0094777Y0033944D01*
X0094867Y0033730D01*
X0094963Y0033518D01*
X0095064Y0033308D01*
X0095169Y0033101D01*
X0095280Y0032897D01*
X0095396Y0032695D01*
X0095517Y0032496D01*
X0095642Y0032300D01*
X0095773Y0032108D01*
X0095908Y0031918D01*
X0096047Y0031732D01*
X0096191Y0031549D01*
X0096340Y0031370D01*
X0096492Y0031195D01*
X0096649Y0031023D01*
X0096810Y0030856D01*
X0096976Y0030692D01*
X0097145Y0030532D01*
X0097318Y0030377D01*
X0097494Y0030225D01*
X0097675Y0030078D01*
X0097859Y0029936D01*
X0098046Y0029798D01*
X0098237Y0029665D01*
X0098430Y0029536D01*
X0098627Y0029412D01*
X0098827Y0029293D01*
X0099030Y0029179D01*
X0099235Y0029070D01*
X0099443Y0028966D01*
X0099654Y0028867D01*
X0099867Y0028773D01*
X0100082Y0028685D01*
X0100299Y0028602D01*
X0100518Y0028524D01*
X0100739Y0028451D01*
X0100962Y0028384D01*
X0101186Y0028322D01*
X0101412Y0028266D01*
X0101639Y0028215D01*
X0101867Y0028170D01*
X0102096Y0028131D01*
X0102326Y0028097D01*
X0102557Y0028068D01*
X0102789Y0028046D01*
X0103021Y0028029D01*
X0103253Y0028017D01*
X0103486Y0028012D01*
X0103718Y0028012D01*
X0103951Y0028017D01*
X0104183Y0028029D01*
X0104415Y0028046D01*
X0104647Y0028068D01*
X0104878Y0028097D01*
X0105108Y0028131D01*
X0105337Y0028170D01*
X0105565Y0028215D01*
X0105792Y0028266D01*
X0106018Y0028322D01*
X0106242Y0028384D01*
X0106465Y0028451D01*
X0106686Y0028524D01*
X0106905Y0028602D01*
X0107122Y0028685D01*
X0107337Y0028773D01*
X0107550Y0028867D01*
X0107761Y0028966D01*
X0107969Y0029070D01*
X0108174Y0029179D01*
X0108377Y0029293D01*
X0108577Y0029412D01*
X0108774Y0029536D01*
X0108967Y0029665D01*
X0109158Y0029798D01*
X0109345Y0029936D01*
X0109529Y0030078D01*
X0109710Y0030225D01*
X0109886Y0030377D01*
X0110059Y0030532D01*
X0110228Y0030692D01*
X0110394Y0030856D01*
X0110555Y0031023D01*
X0110712Y0031195D01*
X0110864Y0031370D01*
X0111013Y0031549D01*
X0111157Y0031732D01*
X0111296Y0031918D01*
X0111431Y0032108D01*
X0111562Y0032300D01*
X0111687Y0032496D01*
X0111808Y0032695D01*
X0111924Y0032897D01*
X0112035Y0033101D01*
X0112140Y0033308D01*
X0112241Y0033518D01*
X0112337Y0033730D01*
X0112427Y0033944D01*
X0112512Y0034161D01*
X0112592Y0034379D01*
X0112667Y0034600D01*
X0112736Y0034822D01*
X0112799Y0035045D01*
X0112858Y0035271D01*
X0112910Y0035497D01*
X0112957Y0035725D01*
X0112999Y0035954D01*
X0113035Y0036184D01*
X0113065Y0036414D01*
X0113090Y0036646D01*
X0113109Y0036877D01*
X0113122Y0037110D01*
X0113130Y0037342D01*
X0113203Y0037121D01*
X0113281Y0036902D01*
X0113364Y0036684D01*
X0113453Y0036469D01*
X0113547Y0036256D01*
X0113646Y0036045D01*
X0113750Y0035837D01*
X0113859Y0035631D01*
X0113973Y0035428D01*
X0114093Y0035228D01*
X0114217Y0035031D01*
X0114345Y0034837D01*
X0114479Y0034646D01*
X0114617Y0034458D01*
X0114759Y0034274D01*
X0114906Y0034094D01*
X0115058Y0033917D01*
X0115214Y0033744D01*
X0115373Y0033574D01*
X0115537Y0033409D01*
X0115705Y0033247D01*
X0115877Y0033090D01*
X0116053Y0032937D01*
X0116232Y0032789D01*
X0116415Y0032645D01*
X0116601Y0032505D01*
X0116791Y0032370D01*
X0116984Y0032239D01*
X0117180Y0032114D01*
X0117379Y0031993D01*
X0117581Y0031877D01*
X0117786Y0031766D01*
X0117993Y0031660D01*
X0118203Y0031559D01*
X0118415Y0031463D01*
X0118630Y0031373D01*
X0118847Y0031288D01*
X0119066Y0031208D01*
X0119286Y0031133D01*
X0119509Y0031064D01*
X0119733Y0031000D01*
X0119958Y0030942D01*
X0120185Y0030890D01*
X0120413Y0030842D01*
X0120642Y0030801D01*
X0120872Y0030765D01*
X0121103Y0030735D01*
X0121335Y0030710D01*
X0121567Y0030691D01*
X0121799Y0030678D01*
X0122032Y0030670D01*
X0122265Y0030668D01*
X0122498Y0030672D01*
X0122731Y0030681D01*
X0122963Y0030696D01*
X0123195Y0030717D01*
X0123426Y0030743D01*
X0123657Y0030775D01*
X0123887Y0030813D01*
X0124116Y0030856D01*
X0124343Y0030905D01*
X0124570Y0030960D01*
X0124795Y0031020D01*
X0125018Y0031085D01*
X0125240Y0031156D01*
X0125460Y0031232D01*
X0125678Y0031313D01*
X0125894Y0031400D01*
X0126108Y0031492D01*
X0126320Y0031590D01*
X0126529Y0031692D01*
X0126736Y0031800D01*
X0126940Y0031912D01*
X0127141Y0032030D01*
X0127339Y0032152D01*
X0127534Y0032279D01*
X0127726Y0032411D01*
X0127915Y0032548D01*
X0128100Y0032689D01*
X0128282Y0032834D01*
X0128460Y0032984D01*
X0128634Y0033138D01*
X0128805Y0033297D01*
X0128972Y0033459D01*
X0129134Y0033626D01*
X0129293Y0033797D01*
X0129447Y0033971D01*
X0129597Y0034149D01*
X0129743Y0034331D01*
X0129884Y0034516D01*
X0130021Y0034704D01*
X0130153Y0034896D01*
X0130280Y0035091D01*
X0130403Y0035289D01*
X0130520Y0035490D01*
X0130633Y0035694D01*
X0130741Y0035901D01*
X0130843Y0036110D01*
X0130941Y0036321D01*
X0131033Y0036535D01*
X0131120Y0036751D01*
X0131202Y0036969D01*
X0131278Y0037189D01*
X0131349Y0037411D01*
X0131415Y0037635D01*
X0131475Y0037860D01*
X0131529Y0038086D01*
X0131578Y0038314D01*
X0131622Y0038542D01*
X0131659Y0038772D01*
X0131692Y0039003D01*
X0131718Y0039234D01*
X0131739Y0039466D01*
X0131754Y0039699D01*
X0131764Y0039931D01*
X0131768Y0040164D01*
X0131766Y0040397D01*
X0131759Y0040630D01*
X0131745Y0040862D01*
X0131727Y0041094D01*
X0131702Y0041326D01*
X0131672Y0041557D01*
X0131636Y0041787D01*
X0131595Y0042016D01*
X0131548Y0042244D01*
X0131495Y0042471D01*
X0131437Y0042697D01*
X0131436Y0042696D02*
X0131564Y0042503D01*
X0131697Y0042313D01*
X0131834Y0042126D01*
X0131975Y0041942D01*
X0132121Y0041762D01*
X0132272Y0041586D01*
X0132426Y0041413D01*
X0132585Y0041244D01*
X0132748Y0041079D01*
X0132915Y0040918D01*
X0133086Y0040761D01*
X0133260Y0040609D01*
X0133438Y0040460D01*
X0133620Y0040316D01*
X0133805Y0040177D01*
X0133994Y0040042D01*
X0134186Y0039912D01*
X0134380Y0039786D01*
X0134578Y0039665D01*
X0134779Y0039549D01*
X0134983Y0039438D01*
X0135189Y0039332D01*
X0135397Y0039231D01*
X0135608Y0039136D01*
X0135822Y0039045D01*
X0136037Y0038960D01*
X0136255Y0038879D01*
X0136474Y0038805D01*
X0136695Y0038735D01*
X0136918Y0038671D01*
X0137143Y0038612D01*
X0137368Y0038559D01*
X0137595Y0038512D01*
X0137823Y0038470D01*
X0138052Y0038433D01*
X0138282Y0038402D01*
X0138512Y0038377D01*
X0138743Y0038357D01*
X0138975Y0038343D01*
X0139206Y0038335D01*
X0139438Y0038332D01*
X0139670Y0038335D01*
X0139902Y0038343D01*
X0140133Y0038358D01*
X0140364Y0038377D01*
X0140594Y0038403D01*
X0140824Y0038434D01*
X0141053Y0038471D01*
X0141281Y0038513D01*
X0141508Y0038561D01*
X0141733Y0038614D01*
X0141958Y0038673D01*
X0142180Y0038737D01*
X0142402Y0038806D01*
X0142621Y0038881D01*
X0142838Y0038962D01*
X0143054Y0039047D01*
X0143267Y0039138D01*
X0143478Y0039234D01*
X0143687Y0039335D01*
X0143893Y0039441D01*
X0144096Y0039552D01*
X0144297Y0039669D01*
X0144495Y0039789D01*
X0144690Y0039915D01*
X0144881Y0040046D01*
X0145070Y0040181D01*
X0145255Y0040320D01*
X0145436Y0040464D01*
X0145614Y0040613D01*
X0145789Y0040765D01*
X0145960Y0040922D01*
X0146126Y0041083D01*
X0146289Y0041249D01*
X0146448Y0041417D01*
X0146602Y0041590D01*
X0146753Y0041767D01*
X0146898Y0041947D01*
X0147040Y0042131D01*
X0147177Y0042318D01*
X0147309Y0042508D01*
X0147437Y0042701D01*
X0147560Y0042898D01*
X0147678Y0043097D01*
X0147791Y0043300D01*
X0147900Y0043505D01*
X0148003Y0043712D01*
X0148101Y0043922D01*
X0148194Y0044135D01*
X0148282Y0044349D01*
X0148364Y0044566D01*
X0148442Y0044784D01*
X0148513Y0045005D01*
X0148580Y0045227D01*
X0148641Y0045451D01*
X0148697Y0045676D01*
X0148747Y0045902D01*
X0148791Y0046129D01*
X0148830Y0046358D01*
X0148864Y0046587D01*
X0148891Y0046818D01*
X0148914Y0047048D01*
X0148930Y0047280D01*
X0148941Y0047511D01*
X0148946Y0047743D01*
X0148946Y0047975D01*
X0148940Y0048206D01*
X0148928Y0048438D01*
X0148911Y0048669D01*
X0148888Y0048900D01*
X0148860Y0049130D01*
X0148826Y0049359D01*
X0148786Y0049588D01*
X0148741Y0049815D01*
X0148690Y0050041D01*
X0148633Y0050266D01*
X0148572Y0050490D01*
X0148505Y0050711D01*
X0148432Y0050932D01*
X0148354Y0051150D01*
X0148271Y0051366D01*
X0148182Y0051581D01*
X0148089Y0051793D01*
X0147990Y0052002D01*
X0147886Y0052210D01*
X0147777Y0052414D01*
X0147663Y0052616D01*
X0147545Y0052815D01*
X0147421Y0053011D01*
X0147421Y0053012D02*
X0147603Y0052865D01*
X0147789Y0052723D01*
X0147979Y0052586D01*
X0148171Y0052453D01*
X0148367Y0052325D01*
X0148566Y0052202D01*
X0148768Y0052084D01*
X0148973Y0051971D01*
X0149180Y0051863D01*
X0149390Y0051760D01*
X0149603Y0051662D01*
X0149818Y0051570D01*
X0150035Y0051483D01*
X0150254Y0051401D01*
X0150475Y0051324D01*
X0150698Y0051253D01*
X0150923Y0051188D01*
X0151149Y0051128D01*
X0151376Y0051073D01*
X0151605Y0051024D01*
X0151835Y0050981D01*
X0152066Y0050944D01*
X0152297Y0050912D01*
X0152530Y0050886D01*
X0152763Y0050865D01*
X0152996Y0050850D01*
X0153230Y0050841D01*
X0153464Y0050838D01*
X0153698Y0050840D01*
X0153932Y0050849D01*
X0154165Y0050863D01*
X0154398Y0050882D01*
X0154631Y0050908D01*
X0154863Y0050939D01*
X0155094Y0050975D01*
X0155324Y0051018D01*
X0155553Y0051066D01*
X0155781Y0051119D01*
X0156007Y0051179D01*
X0156232Y0051243D01*
X0156455Y0051314D01*
X0156676Y0051389D01*
X0156896Y0051470D01*
X0157113Y0051557D01*
X0157328Y0051649D01*
X0157541Y0051746D01*
X0157751Y0051848D01*
X0157959Y0051955D01*
X0158164Y0052068D01*
X0158367Y0052185D01*
X0158566Y0052307D01*
X0158762Y0052435D01*
X0158956Y0052566D01*
X0159145Y0052703D01*
X0159332Y0052844D01*
X0159515Y0052990D01*
X0159694Y0053141D01*
X0159870Y0053295D01*
X0160041Y0053454D01*
X0160209Y0053617D01*
X0160373Y0053784D01*
X0160532Y0053955D01*
X0160688Y0054130D01*
X0160839Y0054309D01*
X0160985Y0054491D01*
X0161127Y0054677D01*
X0161265Y0054866D01*
X0161397Y0055059D01*
X0161525Y0055255D01*
X0161648Y0055454D01*
X0161767Y0055656D01*
X0161880Y0055860D01*
X0161988Y0056068D01*
X0162091Y0056278D01*
X0162189Y0056490D01*
X0162282Y0056705D01*
X0162369Y0056922D01*
X0162451Y0057141D01*
X0162527Y0057362D01*
X0162599Y0057585D01*
X0162664Y0057810D01*
X0162724Y0058036D01*
X0162779Y0058263D01*
X0162828Y0058492D01*
X0162871Y0058722D01*
X0162909Y0058953D01*
X0162941Y0059184D01*
X0162967Y0059417D01*
X0162988Y0059650D01*
X0163002Y0059883D01*
X0163012Y0060117D01*
X0163015Y0060351D01*
X0163013Y0060585D01*
X0163005Y0060819D01*
X0162991Y0061052D01*
X0162971Y0061285D01*
X0162946Y0061518D01*
X0162915Y0061750D01*
X0162878Y0061981D01*
X0162836Y0062211D01*
X0162788Y0062440D01*
X0162735Y0062668D01*
X0162675Y0062894D01*
X0162611Y0063119D01*
X0162541Y0063342D01*
X0162465Y0063563D01*
X0162384Y0063783D01*
X0162298Y0064000D01*
X0162206Y0064215D01*
X0162109Y0064428D01*
X0162007Y0064639D01*
X0161900Y0064847D01*
X0161787Y0065052D01*
X0161670Y0065254D01*
X0161548Y0065454D01*
X0161421Y0065650D01*
X0161289Y0065843D01*
X0161152Y0066033D01*
X0161011Y0066220D01*
X0160865Y0066403D01*
X0160715Y0066582D01*
X0160561Y0066758D01*
X0160402Y0066929D01*
X0160239Y0067097D01*
X0160072Y0067261D01*
X0159901Y0067421D01*
X0160116Y0067330D01*
X0160333Y0067246D01*
X0160551Y0067166D01*
X0160772Y0067092D01*
X0160994Y0067023D01*
X0161218Y0066960D01*
X0161444Y0066902D01*
X0161670Y0066850D01*
X0161898Y0066803D01*
X0162127Y0066762D01*
X0162357Y0066726D01*
X0162588Y0066696D01*
X0162820Y0066672D01*
X0163052Y0066653D01*
X0163284Y0066640D01*
X0163517Y0066633D01*
X0163749Y0066631D01*
X0163982Y0066635D01*
X0164215Y0066645D01*
X0164447Y0066660D01*
X0164679Y0066681D01*
X0164910Y0066708D01*
X0165140Y0066740D01*
X0165370Y0066778D01*
X0165598Y0066822D01*
X0165826Y0066871D01*
X0166052Y0066926D01*
X0166277Y0066986D01*
X0166500Y0067052D01*
X0166722Y0067123D01*
X0166942Y0067199D01*
X0167160Y0067281D01*
X0167375Y0067368D01*
X0167589Y0067460D01*
X0167800Y0067558D01*
X0168009Y0067661D01*
X0168215Y0067768D01*
X0168419Y0067881D01*
X0168620Y0067999D01*
X0168818Y0068121D01*
X0169013Y0068249D01*
X0169204Y0068381D01*
X0169393Y0068517D01*
X0169578Y0068658D01*
X0169759Y0068804D01*
X0169937Y0068954D01*
X0170111Y0069109D01*
X0170281Y0069267D01*
X0170448Y0069430D01*
X0170610Y0069597D01*
X0170768Y0069767D01*
X0170922Y0069942D01*
X0171072Y0070120D01*
X0171217Y0070302D01*
X0171358Y0070487D01*
X0171495Y0070676D01*
X0171626Y0070868D01*
X0171753Y0071063D01*
X0171875Y0071261D01*
X0171993Y0071462D01*
X0172105Y0071666D01*
X0172212Y0071872D01*
X0172314Y0072081D01*
X0172412Y0072293D01*
X0172503Y0072506D01*
X0172590Y0072722D01*
X0172671Y0072940D01*
X0172747Y0073160D01*
X0172818Y0073382D01*
X0172883Y0073606D01*
X0172943Y0073831D01*
X0172997Y0074057D01*
X0173046Y0074284D01*
X0173089Y0074513D01*
X0173126Y0074743D01*
X0173158Y0074973D01*
X0173185Y0075205D01*
X0173205Y0075436D01*
X0173220Y0075669D01*
X0173229Y0075901D01*
X0173233Y0076134D01*
X0173231Y0076367D01*
X0173223Y0076599D01*
X0173210Y0076832D01*
X0173190Y0077064D01*
X0173166Y0077295D01*
X0173135Y0077526D01*
X0173099Y0077756D01*
X0173058Y0077985D01*
X0173010Y0078212D01*
X0172958Y0078439D01*
X0172899Y0078664D01*
X0172835Y0078888D01*
X0172766Y0079110D01*
X0172692Y0079331D01*
X0172612Y0079549D01*
X0172526Y0079766D01*
X0172436Y0079980D01*
X0172340Y0080192D01*
X0172239Y0080402D01*
X0172133Y0080609D01*
X0172022Y0080814D01*
X0171906Y0081016D01*
X0171785Y0081215D01*
X0171659Y0081410D01*
X0171529Y0081603D01*
X0171394Y0081793D01*
X0171254Y0081979D01*
X0171110Y0082161D01*
X0170961Y0082341D01*
X0170809Y0082516D01*
X0170651Y0082688D01*
X0170490Y0082855D01*
X0170325Y0083019D01*
X0170155Y0083179D01*
X0169982Y0083334D01*
X0169805Y0083485D01*
X0169625Y0083632D01*
X0169441Y0083775D01*
X0169253Y0083913D01*
X0169062Y0084046D01*
X0168868Y0084174D01*
X0168671Y0084298D01*
X0168471Y0084417D01*
X0168268Y0084531D01*
X0168063Y0084640D01*
X0167855Y0084744D01*
X0167854Y0084743D02*
X0168087Y0084719D01*
X0168320Y0084700D01*
X0168553Y0084688D01*
X0168787Y0084681D01*
X0169021Y0084679D01*
X0169254Y0084684D01*
X0169488Y0084694D01*
X0169721Y0084710D01*
X0169954Y0084731D01*
X0170186Y0084758D01*
X0170418Y0084791D01*
X0170648Y0084830D01*
X0170878Y0084874D01*
X0171106Y0084924D01*
X0171333Y0084980D01*
X0171559Y0085041D01*
X0171783Y0085107D01*
X0172005Y0085179D01*
X0172226Y0085257D01*
X0172445Y0085340D01*
X0172661Y0085428D01*
X0172875Y0085521D01*
X0173087Y0085620D01*
X0173297Y0085724D01*
X0173504Y0085833D01*
X0173708Y0085947D01*
X0173909Y0086066D01*
X0174107Y0086190D01*
X0174302Y0086319D01*
X0174494Y0086452D01*
X0174683Y0086590D01*
X0174868Y0086733D01*
X0175050Y0086880D01*
X0175228Y0087032D01*
X0175402Y0087188D01*
X0175572Y0087348D01*
X0175738Y0087512D01*
X0175900Y0087681D01*
X0176058Y0087853D01*
X0176212Y0088029D01*
X0176362Y0088209D01*
X0176507Y0088392D01*
X0176647Y0088579D01*
X0176783Y0088770D01*
X0176914Y0088963D01*
X0177040Y0089160D01*
X0177161Y0089360D01*
X0177278Y0089562D01*
X0177389Y0089768D01*
X0177496Y0089976D01*
X0177597Y0090187D01*
X0177693Y0090400D01*
X0177784Y0090616D01*
X0177869Y0090833D01*
X0177949Y0091053D01*
X0178024Y0091274D01*
X0178093Y0091498D01*
X0178157Y0091723D01*
X0178215Y0091949D01*
X0178267Y0092177D01*
X0178314Y0092406D01*
X0178356Y0092636D01*
X0178391Y0092867D01*
X0178421Y0093099D01*
X0178446Y0093331D01*
X0178464Y0093564D01*
X0178477Y0093798D01*
X0178484Y0094031D01*
X0178486Y0094265D01*
X0178481Y0094499D01*
X0178471Y0094733D01*
X0178456Y0094966D01*
X0178434Y0095199D01*
X0178407Y0095431D01*
X0178374Y0095662D01*
X0178335Y0095893D01*
X0178291Y0096122D01*
X0178241Y0096351D01*
X0178186Y0096578D01*
X0178125Y0096804D01*
X0178059Y0097028D01*
X0177987Y0097250D01*
X0177909Y0097471D01*
X0177826Y0097689D01*
X0177738Y0097906D01*
X0177645Y0098120D01*
X0177546Y0098332D01*
X0177442Y0098542D01*
X0177333Y0098748D01*
X0177219Y0098953D01*
X0177100Y0099154D01*
X0176977Y0099352D01*
X0176848Y0099547D01*
X0176714Y0099739D01*
X0176576Y0099928D01*
X0176434Y0100113D01*
X0176286Y0100295D01*
X0176135Y0100473D01*
X0175979Y0100647D01*
X0175819Y0100817D01*
X0175654Y0100984D01*
X0175486Y0101146D01*
X0175314Y0101304D01*
X0175138Y0101458D01*
X0174958Y0101607D01*
X0174775Y0101752D01*
X0174588Y0101892D01*
X0174397Y0102028D01*
X0174204Y0102159D01*
X0174007Y0102286D01*
X0173807Y0102407D01*
X0173605Y0102524D01*
X0173399Y0102635D01*
X0173191Y0102741D01*
X0172980Y0102843D01*
X0172767Y0102939D01*
X0172552Y0103030D01*
X0172334Y0103115D01*
X0172115Y0103195D01*
X0171893Y0103270D01*
X0171670Y0103339D01*
X0171445Y0103403D01*
X0171218Y0103461D01*
X0170991Y0103514D01*
X0170762Y0103561D01*
X0170532Y0103602D01*
X0170762Y0103643D01*
X0170991Y0103690D01*
X0171218Y0103743D01*
X0171445Y0103801D01*
X0171670Y0103865D01*
X0171893Y0103934D01*
X0172115Y0104009D01*
X0172334Y0104089D01*
X0172552Y0104174D01*
X0172767Y0104265D01*
X0172980Y0104361D01*
X0173191Y0104463D01*
X0173399Y0104569D01*
X0173605Y0104680D01*
X0173807Y0104797D01*
X0174007Y0104918D01*
X0174204Y0105045D01*
X0174397Y0105176D01*
X0174588Y0105312D01*
X0174775Y0105452D01*
X0174958Y0105597D01*
X0175138Y0105746D01*
X0175314Y0105900D01*
X0175486Y0106058D01*
X0175654Y0106220D01*
X0175819Y0106387D01*
X0175979Y0106557D01*
X0176135Y0106731D01*
X0176286Y0106909D01*
X0176434Y0107091D01*
X0176576Y0107276D01*
X0176714Y0107465D01*
X0176848Y0107657D01*
X0176977Y0107852D01*
X0177100Y0108050D01*
X0177219Y0108251D01*
X0177333Y0108456D01*
X0177442Y0108662D01*
X0177546Y0108872D01*
X0177645Y0109084D01*
X0177738Y0109298D01*
X0177826Y0109515D01*
X0177909Y0109733D01*
X0177987Y0109954D01*
X0178059Y0110176D01*
X0178125Y0110400D01*
X0178186Y0110626D01*
X0178241Y0110853D01*
X0178291Y0111082D01*
X0178335Y0111311D01*
X0178374Y0111542D01*
X0178407Y0111773D01*
X0178434Y0112005D01*
X0178456Y0112238D01*
X0178471Y0112471D01*
X0178481Y0112705D01*
X0178486Y0112939D01*
X0178484Y0113173D01*
X0178477Y0113406D01*
X0178464Y0113640D01*
X0178446Y0113873D01*
X0178421Y0114105D01*
X0178391Y0114337D01*
X0178356Y0114568D01*
X0178314Y0114798D01*
X0178267Y0115027D01*
X0178215Y0115255D01*
X0178157Y0115481D01*
X0178093Y0115706D01*
X0178024Y0115930D01*
X0177949Y0116151D01*
X0177869Y0116371D01*
X0177784Y0116588D01*
X0177693Y0116804D01*
X0177597Y0117017D01*
X0177496Y0117228D01*
X0177389Y0117436D01*
X0177278Y0117642D01*
X0177161Y0117844D01*
X0177040Y0118044D01*
X0176914Y0118241D01*
X0176783Y0118434D01*
X0176647Y0118625D01*
X0176507Y0118812D01*
X0176362Y0118995D01*
X0176212Y0119175D01*
X0176058Y0119351D01*
X0175900Y0119523D01*
X0175738Y0119692D01*
X0175572Y0119856D01*
X0175402Y0120016D01*
X0175228Y0120172D01*
X0175050Y0120324D01*
X0174868Y0120471D01*
X0174683Y0120614D01*
X0174494Y0120752D01*
X0174302Y0120885D01*
X0174107Y0121014D01*
X0173909Y0121138D01*
X0173708Y0121257D01*
X0173504Y0121371D01*
X0173297Y0121480D01*
X0173087Y0121584D01*
X0172875Y0121683D01*
X0172661Y0121776D01*
X0172445Y0121864D01*
X0172226Y0121947D01*
X0172005Y0122025D01*
X0171783Y0122097D01*
X0171559Y0122163D01*
X0171333Y0122224D01*
X0171106Y0122280D01*
X0170878Y0122330D01*
X0170648Y0122374D01*
X0170418Y0122413D01*
X0170186Y0122446D01*
X0169954Y0122473D01*
X0169721Y0122494D01*
X0169488Y0122510D01*
X0169254Y0122520D01*
X0169021Y0122525D01*
X0168787Y0122523D01*
X0168553Y0122516D01*
X0168320Y0122504D01*
X0168087Y0122485D01*
X0167854Y0122461D01*
X0167854Y0122460D02*
X0168065Y0122561D01*
X0168273Y0122667D01*
X0168478Y0122778D01*
X0168680Y0122894D01*
X0168880Y0123015D01*
X0169077Y0123140D01*
X0169270Y0123271D01*
X0169460Y0123406D01*
X0169647Y0123546D01*
X0169831Y0123690D01*
X0170010Y0123839D01*
X0170187Y0123992D01*
X0170359Y0124149D01*
X0170527Y0124311D01*
X0170692Y0124476D01*
X0170852Y0124646D01*
X0171008Y0124820D01*
X0171160Y0124997D01*
X0171307Y0125178D01*
X0171450Y0125362D01*
X0171588Y0125550D01*
X0171722Y0125741D01*
X0171851Y0125936D01*
X0171975Y0126133D01*
X0172095Y0126334D01*
X0172209Y0126537D01*
X0172318Y0126743D01*
X0172423Y0126952D01*
X0172522Y0127163D01*
X0172616Y0127377D01*
X0172705Y0127593D01*
X0172788Y0127811D01*
X0172866Y0128031D01*
X0172939Y0128253D01*
X0173006Y0128476D01*
X0173067Y0128701D01*
X0173123Y0128928D01*
X0173174Y0129155D01*
X0173219Y0129384D01*
X0173258Y0129614D01*
X0173292Y0129845D01*
X0173320Y0130077D01*
X0173343Y0130309D01*
X0173359Y0130542D01*
X0173370Y0130775D01*
X0173375Y0131008D01*
X0173375Y0131242D01*
X0173369Y0131475D01*
X0173357Y0131708D01*
X0173339Y0131941D01*
X0173316Y0132173D01*
X0173287Y0132405D01*
X0173253Y0132635D01*
X0173212Y0132865D01*
X0173167Y0133094D01*
X0173115Y0133322D01*
X0173058Y0133548D01*
X0172996Y0133773D01*
X0172928Y0133996D01*
X0172854Y0134218D01*
X0172775Y0134437D01*
X0172691Y0134655D01*
X0172602Y0134870D01*
X0172507Y0135084D01*
X0172407Y0135294D01*
X0172302Y0135503D01*
X0172192Y0135709D01*
X0172076Y0135911D01*
X0171956Y0136112D01*
X0171831Y0136309D01*
X0171702Y0136503D01*
X0171567Y0136693D01*
X0171428Y0136881D01*
X0171285Y0137065D01*
X0171136Y0137245D01*
X0170984Y0137422D01*
X0170827Y0137595D01*
X0170666Y0137764D01*
X0170501Y0137929D01*
X0170332Y0138089D01*
X0170159Y0138246D01*
X0169983Y0138399D01*
X0169802Y0138547D01*
X0169618Y0138690D01*
X0169431Y0138829D01*
X0169240Y0138964D01*
X0169046Y0139094D01*
X0168849Y0139219D01*
X0168649Y0139339D01*
X0168446Y0139454D01*
X0168240Y0139564D01*
X0168032Y0139669D01*
X0167821Y0139769D01*
X0167608Y0139864D01*
X0167392Y0139953D01*
X0167175Y0140037D01*
X0166955Y0140116D01*
X0166734Y0140190D01*
X0166510Y0140258D01*
X0166286Y0140320D01*
X0166059Y0140377D01*
X0165832Y0140429D01*
X0165603Y0140474D01*
X0165373Y0140515D01*
X0165142Y0140549D01*
X0164911Y0140578D01*
X0164679Y0140601D01*
X0164446Y0140619D01*
X0164213Y0140631D01*
X0163979Y0140637D01*
X0163746Y0140637D01*
X0163513Y0140632D01*
X0163280Y0140621D01*
X0163047Y0140605D01*
X0162815Y0140582D01*
X0162583Y0140554D01*
X0162352Y0140520D01*
X0162122Y0140481D01*
X0161893Y0140436D01*
X0161665Y0140385D01*
X0161439Y0140329D01*
X0161214Y0140268D01*
X0160990Y0140200D01*
X0160768Y0140128D01*
X0160549Y0140050D01*
X0160331Y0139966D01*
X0160115Y0139878D01*
X0159901Y0139784D01*
X0159902Y0139783D02*
X0160074Y0139941D01*
X0160242Y0140103D01*
X0160407Y0140269D01*
X0160567Y0140439D01*
X0160723Y0140613D01*
X0160874Y0140790D01*
X0161022Y0140971D01*
X0161165Y0141156D01*
X0161303Y0141344D01*
X0161436Y0141536D01*
X0161565Y0141731D01*
X0161689Y0141928D01*
X0161808Y0142129D01*
X0161923Y0142333D01*
X0162032Y0142539D01*
X0162136Y0142748D01*
X0162235Y0142960D01*
X0162329Y0143174D01*
X0162417Y0143390D01*
X0162500Y0143608D01*
X0162578Y0143828D01*
X0162650Y0144050D01*
X0162717Y0144274D01*
X0162779Y0144499D01*
X0162834Y0144726D01*
X0162885Y0144954D01*
X0162929Y0145183D01*
X0162968Y0145413D01*
X0163002Y0145645D01*
X0163030Y0145876D01*
X0163052Y0146109D01*
X0163068Y0146342D01*
X0163079Y0146575D01*
X0163084Y0146809D01*
X0163083Y0147042D01*
X0163076Y0147276D01*
X0163064Y0147509D01*
X0163046Y0147742D01*
X0163023Y0147974D01*
X0162993Y0148206D01*
X0162958Y0148436D01*
X0162918Y0148666D01*
X0162871Y0148895D01*
X0162820Y0149123D01*
X0162762Y0149349D01*
X0162699Y0149574D01*
X0162631Y0149797D01*
X0162557Y0150019D01*
X0162478Y0150239D01*
X0162393Y0150456D01*
X0162303Y0150672D01*
X0162208Y0150885D01*
X0162108Y0151096D01*
X0162002Y0151304D01*
X0161891Y0151510D01*
X0161776Y0151713D01*
X0161655Y0151913D01*
X0161530Y0152110D01*
X0161400Y0152304D01*
X0161265Y0152494D01*
X0161125Y0152681D01*
X0160981Y0152865D01*
X0160833Y0153045D01*
X0160680Y0153222D01*
X0160523Y0153395D01*
X0160361Y0153564D01*
X0160196Y0153728D01*
X0160027Y0153889D01*
X0159853Y0154046D01*
X0159676Y0154198D01*
X0159495Y0154346D01*
X0159311Y0154489D01*
X0159123Y0154628D01*
X0158932Y0154762D01*
X0158738Y0154891D01*
X0158540Y0155016D01*
X0158340Y0155136D01*
X0158137Y0155251D01*
X0157931Y0155360D01*
X0157722Y0155465D01*
X0157511Y0155565D01*
X0157297Y0155659D01*
X0157081Y0155748D01*
X0156863Y0155832D01*
X0156643Y0155911D01*
X0156421Y0155984D01*
X0156198Y0156051D01*
X0155973Y0156113D01*
X0155746Y0156170D01*
X0155518Y0156221D01*
X0155289Y0156266D01*
X0155059Y0156306D01*
X0154828Y0156340D01*
X0154596Y0156368D01*
X0154364Y0156391D01*
X0154131Y0156408D01*
X0153898Y0156420D01*
X0153664Y0156425D01*
X0153431Y0156425D01*
X0153198Y0156419D01*
X0152964Y0156408D01*
X0152731Y0156391D01*
X0152499Y0156368D01*
X0152267Y0156339D01*
X0152036Y0156305D01*
X0151806Y0156265D01*
X0151577Y0156219D01*
X0151349Y0156168D01*
X0151123Y0156112D01*
X0150898Y0156049D01*
X0150674Y0155982D01*
X0150453Y0155908D01*
X0150233Y0155830D01*
X0150015Y0155746D01*
X0149799Y0155657D01*
X0149585Y0155562D01*
X0149374Y0155462D01*
X0149166Y0155357D01*
X0148960Y0155247D01*
X0148756Y0155133D01*
X0148556Y0155013D01*
X0148359Y0154888D01*
X0148164Y0154758D01*
X0147973Y0154624D01*
X0147786Y0154485D01*
X0147601Y0154342D01*
X0147421Y0154194D01*
X0147421Y0154193D02*
X0147543Y0154391D01*
X0147659Y0154592D01*
X0147771Y0154796D01*
X0147878Y0155003D01*
X0147979Y0155212D01*
X0148076Y0155423D01*
X0148167Y0155637D01*
X0148253Y0155853D01*
X0148334Y0156071D01*
X0148410Y0156291D01*
X0148480Y0156512D01*
X0148544Y0156736D01*
X0148604Y0156961D01*
X0148657Y0157187D01*
X0148705Y0157414D01*
X0148748Y0157643D01*
X0148785Y0157872D01*
X0148816Y0158103D01*
X0148842Y0158334D01*
X0148862Y0158565D01*
X0148876Y0158797D01*
X0148885Y0159030D01*
X0148888Y0159262D01*
X0148885Y0159495D01*
X0148877Y0159727D01*
X0148863Y0159959D01*
X0148843Y0160191D01*
X0148818Y0160422D01*
X0148787Y0160652D01*
X0148751Y0160882D01*
X0148708Y0161110D01*
X0148661Y0161338D01*
X0148607Y0161564D01*
X0148549Y0161789D01*
X0148484Y0162012D01*
X0148415Y0162234D01*
X0148340Y0162454D01*
X0148259Y0162672D01*
X0148173Y0162888D01*
X0148082Y0163102D01*
X0147986Y0163314D01*
X0147885Y0163523D01*
X0147779Y0163730D01*
X0147667Y0163934D01*
X0147551Y0164135D01*
X0147429Y0164333D01*
X0147303Y0164529D01*
X0147173Y0164721D01*
X0147037Y0164910D01*
X0146897Y0165095D01*
X0146753Y0165277D01*
X0146604Y0165456D01*
X0146450Y0165631D01*
X0146293Y0165802D01*
X0146131Y0165969D01*
X0145966Y0166132D01*
X0145796Y0166291D01*
X0145623Y0166446D01*
X0145446Y0166597D01*
X0145265Y0166743D01*
X0145081Y0166884D01*
X0144893Y0167022D01*
X0144702Y0167154D01*
X0144508Y0167282D01*
X0144311Y0167405D01*
X0144111Y0167523D01*
X0143908Y0167637D01*
X0143702Y0167745D01*
X0143494Y0167848D01*
X0143283Y0167946D01*
X0143070Y0168039D01*
X0142855Y0168127D01*
X0142637Y0168210D01*
X0142418Y0168287D01*
X0142197Y0168359D01*
X0141974Y0168425D01*
X0141750Y0168486D01*
X0141524Y0168541D01*
X0141297Y0168591D01*
X0141069Y0168635D01*
X0140839Y0168674D01*
X0140609Y0168707D01*
X0140378Y0168734D01*
X0140147Y0168756D01*
X0139915Y0168772D01*
X0139683Y0168783D01*
X0139450Y0168788D01*
X0139218Y0168787D01*
X0138986Y0168780D01*
X0138753Y0168768D01*
X0138522Y0168750D01*
X0138290Y0168727D01*
X0138060Y0168697D01*
X0137830Y0168663D01*
X0137601Y0168622D01*
X0137373Y0168576D01*
X0137146Y0168525D01*
X0136921Y0168468D01*
X0136697Y0168405D01*
X0136475Y0168337D01*
X0136254Y0168264D01*
X0136036Y0168185D01*
X0135819Y0168101D01*
X0135604Y0168011D01*
X0135392Y0167917D01*
X0135182Y0167817D01*
X0134974Y0167712D01*
X0134770Y0167602D01*
X0134567Y0167488D01*
X0134368Y0167368D01*
X0134172Y0167243D01*
X0133979Y0167114D01*
X0133789Y0166980D01*
X0133602Y0166841D01*
X0133419Y0166698D01*
X0133239Y0166551D01*
X0133063Y0166399D01*
X0132891Y0166243D01*
X0132723Y0166082D01*
X0132558Y0165918D01*
X0132398Y0165750D01*
X0132242Y0165577D01*
X0132090Y0165401D01*
X0131942Y0165222D01*
X0131799Y0165039D01*
X0131661Y0164852D01*
X0131527Y0164662D01*
X0131397Y0164469D01*
X0131398Y0164468D02*
X0131454Y0164694D01*
X0131506Y0164922D01*
X0131551Y0165150D01*
X0131591Y0165380D01*
X0131626Y0165611D01*
X0131654Y0165842D01*
X0131677Y0166074D01*
X0131695Y0166307D01*
X0131706Y0166540D01*
X0131712Y0166773D01*
X0131712Y0167006D01*
X0131707Y0167239D01*
X0131696Y0167472D01*
X0131679Y0167704D01*
X0131656Y0167936D01*
X0131628Y0168168D01*
X0131594Y0168398D01*
X0131555Y0168628D01*
X0131510Y0168857D01*
X0131459Y0169085D01*
X0131403Y0169311D01*
X0131341Y0169536D01*
X0131274Y0169759D01*
X0131201Y0169980D01*
X0131123Y0170200D01*
X0131039Y0170418D01*
X0130951Y0170633D01*
X0130857Y0170847D01*
X0130757Y0171058D01*
X0130653Y0171266D01*
X0130544Y0171472D01*
X0130429Y0171675D01*
X0130310Y0171876D01*
X0130186Y0172073D01*
X0130057Y0172267D01*
X0129923Y0172458D01*
X0129785Y0172646D01*
X0129642Y0172830D01*
X0129495Y0173011D01*
X0129343Y0173188D01*
X0129187Y0173361D01*
X0129027Y0173530D01*
X0128862Y0173696D01*
X0128694Y0173857D01*
X0128522Y0174014D01*
X0128346Y0174167D01*
X0128166Y0174316D01*
X0127983Y0174460D01*
X0127796Y0174600D01*
X0127606Y0174735D01*
X0127413Y0174865D01*
X0127216Y0174990D01*
X0127017Y0175111D01*
X0126814Y0175227D01*
X0126609Y0175338D01*
X0126401Y0175443D01*
X0126191Y0175544D01*
X0125978Y0175639D01*
X0125763Y0175730D01*
X0125546Y0175814D01*
X0125327Y0175894D01*
X0125106Y0175968D01*
X0124883Y0176037D01*
X0124659Y0176100D01*
X0124433Y0176158D01*
X0124206Y0176210D01*
X0123977Y0176257D01*
X0123748Y0176298D01*
X0123517Y0176333D01*
X0123286Y0176363D01*
X0123054Y0176387D01*
X0122822Y0176406D01*
X0122589Y0176418D01*
X0122356Y0176425D01*
X0122123Y0176427D01*
X0121889Y0176422D01*
X0121657Y0176412D01*
X0121424Y0176397D01*
X0121192Y0176375D01*
X0120960Y0176348D01*
X0120729Y0176315D01*
X0120499Y0176277D01*
X0120270Y0176233D01*
X0120043Y0176183D01*
X0119816Y0176128D01*
X0119591Y0176067D01*
X0119367Y0176001D01*
X0119146Y0175929D01*
X0118926Y0175852D01*
X0118707Y0175770D01*
X0118491Y0175682D01*
X0118278Y0175589D01*
X0118066Y0175491D01*
X0117857Y0175387D01*
X0117651Y0175279D01*
X0117447Y0175166D01*
X0117246Y0175047D01*
X0117048Y0174924D01*
X0116854Y0174796D01*
X0116662Y0174663D01*
X0116474Y0174525D01*
X0116289Y0174383D01*
X0116107Y0174237D01*
X0115930Y0174086D01*
X0115756Y0173931D01*
X0115585Y0173771D01*
X0115419Y0173608D01*
X0115257Y0173440D01*
X0115099Y0173269D01*
X0114945Y0173094D01*
X0114796Y0172915D01*
X0114651Y0172732D01*
X0114511Y0172546D01*
X0114375Y0172356D01*
X0114244Y0172164D01*
X0114117Y0171968D01*
X0113996Y0171769D01*
X0113879Y0171567D01*
X0113767Y0171362D01*
X0113660Y0171155D01*
X0113559Y0170945D01*
X0113462Y0170733D01*
X0113371Y0170518D01*
X0113285Y0170302D01*
X0113205Y0170083D01*
X0113129Y0169862D01*
X0113130Y0169862D02*
X0113122Y0170095D01*
X0113108Y0170327D01*
X0113089Y0170559D01*
X0113064Y0170790D01*
X0113033Y0171021D01*
X0112997Y0171251D01*
X0112955Y0171480D01*
X0112908Y0171708D01*
X0112855Y0171934D01*
X0112796Y0172160D01*
X0112732Y0172383D01*
X0112663Y0172605D01*
X0112588Y0172826D01*
X0112508Y0173044D01*
X0112422Y0173261D01*
X0112332Y0173475D01*
X0112236Y0173687D01*
X0112134Y0173897D01*
X0112028Y0174104D01*
X0111917Y0174308D01*
X0111801Y0174510D01*
X0111680Y0174708D01*
X0111554Y0174904D01*
X0111423Y0175097D01*
X0111288Y0175286D01*
X0111148Y0175472D01*
X0111004Y0175655D01*
X0110855Y0175834D01*
X0110702Y0176009D01*
X0110544Y0176180D01*
X0110383Y0176348D01*
X0110217Y0176511D01*
X0110048Y0176671D01*
X0109875Y0176826D01*
X0109698Y0176977D01*
X0109517Y0177124D01*
X0109333Y0177266D01*
X0109145Y0177404D01*
X0108954Y0177537D01*
X0108760Y0177665D01*
X0108563Y0177788D01*
X0108363Y0177907D01*
X0108160Y0178021D01*
X0107954Y0178130D01*
X0107746Y0178233D01*
X0107535Y0178332D01*
X0107322Y0178425D01*
X0107106Y0178514D01*
X0106889Y0178597D01*
X0106669Y0178674D01*
X0106448Y0178746D01*
X0106225Y0178813D01*
X0106001Y0178874D01*
X0105775Y0178930D01*
X0105548Y0178980D01*
X0105319Y0179025D01*
X0105090Y0179064D01*
X0104860Y0179098D01*
X0104629Y0179126D01*
X0104397Y0179148D01*
X0104165Y0179164D01*
X0103932Y0179175D01*
X0103700Y0179181D01*
X0103467Y0179180D01*
X0103234Y0179174D01*
X0103002Y0179162D01*
X0102770Y0179145D01*
X0102538Y0179121D01*
X0102307Y0179093D01*
X0102077Y0179058D01*
X0101848Y0179018D01*
X0101620Y0178972D01*
X0101393Y0178921D01*
X0101167Y0178864D01*
X0100943Y0178802D01*
X0100720Y0178734D01*
X0100499Y0178661D01*
X0100280Y0178583D01*
X0100063Y0178499D01*
X0099848Y0178410D01*
X0099635Y0178316D01*
X0099425Y0178216D01*
X0099217Y0178112D01*
X0099012Y0178002D01*
X0098809Y0177887D01*
X0098610Y0177768D01*
X0098413Y0177644D01*
X0098219Y0177514D01*
X0098029Y0177381D01*
X0097842Y0177242D01*
X0097658Y0177099D01*
X0097478Y0176952D01*
X0097302Y0176800D01*
X0097129Y0176644D01*
X0096960Y0176484D01*
X0096795Y0176320D01*
X0096635Y0176151D01*
X0096478Y0175979D01*
X0096326Y0175803D01*
X0096178Y0175624D01*
X0096034Y0175441D01*
X0095895Y0175254D01*
X0095760Y0175064D01*
X0095630Y0174871D01*
X0095505Y0174675D01*
X0095385Y0174476D01*
X0095270Y0174274D01*
X0095159Y0174069D01*
X0095054Y0173861D01*
X0094954Y0173651D01*
X0094859Y0173439D01*
X0094769Y0173224D01*
X0094684Y0173007D01*
X0094605Y0172789D01*
X0094531Y0172568D01*
X0094463Y0172346D01*
X0094400Y0172122D01*
X0094342Y0171896D01*
X0094290Y0171669D01*
X0094243Y0171441D01*
X0094203Y0171212D01*
X0094167Y0170982D01*
X0094138Y0170751D01*
X0094114Y0170520D01*
X0094095Y0170288D01*
X0094083Y0170055D01*
X0094076Y0169823D01*
X0094074Y0169823D02*
X0094008Y0170046D01*
X0093936Y0170267D01*
X0093858Y0170487D01*
X0093775Y0170705D01*
X0093687Y0170920D01*
X0093594Y0171133D01*
X0093495Y0171344D01*
X0093392Y0171553D01*
X0093283Y0171759D01*
X0093169Y0171962D01*
X0093050Y0172162D01*
X0092927Y0172359D01*
X0092798Y0172554D01*
X0092665Y0172745D01*
X0092528Y0172932D01*
X0092385Y0173117D01*
X0092239Y0173298D01*
X0092088Y0173475D01*
X0091932Y0173648D01*
X0091773Y0173818D01*
X0091609Y0173983D01*
X0091441Y0174145D01*
X0091270Y0174302D01*
X0091094Y0174455D01*
X0090915Y0174604D01*
X0090733Y0174748D01*
X0090547Y0174888D01*
X0090357Y0175024D01*
X0090164Y0175154D01*
X0089968Y0175280D01*
X0089770Y0175401D01*
X0089568Y0175517D01*
X0089363Y0175628D01*
X0089156Y0175734D01*
X0088946Y0175835D01*
X0088734Y0175931D01*
X0088519Y0176022D01*
X0088303Y0176107D01*
X0088084Y0176187D01*
X0087864Y0176262D01*
X0087641Y0176331D01*
X0087417Y0176395D01*
X0087192Y0176453D01*
X0086965Y0176506D01*
X0086737Y0176553D01*
X0086508Y0176595D01*
X0086278Y0176631D01*
X0086047Y0176661D01*
X0085816Y0176686D01*
X0085584Y0176705D01*
X0085351Y0176718D01*
X0085119Y0176726D01*
X0084886Y0176728D01*
X0084653Y0176724D01*
X0084420Y0176715D01*
X0084188Y0176700D01*
X0083956Y0176679D01*
X0083725Y0176652D01*
X0083494Y0176620D01*
X0083264Y0176583D01*
X0083036Y0176539D01*
X0082808Y0176490D01*
X0082582Y0176436D01*
X0082357Y0176376D01*
X0082133Y0176310D01*
X0081912Y0176239D01*
X0081692Y0176163D01*
X0081474Y0176081D01*
X0081258Y0175994D01*
X0081044Y0175902D01*
X0080832Y0175805D01*
X0080623Y0175702D01*
X0080417Y0175594D01*
X0080213Y0175482D01*
X0080012Y0175364D01*
X0079814Y0175241D01*
X0079619Y0175114D01*
X0079428Y0174982D01*
X0079239Y0174845D01*
X0079054Y0174704D01*
X0078873Y0174558D01*
X0078695Y0174408D01*
X0078521Y0174254D01*
X0078350Y0174095D01*
X0078184Y0173932D01*
X0078021Y0173765D01*
X0077863Y0173595D01*
X0077709Y0173420D01*
X0077559Y0173242D01*
X0077414Y0173060D01*
X0077273Y0172874D01*
X0077137Y0172686D01*
X0077005Y0172494D01*
X0076878Y0172298D01*
X0076756Y0172100D01*
X0076639Y0171899D01*
X0076527Y0171695D01*
X0076420Y0171488D01*
X0076318Y0171279D01*
X0076221Y0171067D01*
X0076129Y0170853D01*
X0076042Y0170637D01*
X0075961Y0170419D01*
X0075885Y0170199D01*
X0075815Y0169977D01*
X0075750Y0169753D01*
X0075691Y0169528D01*
X0075637Y0169302D01*
X0075588Y0169074D01*
X0075545Y0168845D01*
X0075508Y0168615D01*
X0075477Y0168385D01*
X0075451Y0168153D01*
X0075431Y0167921D01*
X0075416Y0167689D01*
X0075407Y0167456D01*
X0075404Y0167223D01*
X0075407Y0166991D01*
X0075415Y0166758D01*
X0075429Y0166525D01*
X0075448Y0166293D01*
X0075473Y0166062D01*
X0075504Y0165831D01*
X0075541Y0165601D01*
X0075583Y0165372D01*
X0075631Y0165144D01*
X0075684Y0164918D01*
X0075743Y0164693D01*
X0075807Y0164469D01*
X0075675Y0164660D01*
X0075539Y0164848D01*
X0075398Y0165033D01*
X0075253Y0165214D01*
X0075103Y0165392D01*
X0074949Y0165566D01*
X0074790Y0165736D01*
X0074628Y0165902D01*
X0074461Y0166065D01*
X0074291Y0166223D01*
X0074117Y0166377D01*
X0073939Y0166526D01*
X0073758Y0166671D01*
X0073573Y0166812D01*
X0073384Y0166948D01*
X0073193Y0167080D01*
X0072998Y0167207D01*
X0072800Y0167329D01*
X0072599Y0167446D01*
X0072396Y0167558D01*
X0072190Y0167665D01*
X0071981Y0167767D01*
X0071770Y0167864D01*
X0071556Y0167956D01*
X0071341Y0168043D01*
X0071123Y0168124D01*
X0070903Y0168200D01*
X0070682Y0168271D01*
X0070459Y0168336D01*
X0070234Y0168396D01*
X0070008Y0168450D01*
X0069781Y0168499D01*
X0069553Y0168542D01*
X0069323Y0168579D01*
X0069093Y0168611D01*
X0068862Y0168637D01*
X0068631Y0168658D01*
X0068399Y0168673D01*
X0068167Y0168682D01*
X0067934Y0168686D01*
X0067702Y0168684D01*
X0067469Y0168676D01*
X0067237Y0168663D01*
X0067006Y0168644D01*
X0066775Y0168619D01*
X0066544Y0168589D01*
X0066315Y0168553D01*
X0066086Y0168511D01*
X0065858Y0168464D01*
X0065632Y0168412D01*
X0065407Y0168354D01*
X0065184Y0168290D01*
X0064962Y0168221D01*
X0064741Y0168146D01*
X0064523Y0168067D01*
X0064307Y0167982D01*
X0064093Y0167891D01*
X0063881Y0167796D01*
X0063672Y0167695D01*
X0063465Y0167589D01*
X0063260Y0167478D01*
X0063059Y0167363D01*
X0062860Y0167242D01*
X0062665Y0167116D01*
X0062472Y0166986D01*
X0062283Y0166851D01*
X0062097Y0166712D01*
X0061914Y0166568D01*
X0061735Y0166420D01*
X0061560Y0166267D01*
X0061389Y0166110D01*
X0061221Y0165949D01*
X0061058Y0165784D01*
X0060898Y0165615D01*
X0060743Y0165442D01*
X0060592Y0165266D01*
X0060445Y0165085D01*
X0060303Y0164902D01*
X0060165Y0164714D01*
X0060032Y0164524D01*
X0059903Y0164330D01*
X0059780Y0164133D01*
X0059661Y0163934D01*
X0059547Y0163731D01*
X0059438Y0163526D01*
X0059334Y0163318D01*
X0059235Y0163108D01*
X0059142Y0162895D01*
X0059053Y0162680D01*
X0058970Y0162463D01*
X0058892Y0162244D01*
X0058820Y0162023D01*
X0058753Y0161801D01*
X0058691Y0161576D01*
X0058635Y0161351D01*
X0058585Y0161124D01*
X0058540Y0160896D01*
X0058500Y0160667D01*
X0058466Y0160437D01*
X0058438Y0160206D01*
X0058415Y0159975D01*
X0058399Y0159743D01*
X0058387Y0159511D01*
X0058382Y0159279D01*
X0058382Y0159047D01*
X0058388Y0158814D01*
X0058399Y0158582D01*
X0058416Y0158350D01*
X0058439Y0158119D01*
X0058467Y0157888D01*
X0058501Y0157658D01*
X0058541Y0157429D01*
X0058586Y0157201D01*
X0058637Y0156975D01*
X0058693Y0156749D01*
X0058755Y0156525D01*
X0058822Y0156303D01*
X0058894Y0156082D01*
X0058972Y0155863D01*
X0059056Y0155646D01*
X0059144Y0155431D01*
X0059238Y0155218D01*
X0059337Y0155008D01*
X0059441Y0154800D01*
X0059550Y0154595D01*
X0059664Y0154393D01*
X0059783Y0154193D01*
X0059784Y0154193D02*
X0059603Y0154341D01*
X0059419Y0154484D01*
X0059231Y0154622D01*
X0059040Y0154756D01*
X0058846Y0154885D01*
X0058649Y0155009D01*
X0058448Y0155128D01*
X0058245Y0155243D01*
X0058039Y0155352D01*
X0057831Y0155457D01*
X0057620Y0155556D01*
X0057406Y0155650D01*
X0057191Y0155739D01*
X0056973Y0155822D01*
X0056753Y0155900D01*
X0056532Y0155973D01*
X0056308Y0156040D01*
X0056083Y0156102D01*
X0055857Y0156158D01*
X0055630Y0156209D01*
X0055401Y0156254D01*
X0055171Y0156294D01*
X0054940Y0156328D01*
X0054709Y0156356D01*
X0054477Y0156379D01*
X0054244Y0156396D01*
X0054011Y0156407D01*
X0053778Y0156412D01*
X0053545Y0156412D01*
X0053312Y0156406D01*
X0053079Y0156395D01*
X0052846Y0156377D01*
X0052614Y0156354D01*
X0052383Y0156326D01*
X0052152Y0156292D01*
X0051922Y0156252D01*
X0051694Y0156206D01*
X0051466Y0156155D01*
X0051240Y0156098D01*
X0051015Y0156036D01*
X0050792Y0155968D01*
X0050570Y0155895D01*
X0050351Y0155817D01*
X0050133Y0155733D01*
X0049918Y0155644D01*
X0049704Y0155549D01*
X0049494Y0155450D01*
X0049285Y0155345D01*
X0049079Y0155235D01*
X0048876Y0155121D01*
X0048676Y0155001D01*
X0048479Y0154876D01*
X0048285Y0154747D01*
X0048094Y0154613D01*
X0047907Y0154474D01*
X0047723Y0154331D01*
X0047542Y0154183D01*
X0047365Y0154031D01*
X0047192Y0153875D01*
X0047023Y0153715D01*
X0046858Y0153550D01*
X0046697Y0153381D01*
X0046540Y0153209D01*
X0046387Y0153033D01*
X0046239Y0152853D01*
X0046095Y0152669D01*
X0045956Y0152482D01*
X0045821Y0152292D01*
X0045691Y0152098D01*
X0045566Y0151901D01*
X0045445Y0151702D01*
X0045330Y0151499D01*
X0045219Y0151294D01*
X0045114Y0151086D01*
X0045014Y0150875D01*
X0044918Y0150662D01*
X0044829Y0150447D01*
X0044744Y0150230D01*
X0044665Y0150011D01*
X0044591Y0149789D01*
X0044522Y0149566D01*
X0044459Y0149342D01*
X0044402Y0149116D01*
X0044350Y0148889D01*
X0044304Y0148660D01*
X0044263Y0148430D01*
X0044228Y0148200D01*
X0044198Y0147968D01*
X0044175Y0147736D01*
X0044156Y0147504D01*
X0044144Y0147271D01*
X0044137Y0147038D01*
X0044136Y0146805D01*
X0044141Y0146572D01*
X0044151Y0146339D01*
X0044167Y0146106D01*
X0044189Y0145874D01*
X0044217Y0145642D01*
X0044250Y0145411D01*
X0044289Y0145181D01*
X0044333Y0144952D01*
X0044383Y0144725D01*
X0044438Y0144498D01*
X0044499Y0144273D01*
X0044566Y0144050D01*
X0044638Y0143828D01*
X0044715Y0143608D01*
X0044798Y0143390D01*
X0044886Y0143174D01*
X0044979Y0142960D01*
X0045078Y0142749D01*
X0045181Y0142540D01*
X0045290Y0142333D01*
X0045404Y0142130D01*
X0045522Y0141929D01*
X0045646Y0141731D01*
X0045774Y0141537D01*
X0045907Y0141345D01*
X0046045Y0141157D01*
X0046187Y0140972D01*
X0046334Y0140791D01*
X0046485Y0140613D01*
X0046641Y0140439D01*
X0046800Y0140269D01*
X0046964Y0140103D01*
X0047132Y0139941D01*
X0047304Y0139784D01*
X0047303Y0139784D02*
X0047089Y0139878D01*
X0046873Y0139966D01*
X0046655Y0140050D01*
X0046436Y0140128D01*
X0046214Y0140200D01*
X0045990Y0140268D01*
X0045765Y0140329D01*
X0045539Y0140385D01*
X0045311Y0140436D01*
X0045082Y0140481D01*
X0044852Y0140520D01*
X0044621Y0140554D01*
X0044389Y0140582D01*
X0044157Y0140605D01*
X0043924Y0140621D01*
X0043691Y0140632D01*
X0043458Y0140637D01*
X0043225Y0140637D01*
X0042991Y0140631D01*
X0042758Y0140619D01*
X0042525Y0140601D01*
X0042293Y0140578D01*
X0042062Y0140549D01*
X0041831Y0140515D01*
X0041601Y0140474D01*
X0041372Y0140429D01*
X0041145Y0140377D01*
X0040918Y0140320D01*
X0040694Y0140258D01*
X0040470Y0140190D01*
X0040249Y0140116D01*
X0040029Y0140037D01*
X0039812Y0139953D01*
X0039596Y0139864D01*
X0039383Y0139769D01*
X0039172Y0139669D01*
X0038964Y0139564D01*
X0038758Y0139454D01*
X0038555Y0139339D01*
X0038355Y0139219D01*
X0038158Y0139094D01*
X0037964Y0138964D01*
X0037773Y0138829D01*
X0037586Y0138690D01*
X0037402Y0138547D01*
X0037221Y0138399D01*
X0037045Y0138246D01*
X0036872Y0138089D01*
X0036703Y0137929D01*
X0036538Y0137764D01*
X0036377Y0137595D01*
X0036220Y0137422D01*
X0036068Y0137245D01*
X0035919Y0137065D01*
X0035776Y0136881D01*
X0035637Y0136693D01*
X0035502Y0136503D01*
X0035373Y0136309D01*
X0035248Y0136112D01*
X0035128Y0135911D01*
X0035012Y0135709D01*
X0034902Y0135503D01*
X0034797Y0135294D01*
X0034697Y0135084D01*
X0034602Y0134870D01*
X0034513Y0134655D01*
X0034429Y0134437D01*
X0034350Y0134218D01*
X0034276Y0133996D01*
X0034208Y0133773D01*
X0034146Y0133548D01*
X0034089Y0133322D01*
X0034037Y0133094D01*
X0033992Y0132865D01*
X0033951Y0132635D01*
X0033917Y0132405D01*
X0033888Y0132173D01*
X0033865Y0131941D01*
X0033847Y0131708D01*
X0033835Y0131475D01*
X0033829Y0131242D01*
X0033829Y0131008D01*
X0033834Y0130775D01*
X0033845Y0130542D01*
X0033861Y0130309D01*
X0033884Y0130077D01*
X0033912Y0129845D01*
X0033946Y0129614D01*
X0033985Y0129384D01*
X0034030Y0129155D01*
X0034081Y0128928D01*
X0034137Y0128701D01*
X0034198Y0128476D01*
X0034265Y0128253D01*
X0034338Y0128031D01*
X0034416Y0127811D01*
X0034499Y0127593D01*
X0034588Y0127377D01*
X0034682Y0127163D01*
X0034781Y0126952D01*
X0034886Y0126743D01*
X0034995Y0126537D01*
X0035109Y0126334D01*
X0035229Y0126133D01*
X0035353Y0125936D01*
X0035482Y0125741D01*
X0035616Y0125550D01*
X0035754Y0125362D01*
X0035897Y0125178D01*
X0036044Y0124997D01*
X0036196Y0124820D01*
X0036352Y0124646D01*
X0036512Y0124476D01*
X0036677Y0124311D01*
X0036845Y0124149D01*
X0037017Y0123992D01*
X0037194Y0123839D01*
X0037373Y0123690D01*
X0037557Y0123546D01*
X0037744Y0123406D01*
X0037934Y0123271D01*
X0038127Y0123140D01*
X0038324Y0123015D01*
X0038524Y0122894D01*
X0038726Y0122778D01*
X0038931Y0122667D01*
X0039139Y0122561D01*
X0039350Y0122460D01*
X0039350Y0122461D02*
X0039118Y0122484D01*
X0038886Y0122501D01*
X0038653Y0122513D01*
X0038420Y0122519D01*
X0038187Y0122519D01*
X0037954Y0122514D01*
X0037721Y0122503D01*
X0037488Y0122486D01*
X0037256Y0122464D01*
X0037025Y0122436D01*
X0036794Y0122402D01*
X0036564Y0122363D01*
X0036336Y0122318D01*
X0036108Y0122267D01*
X0035882Y0122211D01*
X0035657Y0122149D01*
X0035434Y0122082D01*
X0035212Y0122010D01*
X0034993Y0121932D01*
X0034775Y0121848D01*
X0034559Y0121760D01*
X0034346Y0121666D01*
X0034135Y0121567D01*
X0033926Y0121463D01*
X0033721Y0121353D01*
X0033517Y0121239D01*
X0033317Y0121120D01*
X0033120Y0120996D01*
X0032925Y0120867D01*
X0032734Y0120733D01*
X0032547Y0120595D01*
X0032362Y0120452D01*
X0032182Y0120305D01*
X0032005Y0120154D01*
X0031831Y0119998D01*
X0031662Y0119838D01*
X0031496Y0119673D01*
X0031335Y0119505D01*
X0031178Y0119333D01*
X0031025Y0119157D01*
X0030876Y0118978D01*
X0030732Y0118795D01*
X0030592Y0118608D01*
X0030457Y0118418D01*
X0030327Y0118225D01*
X0030201Y0118028D01*
X0030080Y0117829D01*
X0029964Y0117627D01*
X0029853Y0117422D01*
X0029748Y0117214D01*
X0029647Y0117004D01*
X0029551Y0116791D01*
X0029461Y0116576D01*
X0029376Y0116359D01*
X0029296Y0116140D01*
X0029222Y0115919D01*
X0029153Y0115697D01*
X0029089Y0115472D01*
X0029032Y0115247D01*
X0028979Y0115019D01*
X0028932Y0114791D01*
X0028891Y0114562D01*
X0028856Y0114331D01*
X0028826Y0114100D01*
X0028801Y0113868D01*
X0028783Y0113636D01*
X0028770Y0113403D01*
X0028763Y0113170D01*
X0028761Y0112937D01*
X0028765Y0112704D01*
X0028775Y0112471D01*
X0028791Y0112238D01*
X0028812Y0112006D01*
X0028839Y0111775D01*
X0028872Y0111544D01*
X0028910Y0111314D01*
X0028954Y0111085D01*
X0029003Y0110857D01*
X0029058Y0110631D01*
X0029119Y0110406D01*
X0029185Y0110182D01*
X0029256Y0109960D01*
X0029333Y0109740D01*
X0029415Y0109522D01*
X0029503Y0109306D01*
X0029596Y0109092D01*
X0029694Y0108881D01*
X0029797Y0108672D01*
X0029905Y0108465D01*
X0030018Y0108261D01*
X0030137Y0108060D01*
X0030260Y0107862D01*
X0030388Y0107668D01*
X0030520Y0107476D01*
X0030657Y0107287D01*
X0030799Y0107102D01*
X0030946Y0106921D01*
X0031096Y0106743D01*
X0031251Y0106569D01*
X0031411Y0106399D01*
X0031574Y0106233D01*
X0031741Y0106070D01*
X0031913Y0105912D01*
X0032088Y0105758D01*
X0032267Y0105609D01*
X0032449Y0105464D01*
X0032635Y0105323D01*
X0032824Y0105187D01*
X0033017Y0105056D01*
X0033212Y0104929D01*
X0033411Y0104807D01*
X0033613Y0104690D01*
X0033817Y0104578D01*
X0034025Y0104472D01*
X0034234Y0104370D01*
X0034446Y0104273D01*
X0034661Y0104182D01*
X0034878Y0104096D01*
X0035096Y0104015D01*
X0035317Y0103939D01*
X0035539Y0103869D01*
X0035763Y0103805D01*
X0035989Y0103746D01*
X0036215Y0103692D01*
X0036444Y0103644D01*
X0036673Y0103602D01*
X0036442Y0103565D01*
X0036213Y0103523D01*
X0035984Y0103476D01*
X0035757Y0103422D01*
X0035531Y0103363D01*
X0035306Y0103299D01*
X0035083Y0103229D01*
X0034862Y0103154D01*
X0034643Y0103073D01*
X0034426Y0102987D01*
X0034211Y0102896D01*
X0033998Y0102799D01*
X0033788Y0102697D01*
X0033580Y0102590D01*
X0033375Y0102478D01*
X0033173Y0102361D01*
X0032974Y0102239D01*
X0032777Y0102113D01*
X0032584Y0101981D01*
X0032394Y0101845D01*
X0032208Y0101704D01*
X0032025Y0101559D01*
X0031846Y0101409D01*
X0031670Y0101255D01*
X0031499Y0101096D01*
X0031331Y0100934D01*
X0031167Y0100767D01*
X0031008Y0100597D01*
X0030852Y0100422D01*
X0030701Y0100244D01*
X0030555Y0100062D01*
X0030413Y0099877D01*
X0030275Y0099688D01*
X0030142Y0099496D01*
X0030014Y0099300D01*
X0029891Y0099102D01*
X0029773Y0098900D01*
X0029659Y0098696D01*
X0029551Y0098489D01*
X0029448Y0098280D01*
X0029350Y0098068D01*
X0029257Y0097853D01*
X0029169Y0097637D01*
X0029087Y0097418D01*
X0029010Y0097197D01*
X0028939Y0096975D01*
X0028873Y0096751D01*
X0028812Y0096525D01*
X0028758Y0096298D01*
X0028708Y0096070D01*
X0028665Y0095840D01*
X0028627Y0095610D01*
X0028594Y0095379D01*
X0028568Y0095147D01*
X0028547Y0094914D01*
X0028531Y0094681D01*
X0028522Y0094447D01*
X0028518Y0094214D01*
X0028520Y0093980D01*
X0028528Y0093747D01*
X0028541Y0093513D01*
X0028560Y0093281D01*
X0028585Y0093048D01*
X0028615Y0092817D01*
X0028651Y0092586D01*
X0028693Y0092356D01*
X0028741Y0092127D01*
X0028794Y0091900D01*
X0028852Y0091674D01*
X0028916Y0091449D01*
X0028986Y0091226D01*
X0029061Y0091005D01*
X0029141Y0090786D01*
X0029227Y0090568D01*
X0029318Y0090353D01*
X0029415Y0090140D01*
X0029516Y0089930D01*
X0029623Y0089722D01*
X0029734Y0089517D01*
X0029851Y0089315D01*
X0029973Y0089115D01*
X0030099Y0088919D01*
X0030231Y0088726D01*
X0030367Y0088536D01*
X0030507Y0088349D01*
X0030652Y0088166D01*
X0030802Y0087987D01*
X0030956Y0087811D01*
X0031114Y0087639D01*
X0031276Y0087471D01*
X0031443Y0087307D01*
X0031613Y0087147D01*
X0031787Y0086992D01*
X0031965Y0086841D01*
X0032147Y0086694D01*
X0032332Y0086551D01*
X0032521Y0086414D01*
X0032713Y0086280D01*
X0032908Y0086152D01*
X0033106Y0086029D01*
X0033308Y0085910D01*
X0033512Y0085796D01*
X0033718Y0085688D01*
X0033928Y0085584D01*
X0034140Y0085486D01*
X0034354Y0085393D01*
X0034570Y0085305D01*
X0034789Y0085222D01*
X0035009Y0085145D01*
X0035232Y0085074D01*
X0035456Y0085007D01*
X0035681Y0084947D01*
X0035908Y0084891D01*
X0036137Y0084842D01*
X0036366Y0084798D01*
X0036596Y0084760D01*
X0036828Y0084727D01*
X0037060Y0084700D01*
X0037292Y0084679D01*
X0037526Y0084663D01*
X0037759Y0084653D01*
X0037992Y0084649D01*
X0038226Y0084651D01*
X0038460Y0084658D01*
X0038693Y0084671D01*
X0038926Y0084690D01*
X0039158Y0084714D01*
X0039390Y0084745D01*
X0039390Y0084744D02*
X0039179Y0084643D01*
X0038971Y0084538D01*
X0038765Y0084428D01*
X0038562Y0084313D01*
X0038362Y0084193D01*
X0038165Y0084067D01*
X0037971Y0083938D01*
X0037781Y0083803D01*
X0037593Y0083664D01*
X0037409Y0083520D01*
X0037229Y0083372D01*
X0037053Y0083219D01*
X0036880Y0083062D01*
X0036711Y0082901D01*
X0036546Y0082736D01*
X0036385Y0082567D01*
X0036229Y0082394D01*
X0036077Y0082217D01*
X0035929Y0082037D01*
X0035785Y0081853D01*
X0035646Y0081665D01*
X0035512Y0081474D01*
X0035383Y0081280D01*
X0035258Y0081083D01*
X0035138Y0080883D01*
X0035023Y0080680D01*
X0034913Y0080474D01*
X0034808Y0080266D01*
X0034709Y0080055D01*
X0034614Y0079841D01*
X0034525Y0079626D01*
X0034441Y0079408D01*
X0034362Y0079188D01*
X0034289Y0078967D01*
X0034222Y0078743D01*
X0034159Y0078518D01*
X0034103Y0078292D01*
X0034052Y0078064D01*
X0034006Y0077836D01*
X0033966Y0077606D01*
X0033932Y0077375D01*
X0033903Y0077143D01*
X0033880Y0076911D01*
X0033863Y0076678D01*
X0033852Y0076445D01*
X0033846Y0076212D01*
X0033846Y0075979D01*
X0033851Y0075745D01*
X0033863Y0075512D01*
X0033880Y0075280D01*
X0033902Y0075047D01*
X0033931Y0074816D01*
X0033965Y0074585D01*
X0034005Y0074355D01*
X0034050Y0074126D01*
X0034101Y0073898D01*
X0034158Y0073672D01*
X0034220Y0073447D01*
X0034287Y0073224D01*
X0034360Y0073002D01*
X0034439Y0072782D01*
X0034522Y0072565D01*
X0034612Y0072349D01*
X0034706Y0072135D01*
X0034805Y0071924D01*
X0034910Y0071716D01*
X0035020Y0071510D01*
X0035135Y0071307D01*
X0035254Y0071107D01*
X0035379Y0070909D01*
X0035508Y0070715D01*
X0035643Y0070524D01*
X0035781Y0070337D01*
X0035925Y0070152D01*
X0036072Y0069972D01*
X0036225Y0069795D01*
X0036381Y0069622D01*
X0036542Y0069453D01*
X0036706Y0069287D01*
X0036875Y0069126D01*
X0037048Y0068969D01*
X0037224Y0068816D01*
X0037404Y0068668D01*
X0037588Y0068524D01*
X0037775Y0068385D01*
X0037966Y0068250D01*
X0038159Y0068120D01*
X0038356Y0067995D01*
X0038556Y0067875D01*
X0038759Y0067759D01*
X0038965Y0067649D01*
X0039173Y0067543D01*
X0039384Y0067443D01*
X0039597Y0067348D01*
X0039812Y0067258D01*
X0040030Y0067174D01*
X0040249Y0067095D01*
X0040471Y0067021D01*
X0040694Y0066953D01*
X0040918Y0066890D01*
X0041145Y0066833D01*
X0041372Y0066781D01*
X0041601Y0066735D01*
X0041831Y0066695D01*
X0042061Y0066660D01*
X0042293Y0066631D01*
X0042525Y0066607D01*
X0042758Y0066590D01*
X0042991Y0066577D01*
X0043224Y0066571D01*
X0043457Y0066570D01*
X0043691Y0066576D01*
X0043924Y0066586D01*
X0044157Y0066603D01*
X0044389Y0066625D01*
X0044621Y0066653D01*
X0044851Y0066686D01*
X0045081Y0066726D01*
X0045310Y0066770D01*
X0045538Y0066821D01*
X0045765Y0066877D01*
X0045990Y0066938D01*
X0046213Y0067005D01*
X0046435Y0067078D01*
X0046655Y0067156D01*
X0046873Y0067239D01*
X0047089Y0067328D01*
X0047303Y0067421D01*
X0047131Y0067264D01*
X0046962Y0067102D01*
X0046798Y0066936D01*
X0046638Y0066766D01*
X0046482Y0066592D01*
X0046331Y0066415D01*
X0046184Y0066233D01*
X0046041Y0066049D01*
X0045903Y0065860D01*
X0045769Y0065669D01*
X0045641Y0065474D01*
X0045517Y0065276D01*
X0045398Y0065076D01*
X0045284Y0064872D01*
X0045175Y0064666D01*
X0045071Y0064456D01*
X0044972Y0064245D01*
X0044878Y0064031D01*
X0044790Y0063815D01*
X0044707Y0063597D01*
X0044629Y0063377D01*
X0044557Y0063155D01*
X0044490Y0062931D01*
X0044429Y0062706D01*
X0044373Y0062479D01*
X0044323Y0062251D01*
X0044278Y0062022D01*
X0044239Y0061792D01*
X0044206Y0061561D01*
X0044178Y0061329D01*
X0044156Y0061097D01*
X0044140Y0060864D01*
X0044129Y0060631D01*
X0044124Y0060397D01*
X0044125Y0060164D01*
X0044132Y0059930D01*
X0044144Y0059697D01*
X0044162Y0059465D01*
X0044186Y0059232D01*
X0044215Y0059001D01*
X0044250Y0058770D01*
X0044291Y0058540D01*
X0044337Y0058311D01*
X0044389Y0058084D01*
X0044446Y0057857D01*
X0044509Y0057633D01*
X0044578Y0057409D01*
X0044651Y0057188D01*
X0044731Y0056968D01*
X0044815Y0056751D01*
X0044905Y0056535D01*
X0045000Y0056322D01*
X0045101Y0056111D01*
X0045206Y0055903D01*
X0045317Y0055698D01*
X0045432Y0055495D01*
X0045553Y0055295D01*
X0045678Y0055098D01*
X0045808Y0054904D01*
X0045943Y0054714D01*
X0046083Y0054526D01*
X0046227Y0054343D01*
X0046375Y0054162D01*
X0046528Y0053986D01*
X0046685Y0053813D01*
X0046846Y0053645D01*
X0047012Y0053480D01*
X0047181Y0053319D01*
X0047354Y0053163D01*
X0047531Y0053011D01*
X0047712Y0052863D01*
X0047896Y0052719D01*
X0048084Y0052581D01*
X0048275Y0052446D01*
X0048469Y0052317D01*
X0048667Y0052192D01*
X0048867Y0052073D01*
X0049070Y0051958D01*
X0049276Y0051848D01*
X0049485Y0051743D01*
X0049696Y0051644D01*
X0049910Y0051549D01*
X0050125Y0051460D01*
X0050343Y0051376D01*
X0050563Y0051298D01*
X0050785Y0051225D01*
X0051008Y0051157D01*
X0051233Y0051095D01*
X0051460Y0051039D01*
X0051688Y0050988D01*
X0051917Y0050942D01*
X0052147Y0050902D01*
X0052378Y0050868D01*
X0052609Y0050840D01*
X0052842Y0050817D01*
X0053074Y0050800D01*
X0053308Y0050788D01*
X0053541Y0050783D01*
X0053774Y0050783D01*
X0054008Y0050788D01*
X0054241Y0050800D01*
X0054474Y0050817D01*
X0054706Y0050840D01*
X0054938Y0050868D01*
X0055169Y0050903D01*
X0055399Y0050942D01*
X0055628Y0050988D01*
X0055855Y0051039D01*
X0056082Y0051096D01*
X0056307Y0051158D01*
X0056530Y0051225D01*
X0056752Y0051298D01*
X0056972Y0051377D01*
X0057190Y0051461D01*
X0057406Y0051550D01*
X0057619Y0051644D01*
X0057830Y0051744D01*
X0058039Y0051849D01*
X0058245Y0051959D01*
X0058448Y0052073D01*
X0058648Y0052193D01*
X0058846Y0052318D01*
X0059040Y0052447D01*
X0059231Y0052581D01*
X0059419Y0052720D01*
X0059603Y0052864D01*
X0059784Y0053011D01*
X0255602Y0123102D02*
X0318852Y0123102D01*
X0390852Y0123102D01*
X0396352Y0123102D02*
X0469102Y0123102D01*
X0470102Y0123102D01*
X0469102Y0123102D02*
X0469102Y0334352D01*
X0468852Y0334352D02*
X0318852Y0334352D01*
X0318602Y0334352D01*
X0318852Y0334352D02*
X0318852Y0270602D01*
X0390602Y0270602D01*
X0395102Y0270602D02*
X0468852Y0270602D01*
X0468602Y0260602D02*
X0318352Y0260602D01*
X0318852Y0270602D02*
X0318852Y0197102D01*
X0391352Y0197102D01*
X0396602Y0197102D02*
X0470352Y0197102D01*
X0469352Y0186852D02*
X0319102Y0186852D01*
X0318852Y0197102D02*
X0318852Y0123102D01*
X0314602Y0216352D02*
X0314602Y0222352D01*
X0314352Y0222352D02*
X0218852Y0222352D01*
X0211352Y0222352D02*
X0115852Y0222352D01*
X0115602Y0222602D02*
X0115602Y0218602D01*
X0115602Y0239602D02*
X0211102Y0239602D01*
X0115602Y0236602D02*
X0115529Y0239043D01*
X0115515Y0241485D01*
X0115562Y0243927D01*
X0115668Y0246367D01*
X0115834Y0248803D01*
X0116060Y0251235D01*
X0116345Y0253660D01*
X0116689Y0256078D01*
X0117093Y0258487D01*
X0117556Y0260884D01*
X0118077Y0263270D01*
X0118657Y0265643D01*
X0119295Y0268000D01*
X0119990Y0270341D01*
X0120742Y0272665D01*
X0121551Y0274969D01*
X0122417Y0277252D01*
X0123338Y0279514D01*
X0124314Y0281753D01*
X0125345Y0283967D01*
X0126430Y0286155D01*
X0127568Y0288315D01*
X0128759Y0290447D01*
X0130002Y0292550D01*
X0131295Y0294621D01*
X0132640Y0296660D01*
X0134034Y0298665D01*
X0135476Y0300636D01*
X0136967Y0302570D01*
X0138504Y0304468D01*
X0140087Y0306327D01*
X0141716Y0308147D01*
X0143389Y0309926D01*
X0145104Y0311664D01*
X0146862Y0313359D01*
X0148661Y0315011D01*
X0150500Y0316618D01*
X0152378Y0318180D01*
X0154293Y0319694D01*
X0156245Y0321162D01*
X0158233Y0322581D01*
X0160254Y0323951D01*
X0162309Y0325272D01*
X0164395Y0326541D01*
X0166512Y0327759D01*
X0168658Y0328925D01*
X0170832Y0330037D01*
X0173032Y0331096D01*
X0175258Y0332101D01*
X0177508Y0333051D01*
X0179781Y0333945D01*
X0182074Y0334784D01*
X0184388Y0335566D01*
X0186720Y0336291D01*
X0189069Y0336959D01*
X0191434Y0337568D01*
X0193813Y0338120D01*
X0196205Y0338613D01*
X0198608Y0339048D01*
X0201021Y0339423D01*
X0203442Y0339739D01*
X0205871Y0339996D01*
X0208305Y0340193D01*
X0210744Y0340331D01*
X0213184Y0340408D01*
X0215627Y0340426D01*
X0218068Y0340384D01*
X0220508Y0340281D01*
X0222945Y0340120D01*
X0225377Y0339898D01*
X0227803Y0339617D01*
X0230221Y0339277D01*
X0232631Y0338877D01*
X0235029Y0338418D01*
X0237416Y0337901D01*
X0239789Y0337325D01*
X0242148Y0336692D01*
X0244490Y0336001D01*
X0246815Y0335252D01*
X0249120Y0334447D01*
X0251406Y0333585D01*
X0253669Y0332668D01*
X0255909Y0331696D01*
X0258125Y0330669D01*
X0260315Y0329588D01*
X0262477Y0328453D01*
X0264611Y0327266D01*
X0266716Y0326027D01*
X0268789Y0324737D01*
X0270830Y0323396D01*
X0272838Y0322005D01*
X0274811Y0320566D01*
X0276748Y0319079D01*
X0278648Y0317545D01*
X0280510Y0315965D01*
X0282333Y0314339D01*
X0284115Y0312670D01*
X0285856Y0310957D01*
X0287554Y0309202D01*
X0289209Y0307406D01*
X0290819Y0305570D01*
X0292384Y0303695D01*
X0293902Y0301782D01*
X0295373Y0299832D01*
X0296796Y0297847D01*
X0298169Y0295828D01*
X0299493Y0293776D01*
X0300766Y0291692D01*
X0301988Y0289577D01*
X0303157Y0287433D01*
X0304273Y0285261D01*
X0305336Y0283062D01*
X0306345Y0280838D01*
X0307298Y0278590D01*
X0308197Y0276319D01*
X0309039Y0274027D01*
X0309825Y0271714D01*
X0310554Y0269384D01*
X0311226Y0267036D01*
X0311840Y0264672D01*
X0312396Y0262294D01*
X0312893Y0259903D01*
X0313331Y0257500D01*
X0313711Y0255088D01*
X0314031Y0252667D01*
X0314292Y0250239D01*
X0314493Y0247805D01*
X0314635Y0245367D01*
X0314717Y0242926D01*
X0314738Y0240484D01*
X0314700Y0238042D01*
X0314603Y0235602D01*
X0314852Y0239602D02*
X0219352Y0239602D01*
X0314603Y0218602D02*
X0314676Y0216161D01*
X0314690Y0213719D01*
X0314643Y0211277D01*
X0314537Y0208837D01*
X0314371Y0206401D01*
X0314145Y0203969D01*
X0313860Y0201544D01*
X0313516Y0199126D01*
X0313112Y0196717D01*
X0312649Y0194320D01*
X0312128Y0191934D01*
X0311548Y0189561D01*
X0310910Y0187204D01*
X0310215Y0184863D01*
X0309463Y0182539D01*
X0308654Y0180235D01*
X0307788Y0177952D01*
X0306867Y0175690D01*
X0305891Y0173451D01*
X0304860Y0171237D01*
X0303775Y0169049D01*
X0302637Y0166889D01*
X0301446Y0164757D01*
X0300203Y0162654D01*
X0298910Y0160583D01*
X0297565Y0158544D01*
X0296171Y0156539D01*
X0294729Y0154568D01*
X0293238Y0152634D01*
X0291701Y0150736D01*
X0290118Y0148877D01*
X0288489Y0147057D01*
X0286816Y0145278D01*
X0285101Y0143540D01*
X0283343Y0141845D01*
X0281544Y0140193D01*
X0279705Y0138586D01*
X0277827Y0137024D01*
X0275912Y0135510D01*
X0273960Y0134042D01*
X0271972Y0132623D01*
X0269951Y0131253D01*
X0267896Y0129932D01*
X0265810Y0128663D01*
X0263693Y0127445D01*
X0261547Y0126279D01*
X0259373Y0125167D01*
X0257173Y0124108D01*
X0254947Y0123103D01*
X0252697Y0122153D01*
X0250424Y0121259D01*
X0248131Y0120420D01*
X0245817Y0119638D01*
X0243485Y0118913D01*
X0241136Y0118245D01*
X0238771Y0117636D01*
X0236392Y0117084D01*
X0234000Y0116591D01*
X0231597Y0116156D01*
X0229184Y0115781D01*
X0226763Y0115465D01*
X0224334Y0115208D01*
X0221900Y0115011D01*
X0219461Y0114873D01*
X0217021Y0114796D01*
X0214578Y0114778D01*
X0212137Y0114820D01*
X0209697Y0114923D01*
X0207260Y0115084D01*
X0204828Y0115306D01*
X0202402Y0115587D01*
X0199984Y0115927D01*
X0197574Y0116327D01*
X0195176Y0116786D01*
X0192789Y0117303D01*
X0190416Y0117879D01*
X0188057Y0118512D01*
X0185715Y0119203D01*
X0183390Y0119952D01*
X0181085Y0120757D01*
X0178799Y0121619D01*
X0176536Y0122536D01*
X0174296Y0123508D01*
X0172080Y0124535D01*
X0169890Y0125616D01*
X0167728Y0126751D01*
X0165594Y0127938D01*
X0163489Y0129177D01*
X0161416Y0130467D01*
X0159375Y0131808D01*
X0157367Y0133199D01*
X0155394Y0134638D01*
X0153457Y0136125D01*
X0151557Y0137659D01*
X0149695Y0139239D01*
X0147872Y0140865D01*
X0146090Y0142534D01*
X0144349Y0144247D01*
X0142651Y0146002D01*
X0140996Y0147798D01*
X0139386Y0149634D01*
X0137821Y0151509D01*
X0136303Y0153422D01*
X0134832Y0155372D01*
X0133409Y0157357D01*
X0132036Y0159376D01*
X0130712Y0161428D01*
X0129439Y0163512D01*
X0128217Y0165627D01*
X0127048Y0167771D01*
X0125932Y0169943D01*
X0124869Y0172142D01*
X0123860Y0174366D01*
X0122907Y0176614D01*
X0122008Y0178885D01*
X0121166Y0181177D01*
X0120380Y0183490D01*
X0119651Y0185820D01*
X0118979Y0188168D01*
X0118365Y0190532D01*
X0117809Y0192910D01*
X0117312Y0195301D01*
X0116874Y0197704D01*
X0116494Y0200116D01*
X0116174Y0202537D01*
X0115913Y0204965D01*
X0115712Y0207399D01*
X0115570Y0209837D01*
X0115488Y0212278D01*
X0115467Y0214720D01*
X0115505Y0217162D01*
X0115602Y0219602D01*
X0115602Y0239852D02*
X0115602Y0240852D01*
X0115602Y0240352D02*
X0115602Y0245602D01*
X0248852Y0334602D02*
X0321102Y0334602D01*
X0314852Y0240852D02*
X0314852Y0240352D01*
X0314602Y0240602D02*
X0314352Y0240602D01*
D11*
X0014779Y0103602D02*
X0014806Y0105782D01*
X0014886Y0107960D01*
X0015020Y0110136D01*
X0015207Y0112308D01*
X0015447Y0114475D01*
X0015740Y0116635D01*
X0016087Y0118787D01*
X0016486Y0120931D01*
X0016937Y0123063D01*
X0017441Y0125184D01*
X0017997Y0127292D01*
X0018604Y0129386D01*
X0019262Y0131464D01*
X0019971Y0133526D01*
X0020731Y0135569D01*
X0021540Y0137593D01*
X0022399Y0139597D01*
X0023307Y0141579D01*
X0024263Y0143538D01*
X0025267Y0145473D01*
X0026318Y0147383D01*
X0027416Y0149266D01*
X0028560Y0151122D01*
X0029748Y0152949D01*
X0030982Y0154747D01*
X0032259Y0156514D01*
X0033579Y0158249D01*
X0034941Y0159951D01*
X0036344Y0161619D01*
X0037788Y0163252D01*
X0039272Y0164849D01*
X0040795Y0166409D01*
X0042355Y0167932D01*
X0043952Y0169416D01*
X0045585Y0170860D01*
X0047253Y0172263D01*
X0048955Y0173625D01*
X0050690Y0174945D01*
X0052457Y0176222D01*
X0054255Y0177456D01*
X0056082Y0178644D01*
X0057938Y0179788D01*
X0059821Y0180886D01*
X0061731Y0181937D01*
X0063666Y0182941D01*
X0065625Y0183897D01*
X0067607Y0184805D01*
X0069611Y0185664D01*
X0071635Y0186473D01*
X0073678Y0187233D01*
X0075740Y0187942D01*
X0077818Y0188600D01*
X0079912Y0189207D01*
X0082020Y0189763D01*
X0084141Y0190267D01*
X0086273Y0190718D01*
X0088417Y0191117D01*
X0090569Y0191464D01*
X0092729Y0191757D01*
X0094896Y0191997D01*
X0097068Y0192184D01*
X0099244Y0192318D01*
X0101422Y0192398D01*
X0103602Y0192425D01*
X0105782Y0192398D01*
X0107960Y0192318D01*
X0110136Y0192184D01*
X0112308Y0191997D01*
X0114475Y0191757D01*
X0116635Y0191464D01*
X0118787Y0191117D01*
X0120931Y0190718D01*
X0123063Y0190267D01*
X0125184Y0189763D01*
X0127292Y0189207D01*
X0129386Y0188600D01*
X0131464Y0187942D01*
X0133526Y0187233D01*
X0135569Y0186473D01*
X0137593Y0185664D01*
X0139597Y0184805D01*
X0141579Y0183897D01*
X0143538Y0182941D01*
X0145473Y0181937D01*
X0147383Y0180886D01*
X0149266Y0179788D01*
X0151122Y0178644D01*
X0152949Y0177456D01*
X0154747Y0176222D01*
X0156514Y0174945D01*
X0158249Y0173625D01*
X0159951Y0172263D01*
X0161619Y0170860D01*
X0163252Y0169416D01*
X0164849Y0167932D01*
X0166409Y0166409D01*
X0167932Y0164849D01*
X0169416Y0163252D01*
X0170860Y0161619D01*
X0172263Y0159951D01*
X0173625Y0158249D01*
X0174945Y0156514D01*
X0176222Y0154747D01*
X0177456Y0152949D01*
X0178644Y0151122D01*
X0179788Y0149266D01*
X0180886Y0147383D01*
X0181937Y0145473D01*
X0182941Y0143538D01*
X0183897Y0141579D01*
X0184805Y0139597D01*
X0185664Y0137593D01*
X0186473Y0135569D01*
X0187233Y0133526D01*
X0187942Y0131464D01*
X0188600Y0129386D01*
X0189207Y0127292D01*
X0189763Y0125184D01*
X0190267Y0123063D01*
X0190718Y0120931D01*
X0191117Y0118787D01*
X0191464Y0116635D01*
X0191757Y0114475D01*
X0191997Y0112308D01*
X0192184Y0110136D01*
X0192318Y0107960D01*
X0192398Y0105782D01*
X0192425Y0103602D01*
X0192398Y0101422D01*
X0192318Y0099244D01*
X0192184Y0097068D01*
X0191997Y0094896D01*
X0191757Y0092729D01*
X0191464Y0090569D01*
X0191117Y0088417D01*
X0190718Y0086273D01*
X0190267Y0084141D01*
X0189763Y0082020D01*
X0189207Y0079912D01*
X0188600Y0077818D01*
X0187942Y0075740D01*
X0187233Y0073678D01*
X0186473Y0071635D01*
X0185664Y0069611D01*
X0184805Y0067607D01*
X0183897Y0065625D01*
X0182941Y0063666D01*
X0181937Y0061731D01*
X0180886Y0059821D01*
X0179788Y0057938D01*
X0178644Y0056082D01*
X0177456Y0054255D01*
X0176222Y0052457D01*
X0174945Y0050690D01*
X0173625Y0048955D01*
X0172263Y0047253D01*
X0170860Y0045585D01*
X0169416Y0043952D01*
X0167932Y0042355D01*
X0166409Y0040795D01*
X0164849Y0039272D01*
X0163252Y0037788D01*
X0161619Y0036344D01*
X0159951Y0034941D01*
X0158249Y0033579D01*
X0156514Y0032259D01*
X0154747Y0030982D01*
X0152949Y0029748D01*
X0151122Y0028560D01*
X0149266Y0027416D01*
X0147383Y0026318D01*
X0145473Y0025267D01*
X0143538Y0024263D01*
X0141579Y0023307D01*
X0139597Y0022399D01*
X0137593Y0021540D01*
X0135569Y0020731D01*
X0133526Y0019971D01*
X0131464Y0019262D01*
X0129386Y0018604D01*
X0127292Y0017997D01*
X0125184Y0017441D01*
X0123063Y0016937D01*
X0120931Y0016486D01*
X0118787Y0016087D01*
X0116635Y0015740D01*
X0114475Y0015447D01*
X0112308Y0015207D01*
X0110136Y0015020D01*
X0107960Y0014886D01*
X0105782Y0014806D01*
X0103602Y0014779D01*
X0101422Y0014806D01*
X0099244Y0014886D01*
X0097068Y0015020D01*
X0094896Y0015207D01*
X0092729Y0015447D01*
X0090569Y0015740D01*
X0088417Y0016087D01*
X0086273Y0016486D01*
X0084141Y0016937D01*
X0082020Y0017441D01*
X0079912Y0017997D01*
X0077818Y0018604D01*
X0075740Y0019262D01*
X0073678Y0019971D01*
X0071635Y0020731D01*
X0069611Y0021540D01*
X0067607Y0022399D01*
X0065625Y0023307D01*
X0063666Y0024263D01*
X0061731Y0025267D01*
X0059821Y0026318D01*
X0057938Y0027416D01*
X0056082Y0028560D01*
X0054255Y0029748D01*
X0052457Y0030982D01*
X0050690Y0032259D01*
X0048955Y0033579D01*
X0047253Y0034941D01*
X0045585Y0036344D01*
X0043952Y0037788D01*
X0042355Y0039272D01*
X0040795Y0040795D01*
X0039272Y0042355D01*
X0037788Y0043952D01*
X0036344Y0045585D01*
X0034941Y0047253D01*
X0033579Y0048955D01*
X0032259Y0050690D01*
X0030982Y0052457D01*
X0029748Y0054255D01*
X0028560Y0056082D01*
X0027416Y0057938D01*
X0026318Y0059821D01*
X0025267Y0061731D01*
X0024263Y0063666D01*
X0023307Y0065625D01*
X0022399Y0067607D01*
X0021540Y0069611D01*
X0020731Y0071635D01*
X0019971Y0073678D01*
X0019262Y0075740D01*
X0018604Y0077818D01*
X0017997Y0079912D01*
X0017441Y0082020D01*
X0016937Y0084141D01*
X0016486Y0086273D01*
X0016087Y0088417D01*
X0015740Y0090569D01*
X0015447Y0092729D01*
X0015207Y0094896D01*
X0015020Y0097068D01*
X0014886Y0099244D01*
X0014806Y0101422D01*
X0014779Y0103602D01*
D12*
X0048484Y0050846D02*
X0059508Y0041791D01*
X0057539Y0046122D01*
X0057933Y0050453D01*
X0053996Y0050059D01*
X0048484Y0050846D01*
X0048915Y0050493D02*
X0050959Y0050493D01*
X0051309Y0048526D02*
X0057758Y0048526D01*
X0057579Y0046559D02*
X0053704Y0046559D01*
X0056098Y0044592D02*
X0058235Y0044592D01*
X0058493Y0042625D02*
X0059129Y0042625D01*
X0066594Y0037461D02*
X0074469Y0039429D01*
X0077224Y0032736D01*
X0066594Y0037461D01*
X0068252Y0036724D02*
X0075582Y0036724D01*
X0074772Y0038691D02*
X0071515Y0038691D01*
X0072678Y0034757D02*
X0076392Y0034757D01*
X0077104Y0032790D02*
X0077202Y0032790D01*
X0088248Y0029980D02*
X0093760Y0033917D01*
X0098091Y0028799D01*
X0088248Y0029980D01*
X0089427Y0030823D02*
X0096378Y0030823D01*
X0097619Y0028856D02*
X0098043Y0028856D01*
X0094714Y0032790D02*
X0092181Y0032790D01*
X0109508Y0028799D02*
X0113445Y0033917D01*
X0118957Y0029980D01*
X0109508Y0028799D01*
X0109551Y0028856D02*
X0109960Y0028856D01*
X0111064Y0030823D02*
X0117777Y0030823D01*
X0115023Y0032790D02*
X0112578Y0032790D01*
X0129980Y0032736D02*
X0132736Y0039429D01*
X0141004Y0037461D01*
X0129980Y0032736D01*
X0130002Y0032790D02*
X0130105Y0032790D01*
X0130812Y0034757D02*
X0134695Y0034757D01*
X0131622Y0036724D02*
X0139285Y0036724D01*
X0135837Y0038691D02*
X0132432Y0038691D01*
X0148091Y0042185D02*
X0150059Y0047303D01*
X0149665Y0050453D01*
X0154390Y0050059D01*
X0158720Y0051240D01*
X0148091Y0042185D01*
X0148260Y0042625D02*
X0148607Y0042625D01*
X0149016Y0044592D02*
X0150916Y0044592D01*
X0149773Y0046559D02*
X0153225Y0046559D01*
X0155534Y0048526D02*
X0149906Y0048526D01*
X0155981Y0050493D02*
X0157843Y0050493D01*
X0174075Y0076831D02*
X0171319Y0083917D01*
X0177224Y0087461D01*
X0174075Y0076831D01*
X0174430Y0078031D02*
X0173608Y0078031D01*
X0172843Y0079998D02*
X0175013Y0079998D01*
X0175596Y0081965D02*
X0172078Y0081965D01*
X0171344Y0083932D02*
X0176179Y0083932D01*
X0176762Y0085899D02*
X0174622Y0085899D01*
X0178406Y0099272D02*
X0173681Y0103602D01*
X0178406Y0103602D01*
X0178406Y0101635D02*
X0175827Y0101635D01*
X0177973Y0099668D02*
X0178406Y0099668D01*
X0178406Y0099272D02*
X0178406Y0108327D01*
X0173681Y0103602D01*
X0175648Y0105569D02*
X0178406Y0105569D01*
X0178406Y0107536D02*
X0177615Y0107536D01*
X0176831Y0120138D02*
X0171319Y0123681D01*
X0173681Y0127618D01*
X0174075Y0130374D01*
X0176831Y0120138D01*
X0176516Y0121305D02*
X0175014Y0121305D01*
X0175987Y0123273D02*
X0171954Y0123273D01*
X0172254Y0125240D02*
X0175457Y0125240D01*
X0174928Y0127207D02*
X0173434Y0127207D01*
X0173903Y0129174D02*
X0174398Y0129174D01*
X0170531Y0139429D02*
X0162657Y0141791D01*
X0163839Y0145335D01*
X0163445Y0150453D01*
X0170531Y0139429D01*
X0169537Y0140976D02*
X0165376Y0140976D01*
X0163041Y0142943D02*
X0168273Y0142943D01*
X0167008Y0144910D02*
X0163697Y0144910D01*
X0163720Y0146877D02*
X0165744Y0146877D01*
X0164479Y0148844D02*
X0163569Y0148844D01*
X0158327Y0156358D02*
X0151634Y0157539D01*
X0149665Y0156752D01*
X0149665Y0161083D01*
X0148091Y0165413D01*
X0158327Y0156358D01*
X0157927Y0156712D02*
X0156324Y0156712D01*
X0155704Y0158679D02*
X0149665Y0158679D01*
X0149665Y0160646D02*
X0153480Y0160646D01*
X0151256Y0162613D02*
X0149109Y0162613D01*
X0149033Y0164580D02*
X0148394Y0164580D01*
X0140610Y0169744D02*
X0132736Y0167776D01*
X0129587Y0174469D01*
X0140610Y0169744D01*
X0138891Y0170481D02*
X0131463Y0170481D01*
X0130537Y0172448D02*
X0134301Y0172448D01*
X0135689Y0168514D02*
X0132389Y0168514D01*
X0129712Y0174415D02*
X0129612Y0174415D01*
X0097697Y0178406D02*
X0093760Y0173681D01*
X0087854Y0177224D01*
X0097697Y0178406D01*
X0097650Y0178349D02*
X0097225Y0178349D01*
X0096011Y0176382D02*
X0089258Y0176382D01*
X0092537Y0174415D02*
X0094371Y0174415D01*
X0059114Y0165020D02*
X0057539Y0159902D01*
X0057933Y0156358D01*
X0053996Y0157539D01*
X0048484Y0155965D01*
X0059114Y0165020D01*
X0058979Y0164580D02*
X0058598Y0164580D01*
X0058374Y0162613D02*
X0056289Y0162613D01*
X0057768Y0160646D02*
X0053980Y0160646D01*
X0051671Y0158679D02*
X0057675Y0158679D01*
X0057894Y0156712D02*
X0056755Y0156712D01*
X0051099Y0156712D02*
X0049361Y0156712D01*
X0043760Y0150453D02*
X0043366Y0144941D01*
X0044941Y0141398D01*
X0041398Y0141398D01*
X0036673Y0139035D01*
X0043760Y0150453D01*
X0043645Y0148844D02*
X0042761Y0148844D01*
X0043504Y0146877D02*
X0041540Y0146877D01*
X0040319Y0144910D02*
X0043380Y0144910D01*
X0044254Y0142943D02*
X0039098Y0142943D01*
X0037877Y0140976D02*
X0040554Y0140976D01*
X0033130Y0129980D02*
X0034705Y0125256D01*
X0036280Y0123287D01*
X0029980Y0119744D01*
X0033130Y0129980D01*
X0032882Y0129174D02*
X0033399Y0129174D01*
X0034055Y0127207D02*
X0032276Y0127207D01*
X0031671Y0125240D02*
X0034718Y0125240D01*
X0036253Y0123273D02*
X0031066Y0123273D01*
X0030461Y0121305D02*
X0032756Y0121305D01*
X0028799Y0108327D02*
X0033524Y0103602D01*
X0028799Y0103602D01*
X0028799Y0101635D02*
X0030901Y0101635D01*
X0030374Y0101240D02*
X0028799Y0098484D01*
X0028799Y0108327D01*
X0028799Y0107536D02*
X0029590Y0107536D01*
X0028799Y0105569D02*
X0031557Y0105569D01*
X0033524Y0103602D02*
X0030374Y0101240D01*
X0029476Y0099668D02*
X0028799Y0099668D01*
X0030374Y0087067D02*
X0036673Y0083917D01*
X0033917Y0080768D01*
X0033130Y0076831D01*
X0030374Y0087067D01*
X0030688Y0085899D02*
X0032709Y0085899D01*
X0031218Y0083932D02*
X0036643Y0083932D01*
X0034965Y0081965D02*
X0031748Y0081965D01*
X0032277Y0079998D02*
X0033763Y0079998D01*
X0033370Y0078031D02*
X0032807Y0078031D01*
X0036673Y0067776D02*
X0042579Y0065807D01*
X0044941Y0065807D01*
X0043366Y0061476D01*
X0043760Y0056752D01*
X0036673Y0067776D01*
X0037667Y0066229D02*
X0041313Y0066229D01*
X0038932Y0064262D02*
X0044379Y0064262D01*
X0043664Y0062295D02*
X0040196Y0062295D01*
X0041461Y0060328D02*
X0043462Y0060328D01*
X0043626Y0058361D02*
X0042725Y0058361D01*
D13*
X0162657Y0065807D02*
X0163839Y0062264D01*
X0163051Y0056358D01*
X0170531Y0068563D01*
X0166988Y0066201D01*
X0162657Y0065807D01*
X0162851Y0065226D02*
X0168486Y0065226D01*
X0169124Y0067625D02*
X0169956Y0067625D01*
X0167016Y0062828D02*
X0163651Y0062828D01*
X0163594Y0060429D02*
X0165546Y0060429D01*
X0164076Y0058031D02*
X0163274Y0058031D01*
X0074469Y0167382D02*
X0071319Y0168957D01*
X0065807Y0169350D01*
X0077618Y0174469D01*
X0074862Y0170925D01*
X0074469Y0167382D01*
X0074577Y0168362D02*
X0072508Y0168362D01*
X0074844Y0170761D02*
X0069062Y0170761D01*
X0074597Y0173159D02*
X0076600Y0173159D01*
X0109114Y0178406D02*
X0112264Y0175650D01*
X0113445Y0172500D01*
X0115413Y0174862D01*
X0119744Y0177224D01*
X0109114Y0178406D01*
X0109628Y0177956D02*
X0113158Y0177956D01*
X0112298Y0175558D02*
X0116688Y0175558D01*
X0113994Y0173159D02*
X0113198Y0173159D01*
D14*
X0157303Y0146187D02*
X0151930Y0137683D01*
X0159063Y0144738D01*
X0159243Y0144590D02*
X0151930Y0137683D01*
X0157483Y0146039D01*
X0157303Y0146187D02*
X0159243Y0144590D01*
X0158668Y0145063D02*
X0151930Y0137683D01*
X0157878Y0145714D01*
X0151930Y0137683D02*
X0214916Y0214193D01*
X0215079Y0213134D02*
X0215079Y0215647D01*
X0213822Y0214390D02*
X0216336Y0214390D01*
D15*
X0189949Y0189548D02*
X0186654Y0192264D01*
X0187233Y0186253D01*
X0188736Y0186398D01*
X0190094Y0188045D01*
X0189949Y0189548D01*
X0186654Y0192264D02*
X0185151Y0192120D01*
X0183793Y0190472D01*
X0183938Y0188969D01*
X0187233Y0186253D01*
X0185849Y0184574D02*
X0185994Y0183072D01*
X0184636Y0181424D01*
X0183133Y0181279D01*
X0181762Y0179616D02*
X0182586Y0178937D01*
X0181907Y0178114D01*
X0181083Y0178793D01*
X0181762Y0179616D01*
X0179699Y0177114D02*
X0179844Y0175611D01*
X0178486Y0173964D01*
X0176983Y0173819D01*
X0175336Y0175177D02*
X0175870Y0177504D01*
X0176549Y0178328D01*
X0178052Y0178472D01*
X0179699Y0177114D01*
X0175336Y0175177D02*
X0172864Y0177214D01*
X0175581Y0180510D01*
X0179838Y0183996D02*
X0179693Y0185498D01*
X0181051Y0187146D01*
X0182554Y0187291D01*
X0183378Y0186612D01*
X0183523Y0185109D01*
X0185025Y0185254D01*
X0185849Y0184574D01*
X0183523Y0185109D02*
X0182843Y0184285D01*
X0173128Y0174178D02*
X0172304Y0174857D01*
X0170802Y0174712D01*
X0169444Y0173065D01*
X0169588Y0171562D01*
X0173128Y0174178D02*
X0173707Y0168167D01*
X0176423Y0171462D01*
D16*
X0111102Y0110852D02*
X0471102Y0110852D01*
X0471102Y0114352D01*
X0470852Y0114352D01*
X0470852Y0345102D01*
X0111102Y0345102D01*
X0111102Y0110852D01*
D17*
X0149625Y0160735D03*
X0190080Y0133708D03*
X0240124Y0133708D03*
X0280580Y0160735D03*
X0298552Y0198704D03*
X0298485Y0257086D03*
X0280513Y0295025D03*
X0240069Y0321989D03*
X0190136Y0321989D03*
X0149692Y0295025D03*
X0131719Y0257086D03*
X0131745Y0198664D03*
D18*
X0240102Y0214602D03*
X0338102Y0204852D03*
X0398102Y0204852D03*
X0398102Y0130852D03*
X0338102Y0130852D03*
X0338102Y0278852D03*
X0398102Y0278852D03*
D19*
X0388102Y0278852D03*
X0378102Y0278852D03*
X0368102Y0278852D03*
X0358102Y0278852D03*
X0348102Y0278852D03*
X0408102Y0278852D03*
X0418102Y0278852D03*
X0428102Y0278852D03*
X0438102Y0278852D03*
X0448102Y0278852D03*
X0448102Y0204852D03*
X0438102Y0204852D03*
X0428102Y0204852D03*
X0418102Y0204852D03*
X0408102Y0204852D03*
X0388102Y0204852D03*
X0378102Y0204852D03*
X0368102Y0204852D03*
X0358102Y0204852D03*
X0348102Y0204852D03*
X0348102Y0130852D03*
X0358102Y0130852D03*
X0368102Y0130852D03*
X0378102Y0130852D03*
X0388102Y0130852D03*
X0408102Y0130852D03*
X0418102Y0130852D03*
X0428102Y0130852D03*
X0438102Y0130852D03*
X0448102Y0130852D03*
X0230102Y0214602D03*
X0220102Y0214602D03*
X0210102Y0214602D03*
X0200102Y0214602D03*
X0190102Y0214602D03*
D20*
X0240102Y0258602D03*
X0338102Y0252352D03*
X0338102Y0178352D03*
X0338102Y0326352D03*
D21*
X0349552Y0331542D02*
X0349552Y0321162D01*
X0346652Y0321162D01*
X0346652Y0331542D01*
X0349552Y0331542D01*
X0349552Y0324061D02*
X0346652Y0324061D01*
X0346652Y0326960D02*
X0349552Y0326960D01*
X0349552Y0329859D02*
X0346652Y0329859D01*
X0359552Y0331542D02*
X0359552Y0321162D01*
X0356652Y0321162D01*
X0356652Y0331542D01*
X0359552Y0331542D01*
X0359552Y0324061D02*
X0356652Y0324061D01*
X0356652Y0326960D02*
X0359552Y0326960D01*
X0359552Y0329859D02*
X0356652Y0329859D01*
X0369552Y0331542D02*
X0369552Y0321162D01*
X0366652Y0321162D01*
X0366652Y0331542D01*
X0369552Y0331542D01*
X0369552Y0324061D02*
X0366652Y0324061D01*
X0366652Y0326960D02*
X0369552Y0326960D01*
X0369552Y0329859D02*
X0366652Y0329859D01*
X0379552Y0331542D02*
X0379552Y0321162D01*
X0376652Y0321162D01*
X0376652Y0331542D01*
X0379552Y0331542D01*
X0379552Y0324061D02*
X0376652Y0324061D01*
X0376652Y0326960D02*
X0379552Y0326960D01*
X0379552Y0329859D02*
X0376652Y0329859D01*
X0389552Y0331542D02*
X0389552Y0321162D01*
X0386652Y0321162D01*
X0386652Y0331542D01*
X0389552Y0331542D01*
X0389552Y0324061D02*
X0386652Y0324061D01*
X0386652Y0326960D02*
X0389552Y0326960D01*
X0389552Y0329859D02*
X0386652Y0329859D01*
X0389552Y0257542D02*
X0389552Y0247162D01*
X0386652Y0247162D01*
X0386652Y0257542D01*
X0389552Y0257542D01*
X0389552Y0250061D02*
X0386652Y0250061D01*
X0386652Y0252960D02*
X0389552Y0252960D01*
X0389552Y0255859D02*
X0386652Y0255859D01*
X0379552Y0257542D02*
X0379552Y0247162D01*
X0376652Y0247162D01*
X0376652Y0257542D01*
X0379552Y0257542D01*
X0379552Y0250061D02*
X0376652Y0250061D01*
X0376652Y0252960D02*
X0379552Y0252960D01*
X0379552Y0255859D02*
X0376652Y0255859D01*
X0369552Y0257542D02*
X0369552Y0247162D01*
X0366652Y0247162D01*
X0366652Y0257542D01*
X0369552Y0257542D01*
X0369552Y0250061D02*
X0366652Y0250061D01*
X0366652Y0252960D02*
X0369552Y0252960D01*
X0369552Y0255859D02*
X0366652Y0255859D01*
X0359552Y0257542D02*
X0359552Y0247162D01*
X0356652Y0247162D01*
X0356652Y0257542D01*
X0359552Y0257542D01*
X0359552Y0250061D02*
X0356652Y0250061D01*
X0356652Y0252960D02*
X0359552Y0252960D01*
X0359552Y0255859D02*
X0356652Y0255859D01*
X0349552Y0257542D02*
X0349552Y0247162D01*
X0346652Y0247162D01*
X0346652Y0257542D01*
X0349552Y0257542D01*
X0349552Y0250061D02*
X0346652Y0250061D01*
X0346652Y0252960D02*
X0349552Y0252960D01*
X0349552Y0255859D02*
X0346652Y0255859D01*
X0349552Y0183542D02*
X0349552Y0173162D01*
X0346652Y0173162D01*
X0346652Y0183542D01*
X0349552Y0183542D01*
X0349552Y0176061D02*
X0346652Y0176061D01*
X0346652Y0178960D02*
X0349552Y0178960D01*
X0349552Y0181859D02*
X0346652Y0181859D01*
X0359552Y0183542D02*
X0359552Y0173162D01*
X0356652Y0173162D01*
X0356652Y0183542D01*
X0359552Y0183542D01*
X0359552Y0176061D02*
X0356652Y0176061D01*
X0356652Y0178960D02*
X0359552Y0178960D01*
X0359552Y0181859D02*
X0356652Y0181859D01*
X0369552Y0183542D02*
X0369552Y0173162D01*
X0366652Y0173162D01*
X0366652Y0183542D01*
X0369552Y0183542D01*
X0369552Y0176061D02*
X0366652Y0176061D01*
X0366652Y0178960D02*
X0369552Y0178960D01*
X0369552Y0181859D02*
X0366652Y0181859D01*
X0379552Y0183542D02*
X0379552Y0173162D01*
X0376652Y0173162D01*
X0376652Y0183542D01*
X0379552Y0183542D01*
X0379552Y0176061D02*
X0376652Y0176061D01*
X0376652Y0178960D02*
X0379552Y0178960D01*
X0379552Y0181859D02*
X0376652Y0181859D01*
X0389552Y0183542D02*
X0389552Y0173162D01*
X0386652Y0173162D01*
X0386652Y0183542D01*
X0389552Y0183542D01*
X0389552Y0176061D02*
X0386652Y0176061D01*
X0386652Y0178960D02*
X0389552Y0178960D01*
X0389552Y0181859D02*
X0386652Y0181859D01*
X0228652Y0253412D02*
X0228652Y0263792D01*
X0231552Y0263792D01*
X0231552Y0253412D01*
X0228652Y0253412D01*
X0228652Y0256311D02*
X0231552Y0256311D01*
X0231552Y0259210D02*
X0228652Y0259210D01*
X0228652Y0262109D02*
X0231552Y0262109D01*
X0218652Y0263792D02*
X0218652Y0253412D01*
X0218652Y0263792D02*
X0221552Y0263792D01*
X0221552Y0253412D01*
X0218652Y0253412D01*
X0218652Y0256311D02*
X0221552Y0256311D01*
X0221552Y0259210D02*
X0218652Y0259210D01*
X0218652Y0262109D02*
X0221552Y0262109D01*
X0208652Y0263792D02*
X0208652Y0253412D01*
X0208652Y0263792D02*
X0211552Y0263792D01*
X0211552Y0253412D01*
X0208652Y0253412D01*
X0208652Y0256311D02*
X0211552Y0256311D01*
X0211552Y0259210D02*
X0208652Y0259210D01*
X0208652Y0262109D02*
X0211552Y0262109D01*
X0198652Y0263792D02*
X0198652Y0253412D01*
X0198652Y0263792D02*
X0201552Y0263792D01*
X0201552Y0253412D01*
X0198652Y0253412D01*
X0198652Y0256311D02*
X0201552Y0256311D01*
X0201552Y0259210D02*
X0198652Y0259210D01*
X0198652Y0262109D02*
X0201552Y0262109D01*
X0188652Y0263792D02*
X0188652Y0253412D01*
X0188652Y0263792D02*
X0191552Y0263792D01*
X0191552Y0253412D01*
X0188652Y0253412D01*
X0188652Y0256311D02*
X0191552Y0256311D01*
X0191552Y0259210D02*
X0188652Y0259210D01*
X0188652Y0262109D02*
X0191552Y0262109D01*
D22*
X0409802Y0247052D02*
X0409802Y0237652D01*
X0406402Y0237652D01*
X0406402Y0247052D01*
X0409802Y0247052D01*
X0409802Y0241051D02*
X0406402Y0241051D01*
X0406402Y0244450D02*
X0409802Y0244450D01*
X0419802Y0247652D02*
X0419802Y0257052D01*
X0419802Y0247652D02*
X0416402Y0247652D01*
X0416402Y0257052D01*
X0419802Y0257052D01*
X0419802Y0251051D02*
X0416402Y0251051D01*
X0416402Y0254450D02*
X0419802Y0254450D01*
X0429802Y0247052D02*
X0429802Y0237652D01*
X0426402Y0237652D01*
X0426402Y0247052D01*
X0429802Y0247052D01*
X0429802Y0241051D02*
X0426402Y0241051D01*
X0426402Y0244450D02*
X0429802Y0244450D01*
X0439802Y0247652D02*
X0439802Y0257052D01*
X0439802Y0247652D02*
X0436402Y0247652D01*
X0436402Y0257052D01*
X0439802Y0257052D01*
X0439802Y0251051D02*
X0436402Y0251051D01*
X0436402Y0254450D02*
X0439802Y0254450D01*
X0449802Y0247052D02*
X0449802Y0237652D01*
X0446402Y0237652D01*
X0446402Y0247052D01*
X0449802Y0247052D01*
X0449802Y0241051D02*
X0446402Y0241051D01*
X0446402Y0244450D02*
X0449802Y0244450D01*
X0439802Y0183052D02*
X0439802Y0173652D01*
X0436402Y0173652D01*
X0436402Y0183052D01*
X0439802Y0183052D01*
X0439802Y0177051D02*
X0436402Y0177051D01*
X0436402Y0180450D02*
X0439802Y0180450D01*
X0449802Y0173052D02*
X0449802Y0163652D01*
X0446402Y0163652D01*
X0446402Y0173052D01*
X0449802Y0173052D01*
X0449802Y0167051D02*
X0446402Y0167051D01*
X0446402Y0170450D02*
X0449802Y0170450D01*
X0429802Y0173052D02*
X0429802Y0163652D01*
X0426402Y0163652D01*
X0426402Y0173052D01*
X0429802Y0173052D01*
X0429802Y0167051D02*
X0426402Y0167051D01*
X0426402Y0170450D02*
X0429802Y0170450D01*
X0419802Y0173652D02*
X0419802Y0183052D01*
X0419802Y0173652D02*
X0416402Y0173652D01*
X0416402Y0183052D01*
X0419802Y0183052D01*
X0419802Y0177051D02*
X0416402Y0177051D01*
X0416402Y0180450D02*
X0419802Y0180450D01*
X0409802Y0173052D02*
X0409802Y0163652D01*
X0406402Y0163652D01*
X0406402Y0173052D01*
X0409802Y0173052D01*
X0409802Y0167051D02*
X0406402Y0167051D01*
X0406402Y0170450D02*
X0409802Y0170450D01*
X0409802Y0311652D02*
X0409802Y0321052D01*
X0409802Y0311652D02*
X0406402Y0311652D01*
X0406402Y0321052D01*
X0409802Y0321052D01*
X0409802Y0315051D02*
X0406402Y0315051D01*
X0406402Y0318450D02*
X0409802Y0318450D01*
X0419802Y0321652D02*
X0419802Y0331052D01*
X0419802Y0321652D02*
X0416402Y0321652D01*
X0416402Y0331052D01*
X0419802Y0331052D01*
X0419802Y0325051D02*
X0416402Y0325051D01*
X0416402Y0328450D02*
X0419802Y0328450D01*
X0429802Y0321052D02*
X0429802Y0311652D01*
X0426402Y0311652D01*
X0426402Y0321052D01*
X0429802Y0321052D01*
X0429802Y0315051D02*
X0426402Y0315051D01*
X0426402Y0318450D02*
X0429802Y0318450D01*
X0439802Y0321652D02*
X0439802Y0331052D01*
X0439802Y0321652D02*
X0436402Y0321652D01*
X0436402Y0331052D01*
X0439802Y0331052D01*
X0439802Y0325051D02*
X0436402Y0325051D01*
X0436402Y0328450D02*
X0439802Y0328450D01*
X0449802Y0321052D02*
X0449802Y0311652D01*
X0446402Y0311652D01*
X0446402Y0321052D01*
X0449802Y0321052D01*
X0449802Y0315051D02*
X0446402Y0315051D01*
X0446402Y0318450D02*
X0449802Y0318450D01*
D23*
X0398102Y0326352D03*
X0398102Y0252352D03*
X0398102Y0178352D03*
D24*
X0460102Y0154352D03*
X0460102Y0228352D03*
X0460102Y0302352D03*
X0327102Y0302352D03*
X0327102Y0228352D03*
X0327102Y0154352D03*
M02*
