G04 #@! TF.FileFunction,Soldermask,Bot*
%FSLAX46Y46*%
G04 Gerber Fmt 4.6, Leading zero omitted, Abs format (unit mm)*
G04 Created by KiCad (PCBNEW 4.0.0-rc1-stable) date 29/09/2017 04:45:12 p.m.*
%MOMM*%
G01*
G04 APERTURE LIST*
%ADD10C,0.100000*%
%ADD11R,1.700000X1.700000*%
%ADD12O,1.700000X1.700000*%
%ADD13C,6.200000*%
%ADD14R,0.900000X0.500000*%
%ADD15C,0.777240*%
%ADD16R,1.000000X1.250000*%
%ADD17R,0.900000X0.900000*%
%ADD18C,4.800600*%
%ADD19R,4.800600X4.800600*%
%ADD20R,1.200000X1.700000*%
%ADD21O,1.200000X1.700000*%
%ADD22R,0.250000X1.300000*%
%ADD23R,1.300000X0.250000*%
%ADD24C,0.899160*%
%ADD25R,0.500000X0.900000*%
%ADD26R,0.800000X0.750000*%
%ADD27R,0.750000X0.800000*%
%ADD28R,2.600000X0.800000*%
%ADD29R,1.800860X1.998980*%
%ADD30R,1.600000X1.000000*%
%ADD31C,2.000000*%
%ADD32R,0.400000X0.600000*%
%ADD33R,1.500000X1.300000*%
%ADD34R,1.143000X0.508000*%
%ADD35R,0.600000X0.500000*%
%ADD36R,0.400000X2.000000*%
%ADD37R,2.200000X1.200000*%
%ADD38R,1.400000X1.600000*%
%ADD39R,1.400000X1.200000*%
%ADD40R,1.600000X0.700000*%
G04 APERTURE END LIST*
D10*
D11*
X116929060Y-64095580D03*
D12*
X116929060Y-61555580D03*
X119469060Y-64095580D03*
X119469060Y-61555580D03*
X122009060Y-64095580D03*
X122009060Y-61555580D03*
X124549060Y-64095580D03*
X124549060Y-61555580D03*
X127089060Y-64095580D03*
X127089060Y-61555580D03*
D13*
X160838440Y-63189700D03*
D14*
X123531000Y-88110000D03*
X123531000Y-89610000D03*
D15*
X149949060Y-73112580D03*
X151115786Y-71945854D03*
X152282512Y-73112580D03*
X151115786Y-74279306D03*
X149949060Y-75446032D03*
X148782334Y-74279306D03*
X147615608Y-73112580D03*
X148782334Y-71945854D03*
X149949060Y-70779128D03*
D16*
X143869060Y-101052580D03*
X145869060Y-101052580D03*
D17*
X163260060Y-90832000D03*
X163260060Y-96032000D03*
X163260060Y-92152000D03*
X163260060Y-94712000D03*
X163260060Y-93432000D03*
X160260060Y-94712000D03*
X160260060Y-90832000D03*
X160260060Y-96032000D03*
X160260060Y-92152000D03*
X160260060Y-93432000D03*
D13*
X160838440Y-121189700D03*
X111838900Y-121189700D03*
D11*
X113119060Y-116292580D03*
D12*
X110579060Y-116292580D03*
X113119060Y-113752580D03*
X110579060Y-113752580D03*
X113119060Y-111212580D03*
X110579060Y-111212580D03*
X113119060Y-108672580D03*
X110579060Y-108672580D03*
X113119060Y-106132580D03*
X110579060Y-106132580D03*
X113119060Y-103592580D03*
X110579060Y-103592580D03*
X113119060Y-101052580D03*
X110579060Y-101052580D03*
X113119060Y-98512580D03*
X110579060Y-98512580D03*
X113119060Y-95972580D03*
X110579060Y-95972580D03*
X113119060Y-93432580D03*
X110579060Y-93432580D03*
X113119060Y-90892580D03*
X110579060Y-90892580D03*
X113119060Y-88352580D03*
X110579060Y-88352580D03*
X113119060Y-85812580D03*
X110579060Y-85812580D03*
X113119060Y-83272580D03*
X110579060Y-83272580D03*
X113119060Y-80732580D03*
X110579060Y-80732580D03*
X113119060Y-78192580D03*
X110579060Y-78192580D03*
X113119060Y-75652580D03*
X110579060Y-75652580D03*
X113119060Y-73112580D03*
X110579060Y-73112580D03*
X113119060Y-70572580D03*
X110579060Y-70572580D03*
X113119060Y-68032580D03*
X110579060Y-68032580D03*
D18*
X112512000Y-145688000D03*
D19*
X118608000Y-145688000D03*
D18*
X114798000Y-150768000D03*
D13*
X111838440Y-63189700D03*
D20*
X147310000Y-154070000D03*
D21*
X145310000Y-154070000D03*
X143310000Y-154070000D03*
X141310000Y-154070000D03*
X139310000Y-154070000D03*
X137310000Y-154070000D03*
D11*
X163919060Y-78192000D03*
D12*
X161379060Y-78192000D03*
X163919060Y-75652000D03*
X161379060Y-75652000D03*
X163919060Y-73112000D03*
X161379060Y-73112000D03*
X163919060Y-70572000D03*
X161379060Y-70572000D03*
X163919060Y-68032000D03*
X161379060Y-68032000D03*
D22*
X149485060Y-107878580D03*
X149985060Y-107878580D03*
X150485060Y-107878580D03*
X150985060Y-107878580D03*
X151485060Y-107878580D03*
X151985060Y-107878580D03*
X152485060Y-107878580D03*
X152985060Y-107878580D03*
X153485060Y-107878580D03*
X153985060Y-107878580D03*
X154485060Y-107878580D03*
X154985060Y-107878580D03*
D23*
X156585060Y-109478580D03*
X156585060Y-109978580D03*
X156585060Y-110478580D03*
X156585060Y-110978580D03*
X156585060Y-111478580D03*
X156585060Y-111978580D03*
X156585060Y-112478580D03*
X156585060Y-112978580D03*
X156585060Y-113478580D03*
X156585060Y-113978580D03*
X156585060Y-114478580D03*
X156585060Y-114978580D03*
D22*
X154985060Y-116578580D03*
X154485060Y-116578580D03*
X153985060Y-116578580D03*
X153485060Y-116578580D03*
X152985060Y-116578580D03*
X152485060Y-116578580D03*
X151985060Y-116578580D03*
X151485060Y-116578580D03*
X150985060Y-116578580D03*
X150485060Y-116578580D03*
X149985060Y-116578580D03*
X149485060Y-116578580D03*
D23*
X147885060Y-114978580D03*
X147885060Y-114478580D03*
X147885060Y-113978580D03*
X147885060Y-113478580D03*
X147885060Y-112978580D03*
X147885060Y-112478580D03*
X147885060Y-111978580D03*
X147885060Y-111478580D03*
X147885060Y-110978580D03*
X147885060Y-110478580D03*
X147885060Y-109978580D03*
X147885060Y-109478580D03*
D24*
X161034100Y-151511640D03*
X161034100Y-147112360D03*
D14*
X159347060Y-113994580D03*
X159347060Y-112494580D03*
X161887060Y-113994580D03*
X161887060Y-112494580D03*
X161887060Y-110946580D03*
X161887060Y-109446580D03*
D25*
X150699060Y-106132580D03*
X149199060Y-106132580D03*
D26*
X140815000Y-116292000D03*
X142315000Y-116292000D03*
X145873060Y-116292580D03*
X144373060Y-116292580D03*
D27*
X159347060Y-106882580D03*
X159347060Y-105382580D03*
X145377060Y-114756580D03*
X145377060Y-113256580D03*
X145377060Y-109954580D03*
X145377060Y-111454580D03*
D25*
X121489060Y-101052580D03*
X119989060Y-101052580D03*
D28*
X142583060Y-112482580D03*
X142583060Y-113982580D03*
X142583060Y-110982580D03*
D29*
X145778380Y-88421160D03*
X151579740Y-88421160D03*
X145778380Y-84220000D03*
X151579740Y-84220000D03*
D30*
X126736000Y-135298000D03*
X126736000Y-138298000D03*
D31*
X163182000Y-102484000D03*
X163182000Y-86784000D03*
X158232000Y-101884000D03*
X158232000Y-87384000D03*
D32*
X129726000Y-139338000D03*
X128826000Y-139338000D03*
D33*
X144279000Y-118832000D03*
X146979000Y-118832000D03*
D30*
X113528000Y-135298000D03*
X113528000Y-138298000D03*
D11*
X146040000Y-144926000D03*
D12*
X146040000Y-147466000D03*
X143500000Y-144926000D03*
X143500000Y-147466000D03*
X140960000Y-144926000D03*
X140960000Y-147466000D03*
D34*
X137630060Y-102449580D03*
X137630060Y-101179580D03*
X137630060Y-99909580D03*
X137630060Y-98639580D03*
X131280060Y-98639580D03*
X131280060Y-99909580D03*
X131280060Y-101179580D03*
X131280060Y-102449580D03*
D25*
X125299060Y-106132580D03*
X123799060Y-106132580D03*
D16*
X129899060Y-95972580D03*
X131899060Y-95972580D03*
X123549060Y-101052580D03*
X125549060Y-101052580D03*
X129359060Y-103592580D03*
X127359060Y-103592580D03*
X140059060Y-106132580D03*
X142059060Y-106132580D03*
X139519060Y-93432580D03*
X137519060Y-93432580D03*
X129359060Y-106132580D03*
X127359060Y-106132580D03*
X140059060Y-103592580D03*
X142059060Y-103592580D03*
D35*
X139069060Y-95972580D03*
X137969060Y-95972580D03*
D16*
X123549060Y-108672580D03*
X125549060Y-108672580D03*
X142059060Y-98512580D03*
X140059060Y-98512580D03*
D35*
X141609060Y-95972580D03*
X140509060Y-95972580D03*
X136529060Y-90892580D03*
X135429060Y-90892580D03*
X139069060Y-109942580D03*
X137969060Y-109942580D03*
X135429060Y-112482580D03*
X136529060Y-112482580D03*
D16*
X131899060Y-109942580D03*
X129899060Y-109942580D03*
D35*
X131449060Y-107402580D03*
X130349060Y-107402580D03*
X123999060Y-103592580D03*
X125099060Y-103592580D03*
D16*
X129899060Y-93432580D03*
X131899060Y-93432580D03*
D35*
X132889060Y-90892580D03*
X133989060Y-90892580D03*
X123999060Y-98512580D03*
X125099060Y-98512580D03*
X153209060Y-118832580D03*
X154309060Y-118832580D03*
D16*
X151711060Y-118832580D03*
X149711060Y-118832580D03*
D35*
X140509060Y-101052580D03*
X141609060Y-101052580D03*
D16*
X127359060Y-98512580D03*
X129359060Y-98512580D03*
D35*
X137799060Y-107402580D03*
X136699060Y-107402580D03*
D27*
X159347060Y-110946580D03*
X159347060Y-109446580D03*
D26*
X121259060Y-66762580D03*
X122759060Y-66762580D03*
X121259060Y-70572580D03*
X122759060Y-70572580D03*
D35*
X123194060Y-75652580D03*
X122094060Y-75652580D03*
X123194060Y-73112580D03*
X122094060Y-73112580D03*
D26*
X125704060Y-82002580D03*
X127204060Y-82002580D03*
X124029060Y-82002580D03*
X122529060Y-82002580D03*
D24*
X137924700Y-64057480D03*
X133525420Y-64057480D03*
D33*
X120659060Y-68667580D03*
X123359060Y-68667580D03*
D36*
X127019060Y-79462580D03*
X125819060Y-79462580D03*
X124619060Y-79462580D03*
D35*
X123194060Y-74382000D03*
X122094060Y-74382000D03*
D25*
X117423000Y-94956000D03*
X115923000Y-94956000D03*
X117423000Y-93559000D03*
X115923000Y-93559000D03*
X117423000Y-92162000D03*
X115923000Y-92162000D03*
X117423000Y-97750000D03*
X115923000Y-97750000D03*
X117423000Y-99147000D03*
X115923000Y-99147000D03*
X117423000Y-96353000D03*
X115923000Y-96353000D03*
D11*
X122007000Y-123277000D03*
D12*
X119467000Y-123277000D03*
X116927000Y-123277000D03*
D37*
X161612000Y-141822000D03*
X161612000Y-126322000D03*
D38*
X152012000Y-140922000D03*
D39*
X152012000Y-126322000D03*
D40*
X151512000Y-127472000D03*
X151512000Y-129672000D03*
X151512000Y-128572000D03*
X151512000Y-130772000D03*
X151512000Y-131872000D03*
X151512000Y-132972000D03*
X151512000Y-136272000D03*
X151512000Y-135172000D03*
X151512000Y-134072000D03*
D16*
X155299060Y-71842580D03*
X157299060Y-71842580D03*
X152759060Y-69302580D03*
X154759060Y-69302580D03*
X155299060Y-76922580D03*
X157299060Y-76922580D03*
X147139060Y-69302580D03*
X145139060Y-69302580D03*
D14*
X126452000Y-90142000D03*
X126452000Y-91642000D03*
X127976000Y-91642000D03*
X127976000Y-90142000D03*
M02*
