M48
;DRILL file {KiCad 4.0.0-rc1-stable} date 29/09/2017 04:45:16 p.m.
;FORMAT={-:-/ absolute / metric / decimal}
FMAT,2
METRIC,TZ
T1C0.300
T2C0.305
T3C0.381
T4C0.400
T5C0.750
T6C1.000
T7C1.016
T8C1.300
T9C2.750
%
G90
G05
M71
T1
X114.514Y-99.147
X114.641Y-88.86
X115.022Y-87.717
X115.318Y-101.179
X115.361Y-100.29
X117.054Y-90.892
X117.625Y-90.326
X117.816Y-119.721
X118.197Y-90.892
X118.578Y-69.937
X118.578Y-119.721
X118.832Y-104.354
X118.832Y-105.054
X118.931Y-103.592
X119.342Y-119.722
X119.482Y-68.795
X119.721Y-96.988
X119.721Y-97.75
X119.975Y-96.226
X119.977Y-101.815
X120.102Y-119.721
X120.231Y-70.573
X120.737Y-131.532
X120.864Y-95.464
X120.864Y-119.721
X121.118Y-96.226
X121.234Y-75.968
X121.247Y-76.669
X121.247Y-77.431
X121.247Y-78.193
X121.247Y-79.082
X121.372Y-94.891
X121.625Y-119.681
X122.238Y-72.326
X122.515Y-93.686
X122.515Y-94.448
X122.517Y-101.857
X122.684Y-87.59
X123.152Y-72.351
X123.277Y-128.992
X123.279Y-100.037
X123.749Y-98.013
X123.77Y-84.303
X123.902Y-109.475
X124.039Y-87.082
X124.041Y-102.831
X124.166Y-111.339
X124.166Y-112.609
X124.166Y-113.879
X124.168Y-74.463
X124.192Y-93.559
X124.549Y-80.86
X124.798Y-84.288
X124.801Y-114.514
X124.801Y-92.797
X124.801Y-111.974
X124.801Y-113.244
X125.057Y-102.831
X125.184Y-73.913
X125.311Y-98.005
X125.311Y-100.037
X125.311Y-109.435
X125.436Y-115.149
X125.498Y-84.288
X126.071Y-115.784
X126.071Y-89.114
X126.198Y-84.288
X126.452Y-66.762
X126.482Y-147.212
X126.706Y-88.606
X126.706Y-116.419
X126.833Y-95.21
X126.96Y-84.288
X127.019Y-80.86
X127.214Y-117.054
X127.299Y-88.098
X127.341Y-111.339
X127.359Y-104.863
X127.47Y-76.923
X127.597Y-107.149
X127.752Y-139.846
X127.849Y-84.288
X127.849Y-117.689
X127.978Y-77.558
X128.357Y-118.324
X128.444Y-87.21
X128.484Y-112.609
X128.514Y-143.91
X128.611Y-84.288
X128.994Y-72.986
X129.001Y-75.573
X129.246Y-113.371
X129.375Y-97.497
X129.375Y-107.149
X129.883Y-94.957
X130.137Y-102.069
X130.137Y-108.419
X130.8Y-139.846
X130.8Y-149.752
X131.153Y-115.304
X131.28Y-81.876
X131.285Y-114.616
X131.661Y-108.419
X131.899Y-94.973
X131.915Y-92.163
X132.475Y-103.593
X132.55Y-111.086
X132.76Y-80.479
X132.802Y-105.37
X132.931Y-90.131
X133.058Y-72.224
X133.183Y-115.403
X133.312Y-111.086
X133.818Y-100.29
X133.947Y-90.131
X134.072Y-102.068
X134.072Y-115.488
X134.707Y-75.652
X135.446Y-111.721
X135.471Y-90.131
X135.698Y-101.56
X136.487Y-90.131
X136.512Y-111.721
X136.699Y-108.377
X136.741Y-106.641
X136.995Y-69.049
X137.503Y-94.449
X137.757Y-106.641
X137.96Y-109.181
X138.011Y-96.735
X138.898Y-119.086
X139.052Y-109.181
X139.535Y-94.449
X139.787Y-119.086
X139.789Y-99.529
X140.043Y-97.243
X140.059Y-104.863
X140.5Y-95.211
X140.549Y-119.086
X141.249Y-119.086
X141.567Y-101.815
X141.618Y-95.211
X141.821Y-100.291
X141.948Y-97.243
X141.949Y-119.086
X142.059Y-104.863
X142.327Y-135.977
X142.649Y-119.086
X143.216Y-109.561
X143.345Y-116.293
X143.853Y-102.069
X144.361Y-91.528
X145.118Y-92.697
X145.248Y-91.908
X145.627Y-68.537
X145.885Y-100.037
X145.885Y-102.069
X146.264Y-105.878
X146.518Y-113.625
X146.52Y-68.414
X146.645Y-65.492
X147.196Y-77.389
X149.185Y-113.625
X149.187Y-109.689
X149.187Y-111.213
X149.441Y-112.483
X149.949Y-102.577
X149.949Y-118.071
X150.076Y-66.255
X150.965Y-67.525
X151.346Y-78.574
X153.249Y-62.825
X153.251Y-68.541
X153.329Y-94.188
X153.329Y-94.888
X153.632Y-76.923
X153.632Y-77.939
X153.759Y-109.435
X153.759Y-115.277
X154.267Y-68.541
X154.985Y-118.103
X155.281Y-68.032
X155.537Y-77.643
X155.662Y-148.677
X155.662Y-149.947
X155.662Y-151.852
X155.791Y-71.081
X156.849Y-77.643
X157.061Y-71.081
X158.06Y-114.99
X158.06Y-115.767
X158.077Y-105.879
X158.085Y-114.237
X158.099Y-113.473
X159.345Y-92.543
X161.123Y-92.162
X162.266Y-90.892
X162.266Y-92.162
X162.266Y-94.702
X162.266Y-93.432
T2
X108.672Y-68.032
X108.672Y-73.112
X108.672Y-78.192
X108.672Y-83.272
X108.672Y-88.352
X108.672Y-93.432
X108.672Y-98.512
X108.672Y-103.592
X108.672Y-108.672
X108.672Y-113.752
X108.672Y-125.182
X108.672Y-131.532
X109.307Y-150.582
X109.942Y-154.392
X110.577Y-138.517
X111.847Y-59.142
X111.847Y-125.182
X115.657Y-66.762
X115.657Y-138.517
X116.292Y-118.197
X116.83Y-126.13
X116.927Y-59.142
X116.927Y-156.297
X119.116Y-131.718
X120.737Y-138.517
X121.91Y-126.13
X122.007Y-59.142
X123.277Y-156.297
X123.434Y-140.544
X124.547Y-122.642
X124.958Y-140.544
X125.817Y-123.912
X127.087Y-59.142
X127.087Y-151.852
X128.006Y-147.212
X128.357Y-156.297
X128.514Y-143.91
X129.53Y-126.13
X129.627Y-64.222
X129.784Y-140.544
X129.784Y-141.37
X130.038Y-146.196
X130.897Y-59.142
X132.167Y-138.517
X132.324Y-131.718
X132.324Y-141.692
X133.437Y-151.852
X133.437Y-156.297
X134.61Y-126.13
X135.342Y-138.517
X135.977Y-73.112
X135.977Y-128.992
X135.977Y-134.707
X135.979Y-84.543
X137.247Y-124.547
X138.517Y-141.692
X138.517Y-151.852
X139.787Y-156.297
X141.057Y-59.142
X142.327Y-64.222
X142.329Y-88.353
X143.599Y-83.273
X143.599Y-85.813
X144.867Y-59.142
X144.867Y-80.097
X146.137Y-156.297
X147.407Y-90.892
X147.409Y-93.433
X148.677Y-59.142
X148.677Y-80.097
X148.677Y-140.422
X148.677Y-146.137
X149.949Y-90.893
X150.457Y-99.021
X152.487Y-59.142
X152.487Y-80.097
X152.487Y-142.962
X152.487Y-146.137
X152.487Y-151.852
X152.487Y-156.297
X152.743Y-96.735
X153.759Y-83.273
X153.759Y-88.353
X154.775Y-96.735
X156.297Y-59.142
X156.297Y-65.492
X156.297Y-68.032
X156.299Y-83.273
X156.299Y-88.353
X157.47Y-156.297
X158.837Y-68.032
X158.837Y-70.572
X158.837Y-73.112
X158.837Y-80.097
X158.837Y-139.135
X158.839Y-83.273
X160.107Y-59.142
X161.377Y-139.135
X162.647Y-59.142
X162.647Y-156.297
X164.933Y-142.327
X165.187Y-61.682
X165.187Y-65.492
X165.187Y-80.732
X165.187Y-85.177
X165.187Y-104.862
X165.187Y-109.942
X165.187Y-115.022
X165.187Y-120.102
X165.187Y-125.182
T3
X147.616Y-73.113
X148.782Y-71.946
X148.782Y-74.279
X149.949Y-70.779
X149.949Y-73.113
X149.949Y-75.446
X151.116Y-71.946
X151.116Y-74.279
X152.283Y-73.113
T4
X113.5Y-126.453
X113.528Y-132.734
X126.736Y-126.453
X126.736Y-132.734
X128.006Y-147.212
X130.038Y-146.196
X141.186Y-127.469
X153.759Y-112.229
T5
X137.31Y-154.07
X139.31Y-154.07
X141.31Y-154.07
X143.31Y-154.07
X145.31Y-154.07
X147.31Y-154.07
T6
X110.579Y-68.033
X110.579Y-70.573
X110.579Y-73.113
X110.579Y-75.653
X110.579Y-78.193
X110.579Y-80.733
X110.579Y-83.273
X110.579Y-85.813
X110.579Y-88.353
X110.579Y-90.893
X110.579Y-93.433
X110.579Y-95.973
X110.579Y-98.513
X110.579Y-101.053
X110.579Y-103.593
X110.579Y-106.133
X110.579Y-108.673
X110.579Y-111.213
X110.579Y-113.753
X110.579Y-116.293
X113.119Y-68.033
X113.119Y-70.573
X113.119Y-73.113
X113.119Y-75.653
X113.119Y-78.193
X113.119Y-80.733
X113.119Y-83.273
X113.119Y-85.813
X113.119Y-88.353
X113.119Y-90.893
X113.119Y-93.433
X113.119Y-95.973
X113.119Y-98.513
X113.119Y-101.053
X113.119Y-103.593
X113.119Y-106.133
X113.119Y-108.673
X113.119Y-111.213
X113.119Y-113.753
X113.119Y-116.293
X116.927Y-123.277
X116.929Y-61.556
X116.929Y-64.096
X119.467Y-123.277
X119.469Y-61.556
X119.469Y-64.096
X122.007Y-123.277
X122.009Y-61.556
X122.009Y-64.096
X124.549Y-61.556
X124.549Y-64.096
X127.089Y-61.556
X127.089Y-64.096
X140.96Y-144.926
X140.96Y-147.466
X143.5Y-144.926
X143.5Y-147.466
X146.04Y-144.926
X146.04Y-147.466
X161.379Y-68.032
X161.379Y-70.572
X161.379Y-73.112
X161.379Y-75.652
X161.379Y-78.192
X163.919Y-68.032
X163.919Y-70.572
X163.919Y-73.112
X163.919Y-75.652
X163.919Y-78.192
T8
X158.232Y-87.384
X158.232Y-101.884
X163.182Y-86.784
X163.182Y-102.484
T9
X111.838Y-63.19
X111.839Y-121.19
X160.838Y-63.19
X160.838Y-121.19
T7
X112.512Y-144.926G85X112.512Y-146.45
G05
X114.036Y-150.768G85X115.56Y-150.768
G05
X118.608Y-144.926G85X118.608Y-146.45
G05
T0
M30
